<svg xmlns="http://www.w3.org/2000/svg" width="273.515" height="172.768" viewBox="0 0 273.515 172.768"><g transform="translate(-2313.268 -724.075)"><path d="M-2451.939,16.416h0c-.219,0-.35,0-.391-.006a21.89,21.89,0,0,1-3.128-5.777c-.939-2.545-.558-3.6.363-6.148.376-1.042.845-2.338,1.345-4.088,1.12-3.919,2.916-4.413,5-4.986a10.637,10.637,0,0,0,3.528-1.488c.895-.621,2.876-.923,6.058-.923,3.686,0,8.322.412,12.372.816q1.289.128,2.494.253h.009c3.067.314,5.489.562,6.708.562.117,0,.222,0,.313-.007l.1,0c1.823,0,4.456,2.678,6.344,4.925a61.357,61.357,0,0,1,3.7,4.924l3.6,11.008-3.02.064-4.7.1c.016-.288.025-.583.025-.877a16.307,16.307,0,0,0-16.25-16.326h-.035A16.315,16.315,0,0,0-2443.8,14.7c0,.532.024,1.07.074,1.6C-2448.287,16.376-2450.974,16.416-2451.939,16.416Z" transform="translate(4948.115 862.995)" fill="#183658" stroke="rgba(0,0,0,0)" stroke-miterlimit="10" stroke-width="1"/><path d="M628.841,1129.352c2.184-1.871,3.5-3.856,3.166-5.83-.6-3.522-5.6-1.258-5.793-3.8-.331-4.424,18.753-3.39,18.122-9.062-.617-5.546-14.643,3.526-15.23-.482-.362-2.475,20.845-2.266,21.275-7.893s-15.345-.183-18.453-1.836,29.9-11.669,26.6-19.028c-2.695-6-24.7,8.039-28.324,6.629s13.959-13.291,19.395-24.163c5.621-11.244,1.026-16.905-7.87-7.963s-23.536,26.009-24.138,20.868,9.4-24.147,1.275-22.725c-14.291,2.5-15.471,26.149-19.9,44.631-.469,1.957-5.25-21.083-11.045-14.138-2.981,3.573,2.547,29.88,5.994,44.793Z" transform="translate(1753.605 -236.145)" fill="#96d9c9"/><circle cx="7.572" cy="7.572" r="7.572" transform="translate(2442.797 787.244) rotate(-85.067)" fill="#fff"/><path d="M2275.332,591.778c-.239,1.886,1.725,3.383,3.472,3.265a4.3,4.3,0,0,0,3.851-3.612,3.16,3.16,0,0,0-2.838-3.847,2.382,2.382,0,0,0-2.51,3.177c.385,1.2,1.477,1.643,2.028,1.313a.547.547,0,0,0-.116-1.021.536.536,0,0,0-.533.23,1.568,1.568,0,0,1-.594-1.9c.375-1.141,1.818-1.207,2.714-.674a2.7,2.7,0,0,1,.9,3.3,3.511,3.511,0,0,1-2.944,2.275,2.735,2.735,0,0,1-2.9-2.5A.267.267,0,0,0,2275.332,591.778Z" transform="translate(241.596 179.36)" fill="#f48c7f"/><path d="M2589,496.965l1.24-2.8-1.6-2.608a.421.421,0,0,1,.4-.639l3.045.315,1.985-2.33a.421.421,0,0,1,.732.185l.642,2.993,2.83,1.168a.421.421,0,0,1,.05.753l-2.648,1.535-.236,3.052a.421.421,0,0,1-.7.281l-2.279-2.044-2.976.718A.421.421,0,0,1,2589,496.965Z" transform="translate(-38.966 267.863)" fill="#f48c7f"/><path d="M1477.58,324.695l.93-2.1-1.2-1.956a.316.316,0,0,1,.3-.479l2.284.236,1.489-1.748a.315.315,0,0,1,.549.138l.481,2.245,2.122.876a.316.316,0,0,1,.038.565l-1.986,1.152-.177,2.289a.316.316,0,0,1-.525.21l-1.709-1.533-2.232.539A.316.316,0,0,1,1477.58,324.695Z" transform="translate(956.338 420.313)" fill="#f7cc7f"/><path d="M2779.976,749.089l1.317-2.393,4.084,1.694,2.357-3.261,3.263.768.389-1.652-4.365-1.027-2.234,3.09-4.249-1.762-1.982,3.6Z" transform="translate(-209.115 39.965)" fill="#50bfa5"/><path d="M1718.888,204.961l-2.319-1.443,1.91-3.988-3.13-2.528.941-3.218-1.629-.476-1.259,4.3,2.966,2.4-1.986,4.148,3.489,2.171Z" transform="translate(744.849 532.469)" fill="#07345a"/><path d="M2057.325,371.863l1.716-2.788-1.378-.559a.59.59,0,0,1-.325-.768h0a.589.589,0,0,1,.768-.325l1.59.645,1.534-2.5-1.472-.6a.59.59,0,0,1-.325-.768h0a.59.59,0,0,1,.768-.325l1.683.683,1.782-2.867a.59.59,0,0,1,.722-.235l.257.1a.589.589,0,0,1,.281.854l-1.658,2.705,2.441.99,1.782-2.867a.589.589,0,0,1,.722-.235l.281.114a.589.589,0,0,1,.281.854l-1.658,2.705,1.378.559a.589.589,0,0,1,.324.768h0a.589.589,0,0,1-.767.325l-1.59-.645-1.511,2.513,1.472.6a.589.589,0,0,1,.325.768h0a.589.589,0,0,1-.768.325l-1.684-.683-1.82,2.957a.59.59,0,0,1-.724.237l-.3-.122a.589.589,0,0,1-.281-.855l1.717-2.788-2.441-.99-1.821,2.957a.589.589,0,0,1-.723.237l-.3-.122A.589.589,0,0,1,2057.325,371.863Zm6.219-2.234,1.534-2.5-2.441-.99-1.535,2.5Z" transform="translate(436.905 381.913)" fill="#50bfa5"/><path d="M601.1,177.589h0l-.021-.007c-.2-.071-.4-.135-.6-.194-.07-.02-.139-.041-.209-.06s-.148-.037-.223-.055-.151-.036-.227-.053-.144-.03-.217-.043-.163-.03-.244-.044l-.209-.032c-.088-.013-.177-.024-.266-.034-.065-.008-.13-.015-.195-.022-.1-.01-.2-.017-.307-.023l-.162-.011c-.158-.008-.316-.012-.476-.012h-73.21q-.256,0-.508.013a9.908,9.908,0,0,0-1,.1q-.245.038-.486.087a9.9,9.9,0,0,0-7.831,8.692,10.056,10.056,0,0,0-.051,1.013V337.036a9.907,9.907,0,0,0,6.512,9.316h0l.051.017c.188.067.38.128.573.184.07.02.139.041.209.06s.148.037.223.055.151.036.227.053.144.03.217.043.163.03.244.044l.209.032c.088.013.177.024.266.034.065.007.129.015.195.022.1.01.2.017.307.023l.162.011c.158.008.316.012.476.012h73.21a9.994,9.994,0,0,0,1.009-.051,9.892,9.892,0,0,0,8.812-8.842,10.057,10.057,0,0,0,.051-1.013V186.906A9.907,9.907,0,0,0,601.1,177.589Z" transform="translate(1818.455 547.075)" fill="#042e6f"/><rect width="83.667" height="142.941" transform="translate(2337.897 737.575)" fill="#eafcfc"/><path d="M644.167,366.54l-24.148-1.981-.688-14.153-5.934-.246v-9.644l30.77,13.2V351l-10.207-4.378-1.932-40.3h-2.492l1.88,39.209L613.4,337.807v-.275h-.642l-4.1-1.759-.019-29.446h-2.489l.018,28.378L581.2,324V306.327h-4.978v15.536L560.5,315.118v2.708l15.724,6.745v15.746l-15.724-7.34v2.747l15.724,7.34v9.3l-14.2,18.021-1.528.03V372.9l12.5-.247V389.6l13.049,7.249-13.691,6.019L560.5,394.408v3.058l11.2,7.99.009-.013-2.7,43.825H574l1.676-27.231,21.036,7.689L594.3,449.268h2.508l2.3-18.664,20.531,7.5-3.594,11.159h2.615l3.318-10.3,22.188,8.111v-2.65l-21.425-7.832,6.065-18.835-7.763-4.313c2.7-3.266,8.523-10.329,14.335-17.428,3.7-4.522,6.567-8.039,8.787-10.783v-3.963c-2.752,3.42-6.3,7.785-10.123,12.451l-13.011-8.315-.892-18.341,24.026,1.971ZM614.58,355.19l1.369,28.147-14.994-13.024V354.625ZM581.2,326.706l29.706,12.742v10.608L581.2,348.824Zm-15.956,43.611,13.1-16.63,20.119.835v15.139Zm10.24,17.82V372.6l23.769-.47,14.454,12.555-24.8,10.9Zm50.325,30.8-5.409,16.8-44.57-16.292.8-13.018,14.878-6.541Zm6.645-23.28c-4.568,5.575-9.4,11.443-13.624,16.555l-24.459-13.588L619.687,387.5Z" transform="translate(1777.397 431.248)" fill="#fff"/><g transform="translate(2349.499 766.893)"><path d="M720.453,689.677,671.631,672.23l.855-15.9L715.31,637.4l-16.938-14.519V604.528l-21.017-.632V587.173h1.778v15l21.017.632v19.259l18.459,15.822L674.2,657.512,673.478,671l47.574,17Z" transform="translate(-671.631 -587.173)" fill="#c0dde3"/></g><path d="M-2416.1,21.244h0c-.327,0-1.6-.162-3.771-.48a16.485,16.485,0,0,0,.106-1.836,16.182,16.182,0,0,0-4.75-11.524,16.174,16.174,0,0,0-11.5-4.8h-.037a16.332,16.332,0,0,0-15.956,13.022c-2.463-.406-3.994-.66-3.994-.66.04-.136,4.551-15.528,4.643-15.9a34.85,34.85,0,0,1,3.7-3.174A28.371,28.371,0,0,1-2443.627-7c.527,0,32.874,5.816,33.2,5.874,0,.011-.014.065-.036.158-.853,3.663-5.129,21.948-5.554,22.2A.215.215,0,0,1-2416.1,21.244Z" transform="translate(4831.264 858.833)" fill="#183658" stroke="rgba(0,0,0,0)" stroke-miterlimit="10" stroke-width="1"/><path d="M687.692,469.935l4.556,9.043,4.782-8.925a5.114,5.114,0,0,0-4.421-7.157l-.159,0h-.159A5.114,5.114,0,0,0,687.692,469.935Zm2.331-1.877a2.362,2.362,0,1,1,2.332,2.392A2.362,2.362,0,0,1,690.023,468.058Z" transform="translate(1663.82 291.028)" fill="#ff741a"/><rect width="35.68" height="1.791" rx="0.868" transform="translate(2361.817 731.292)" fill="#fff"/><path d="M928.38,1706.332a4.1,4.1,0,1,1-4.1-4.109A4.1,4.1,0,0,1,928.38,1706.332Z" transform="translate(1455.256 -818.929)" fill="#daeef7" opacity="0.3"/><rect width="83.383" height="5.997" transform="translate(2337.897 874.519)" fill="#3cb4c5" opacity="0.2"/><rect width="83.667" height="7.586" transform="translate(2337.897 737.575)" fill="#3cb4c5" opacity="0.2"/><path d="M2176.838,927.55h-30.905a1.936,1.936,0,0,0-1.933,1.94v12.8a1.936,1.936,0,0,0,1.933,1.94h24.332a41.4,41.4,0,0,0,2.928,3.848,21.2,21.2,0,0,0-.337-3.848h3.983a1.936,1.936,0,0,0,1.933-1.94v-12.8A1.936,1.936,0,0,0,2176.838,927.55Z" transform="translate(359.2 -125.125)" fill="#ff741a"/><rect width="9.448" height="0.845" rx="0.422" transform="translate(2507.167 806.981)" fill="#fff"/><rect width="6.382" height="0.845" rx="0.422" transform="translate(2507.167 810.669)" fill="#fff"/><path d="M.422,0H6.494a.422.422,0,0,1,.422.422v0a.422.422,0,0,1-.422.422H.422A.422.422,0,0,1,0,.422v0A.422.422,0,0,1,.422,0Z" transform="translate(2515.257 810.669)" fill="#fff"/><path d="M.422,0H9.567a.422.422,0,0,1,.422.422v0a.422.422,0,0,1-.422.422H.422A.422.422,0,0,1,0,.423v0A.422.422,0,0,1,.422,0Z" transform="translate(2524.156 810.669)" fill="#fff"/><path d="M.422,0H15.075A.422.422,0,0,1,15.5.422v0a.422.422,0,0,1-.422.422H.422A.422.422,0,0,1,0,.422v0A.422.422,0,0,1,.422,0Z" transform="translate(2518.648 806.981)" fill="#fff"/><path d="M.422,0H12.234a.422.422,0,0,1,.422.422v0a.422.422,0,0,1-.422.422H.422A.422.422,0,0,1,0,.423v0A.422.422,0,0,1,.422,0Z" transform="translate(2507.167 814.427)" fill="#fff"/><path d="M.422,0H12.238a.422.422,0,0,1,.422.422v0a.422.422,0,0,1-.422.422H.422A.422.422,0,0,1,0,.423v0A.422.422,0,0,1,.422,0Z" transform="translate(2521.484 814.427)" fill="#fff"/><path d="M985.279,1118.735c-1.377-9.079-5.828-10.986-18.994-13.619-14.528-2.906-32.973-12.38-32.973-12.38s-31.456-15.413-39.163-17.181-26.656-1.263-42.574-1.137-25.266,4.548-33.352,10.865-22.108,11.117-22.108,11.117l-2.547.455a5.493,5.493,0,0,0-4.527,5.407v22.53a5.62,5.62,0,0,0,4.185,5.434l9.206,2.432h0a1.316,1.316,0,0,0,1.53-1.16,18.5,18.5,0,1,1,36.55,5.567,1.829,1.829,0,0,0,1.8,2.162h84.729a2.725,2.725,0,0,0,2.707-3.078,18.4,18.4,0,1,1,36.537-.44,3.16,3.16,0,0,0,3.133,3.518H981.6a4.011,4.011,0,0,0,4.011-4.011v-11.8A31.207,31.207,0,0,0,985.279,1118.735Z" transform="translate(1572.713 -256.514)" fill="#c8f3ff"/><path d="M783.076,1368.08h10.035a1.2,1.2,0,0,1,1.11,1.668l-1.127,2.69a6.9,6.9,0,0,1-6.364,4.233h-3.654a1.3,1.3,0,0,1-1.295-1.295v-6A1.3,1.3,0,0,1,783.076,1368.08Z" transform="translate(1579.975 -520.231)" fill="#ff741a"/><path d="M2464.5,1406.672c5.526.846,11.891,6.079,11.891,6.079a2.47,2.47,0,0,1-1.964,4.148l-10.775-.681a5.316,5.316,0,0,1-4.771-3.826h0C2457.836,1408.774,2458.728,1405.788,2464.5,1406.672Z" transform="translate(77.527 -554.09)" fill="#f3fcff"/><path d="M781.074,1566.4a.968.968,0,0,0-.926,1.32,6.293,6.293,0,0,0,4.243,3.766l10.316,2.725a1.475,1.475,0,0,0,1.714-1.3,19.88,19.88,0,0,1,1.217-5,.829.829,0,0,0-.756-1.125Z" transform="translate(1580.739 -697.285)" fill="#0082ae"/><path d="M2477.661,1607.073a1.273,1.273,0,0,0-1.288,1.446,20.693,20.693,0,0,1,.048,4.876,3.506,3.506,0,0,0,3.476,3.9h13.519a4.451,4.451,0,0,0,4.451-4.451v-3.5a1.828,1.828,0,0,0-1.783-1.827Z" transform="translate(61.534 -733.711)" fill="#0082ae"/><path d="M1132.649,1126.63c-.18-.1-18.089-9.925-29.966-15.426-11.759-5.446-24.885-4.869-25.451-4.84-1.508-.035-32.913-.716-42.569,2.293-9.726,3.032-22.393,16.841-22.928,17.427l-.148.162,3.406,15.984.365-.02c9.906-.56,17.49,2.077,21.928,7.624a17.893,17.893,0,0,1,3.773,8.665l.032.38,35.718.918v0l.412.008.44.011v0l49.768.97.007-.428c.249-16.173,5.362-33.063,5.414-33.231l.1-.332Zm-90.785,31.417a18.811,18.811,0,0,0-3.883-8.709c-3.188-4-9.64-8.618-22.306-8l-3.163-14.84c1.466-1.576,13.449-14.237,22.4-17.028s38.057-2.336,41.894-2.263v51.736Zm84.729,1.872-48.93-.954V1107.2c2.3-.066,14.055-.135,24.661,4.777,11,5.1,27.208,13.919,29.613,15.234C1131.224,1129.651,1126.9,1145.014,1126.593,1159.918Z" transform="translate(1373.4 -285.191)" fill="#0082ae" opacity="0.5" style="mix-blend-mode:multiply;isolation:isolate"/><path d="M780.736,1579.044a6.293,6.293,0,0,0,4.243,3.766l10.316,2.725a1.475,1.475,0,0,0,1.714-1.3,19.888,19.888,0,0,1,.321-1.989Z" transform="translate(1580.152 -708.609)" fill="#feb546" opacity="0.5" style="mix-blend-mode:multiply;isolation:isolate"/><path d="M2476.837,1655.378c-.02.43-.052.857-.1,1.28a3.506,3.506,0,0,0,3.476,3.9h13.519a4.451,4.451,0,0,0,4.451-4.451v-.733Z" transform="translate(61.215 -776.974)" fill="#0082ae" opacity="0.5" style="mix-blend-mode:multiply;isolation:isolate"/><path d="M1361.42,1595.9a18.5,18.5,0,0,1,.193-2.72,1.79,1.79,0,0,0-1.719-2.061l-88.127-2.151a1.42,1.42,0,0,0-1.392,1.819,18.526,18.526,0,0,1,.7,5.067,18.814,18.814,0,0,1-.311,3.4,1.867,1.867,0,0,0,1.828,2.219h86.238a2.788,2.788,0,0,0,2.75-3.173A18.86,18.86,0,0,1,1361.42,1595.9Z" transform="translate(1141.677 -717.499)" fill="#0082ae"/><path d="M1365.184,1654.988c0-.015,0-.03,0-.046h-90.563a18.777,18.777,0,0,1-.312,3.4,1.869,1.869,0,0,0,1.833,2.219h86.446a2.79,2.79,0,0,0,2.757-3.174A18.81,18.81,0,0,1,1365.184,1654.988Z" transform="translate(1137.94 -775.584)" fill="#042e6f"/><path d="M.963,0H10.975a.963.963,0,0,1,.963.963v0a.963.963,0,0,1-.963.963H.963A.963.963,0,0,1,0,.963v0A.963.963,0,0,1,.963,0Z" transform="translate(2393.456 845.922)" fill="#ff741a"/><path d="M.963,0H10.975a.963.963,0,0,1,.963.963v0a.963.963,0,0,1-.963.963H.963A.963.963,0,0,1,0,.963v0A.963.963,0,0,1,.963,0Z" transform="translate(2454.072 846.886)" fill="#ff741a"/><path d="M1084.336,1144.537l48.7.46s2.981-.08,3.387-2.885.371-14.819.371-14.819a2.831,2.831,0,0,0-2.664-2.443,153.513,153.513,0,0,0-24.615.534,41.886,41.886,0,0,0-24.52,11.951l-3.457,3.458S1079.21,1144.489,1084.336,1144.537Z" transform="translate(1311.222 -300.588)" fill="#042e6f" opacity="0.5"/><path d="M1667.332,1141.405V1154a3.008,3.008,0,0,0,2.843,3.045l38.27,1.539a2.575,2.575,0,0,0,2.243-1.1c.687-1.013.766-2.678-2.663-4.911-5.964-3.883-21.136-12.282-26.749-13.095-3.573-.517-8.247-.742-11.173-.837A2.725,2.725,0,0,0,1667.332,1141.405Z" transform="translate(786.109 -313.176)" fill="#042e6f" opacity="0.5"/><path d="M1520.648,617.247l11.652,23.128,12.231-22.827a13.081,13.081,0,0,0-11.306-18.3q-.2-.009-.406-.011t-.406,0A13.081,13.081,0,0,0,1520.648,617.247Zm5.961-4.8a6.042,6.042,0,1,1,5.965,6.118A6.042,6.042,0,0,1,1526.61,612.447Z" transform="translate(918.342 168.921)" fill="#ff741a"/><path d="M1.473,0H272.042a1.473,1.473,0,0,1,1.473,1.473v0a1.473,1.473,0,0,1-1.473,1.473H1.473A1.473,1.473,0,0,1,0,1.473v0A1.473,1.473,0,0,1,1.473,0Z" transform="translate(2313.268 893.896)" fill="#042e6f"/><g transform="translate(2378.894 861.399)"><ellipse cx="16.291" cy="16.286" rx="16.291" ry="16.286" transform="translate(0 32.582) rotate(-89.876)" fill="gray"/><ellipse cx="11.331" cy="11.335" rx="11.331" ry="11.335" transform="translate(4.99 4.991)" fill="#9e9da2"/><ellipse cx="7.578" cy="7.58" rx="7.578" ry="7.58" transform="translate(8.743 8.746)" fill="#d8d9dd"/></g><g transform="translate(2504.282 861.399)" opacity="0.5"><ellipse cx="16.291" cy="16.286" rx="16.291" ry="16.286" transform="matrix(0.002, -1, 1, 0.002, 0, 32.582)" fill="#1a1a1a"/><ellipse cx="11.331" cy="11.335" rx="11.331" ry="11.335" transform="translate(4.99 4.991)" fill="#9e9da2"/><ellipse cx="7.578" cy="7.58" rx="7.578" ry="7.58" transform="translate(8.743 8.746)" fill="#d8d9dd"/></g><g transform="translate(2529.17 805.076)"><path d="M54.45,31.583a6.046,6.046,0,0,1-.892.089,28.764,28.764,0,0,1-6.782-.446c-.089,0-.223-.045-.312-.045-.134,0-.223-.045-.357-.045a3.778,3.778,0,0,0-.178-.758c-.491-1.785-1.606-3.391-2.1-5.22-1.071-4.06,1.115-7.139.892-11.332-.089-1.517,1.026-2.677.8-5.488-.4-4.64.982-5.755,3.569-7.139A11.089,11.089,0,0,1,54.45,0h.045a10.6,10.6,0,0,1,5.354,1.2c2.588,1.383,3.971,2.5,3.569,7.139-.223,2.811.892,4.015.8,5.488C64,18.02,66.139,21.1,65.113,25.159c-.446,1.829-1.562,3.435-2.1,5.22a4.667,4.667,0,0,0-.178.758c-.134,0-.223.045-.357.045-.089,0-.223.045-.312.045a31.717,31.717,0,0,1-6.782.446A6.653,6.653,0,0,1,54.45,31.583Z" transform="translate(-24.111 0)" fill="#ededed"/><path d="M65.844,21.036c-.446-1.606-.268-3.525-1.338-4.819a5.6,5.6,0,0,0-1.963-1.383,10.871,10.871,0,0,0-5.8-.937,7.988,7.988,0,0,0-5.175,2.632,6.546,6.546,0,0,0-1.517,5.532c.178.848-.134.4.089,1.249.178,1.115.892,3.034.669,3.792-.491,2.052-.669,4.1.714,5.666a4.791,4.791,0,0,1-.491-3.034,7.31,7.31,0,0,1,.625-1.338,4.5,4.5,0,0,0,.58.714,3.648,3.648,0,0,0-.223,1.829,5.831,5.831,0,0,0,.535,1.2,1.8,1.8,0,0,1,.223,1.249,2.458,2.458,0,0,0,.312-1.472c0-.535-.089-1.026-.089-1.562,0-.134.045-.312.045-.446a2.931,2.931,0,0,1,.535.758c.535,1.115.045,2.543.714,3.569a3.264,3.264,0,0,0,2.32,1.249,11.114,11.114,0,0,0,5-.178,7.518,7.518,0,0,1,.357-4.1.164.164,0,0,1,.045.134c.268.4.669.758.937,1.16a2.029,2.029,0,0,1,.491,1.383,2.357,2.357,0,0,0-.178-2.231c-.223-.446-.491-.892-.714-1.338.223-.268.491-.491.714-.714.178.4.357.8.491,1.2a4.432,4.432,0,0,1,.4,2.9,5.794,5.794,0,0,0,.446-3.792c-.089-.535-.268-.982-.4-1.517a8.693,8.693,0,0,0,1.115-3.971c0-.535.58-1.2.758-1.7C66.424,21.928,66.067,21.839,65.844,21.036Z" transform="translate(-27.653 -7.656)" fill="#dadada"/><rect width="5.265" height="8.075" transform="translate(27.751 22.214)" fill="#deab7d"/><path d="M49.853,26.163a1.507,1.507,0,0,0-1.338-.491H48.47c-.937.223-1.428,1.383-1.16,2.632s1.249,2.1,2.186,1.918c.045,0,.089-.045.134-.045Z" transform="translate(-26.162 -14.21)" fill="#ffc994"/><path d="M84.583,25.676h-.045a1.589,1.589,0,0,0-1.338.491l.268,4.015c.045,0,.089.045.134.045.937.223,1.874-.669,2.186-1.918C86.055,27.059,85.52,25.854,84.583,25.676Z" transform="translate(-46.08 -14.214)" fill="#ffc994"/><g transform="translate(21.04 13.112)"><path d="M47.222,29.8a1.235,1.235,0,0,1-.045-.4,3.706,3.706,0,0,0,.045.982c.268,1.249,1.249,2.1,2.186,1.918.045,0,.089-.045.134-.045l.045-.535A2.347,2.347,0,0,1,47.222,29.8Z" transform="translate(-47.159 -29.4)" fill="#f2bb88"/><path d="M86.109,29.4a1.3,1.3,0,0,1-.089.4A2.6,2.6,0,0,1,83.7,31.72l.045.535c.045,0,.089.045.134.045.937.223,1.874-.669,2.186-1.918A7.231,7.231,0,0,0,86.109,29.4Z" transform="translate(-67.397 -29.4)" fill="#f2bb88"/></g><path d="M66.242,16.4a2.172,2.172,0,0,1-.045.535l-.58,4.149-.089.8-.446,3.078v.089a4.755,4.755,0,0,1-2.008,3.3l-2.142,1.562a1.564,1.564,0,0,1-1.026.312H56.829a1.986,1.986,0,0,1-1.026-.312l-2.142-1.562a4.7,4.7,0,0,1-1.963-3.3v-.089L51.252,21.8l-.134-.714-.58-4.149a3.414,3.414,0,0,1,.4-2.32,2.814,2.814,0,0,1,1.606-1.338,20.678,20.678,0,0,1,5.622-.982h.4a20.678,20.678,0,0,1,5.622.982A3.1,3.1,0,0,1,66.242,16.4Z" transform="translate(-27.962 -6.817)" fill="#ffc994"/><path d="M49.628,29.891v-.312c.045-.134.045-.223.089-.357a1.32,1.32,0,0,0,.089-.446,1.053,1.053,0,0,0,.045-.535,1.188,1.188,0,0,0-.134-.535.875.875,0,0,0-.4-.4.8.8,0,0,0-.848.089.775.775,0,0,0-.268.491c0,.134.045.223.045.178.045,0,.045-.089.089-.178a1.462,1.462,0,0,1,.268-.357.539.539,0,0,1,.58,0,.719.719,0,0,1,.312.625,3.9,3.9,0,0,1-.089.714H49.36a.608.608,0,0,0-.535.089.468.468,0,0,0-.134.491c.045.134.134.178.178.134s.045-.089.089-.178a.245.245,0,0,1,.134-.223.471.471,0,0,1,.223-.089h.045c0,.134-.045.223-.045.357a1.235,1.235,0,0,0,.045.4c.089.223.178.4.312.446a.164.164,0,0,0,.134.045h.045C49.94,30.427,49.672,30.293,49.628,29.891Z" transform="translate(-26.695 -15.083)" fill="#dba97b"/><path d="M85.621,27.468a.722.722,0,0,0-.848-.089.875.875,0,0,0-.4.4,1.188,1.188,0,0,0-.134.535c0,.178.045.357.045.535a1.585,1.585,0,0,1,.089.446c.045.134.045.268.089.357v.312c-.045.4-.312.535-.268.58h.045a.164.164,0,0,0,.134-.045.684.684,0,0,0,.312-.446,1.629,1.629,0,0,0,0-.758h.045a.341.341,0,0,1,.223.089.976.976,0,0,1,.134.223c.045.089.045.134.089.178s.134,0,.178-.134a.439.439,0,0,0-.134-.491.5.5,0,0,0-.535-.089H84.64a1.965,1.965,0,0,1-.089-.714.609.609,0,0,1,.892-.625.694.694,0,0,1,.268.357c.045.089.045.178.089.178a.261.261,0,0,0,.045-.178A.656.656,0,0,0,85.621,27.468Z" transform="translate(-46.627 -15.114)" fill="#dba97b"/><path d="M65.3,4.592a6.356,6.356,0,0,0-1.115-1.338,8.781,8.781,0,0,0-4.64-2.142c.045,0,.045,0,.089-.045.134,0,.223-.045.312-.045a.337.337,0,0,1,.178-.045h.758a.552.552,0,0,0-.134-.089A.232.232,0,0,0,60.571.8.478.478,0,0,0,60.3.711c-.045,0-.089-.045-.134-.045S60.08.621,59.991.621a.663.663,0,0,0-.4-.089,5.467,5.467,0,0,0-.848.089c-.089.045-.178.045-.268.089-.045-.089-.892-.669-.848-.535a3.073,3.073,0,0,1,.134.357c0,.045.045.089.045.134a2.729,2.729,0,0,0-.535-.223A3.161,3.161,0,0,0,56.645.4h-.134c-.045,0-.089,0-.089.045-.089,0-.134.045-.178.045a.552.552,0,0,0-.134.089.345.345,0,0,1,.134.045c.045,0,.089.045.178.045.045,0,.045,0,.089.045A.156.156,0,0,1,56.6.755a4.348,4.348,0,0,1,.491.223h0a11.321,11.321,0,0,0-3.48.8,6.616,6.616,0,0,0-3.078,2.543A6.241,6.241,0,0,0,49.6,7.938l.223,3.659a1.589,1.589,0,0,1,1.338.491L51.38,8.7a2.609,2.609,0,0,1,.669-1.606,2.789,2.789,0,0,1,1.383-.848c.178-.045.312-.089.491-.134,2.052.134,3.748,1.606,5.8,1.785-.4-.223-.8-.446-1.2-.714,1.829.58,3.7,1.071,5.532.4l.268.669a1.235,1.235,0,0,1,.045.4l.223,3.391a1.507,1.507,0,0,1,1.338-.491l.223-3.659A6.6,6.6,0,0,0,65.3,4.592Z" transform="translate(-27.466 -0.091)" fill="#3c3c3b"/><path d="M67.018,30.172a10.388,10.388,0,0,1-1.294.089h-.268c-1.651-.357-.669-2.722-.58-4.462-.535,1.16-1.918,3.659-.58,5.042a2.233,2.233,0,0,0,1.472.4,3.054,3.054,0,0,0,1.472-.4c.357-.223.535-.4.491-.535C67.6,30.172,67.375,30.172,67.018,30.172Z" transform="translate(-35.296 -14.294)" fill="#dba97b"/><path d="M55.3,26.092c1.918-.714,3.435-1.338,4.774-1.071-.045.268.089,1.383-.089,1.606C58.512,25.334,56.282,26.672,55.3,26.092Z" transform="translate(-30.627 -13.827)" fill="#dba97b"/><path d="M75.207,26.163c-1.918-.714-3.48-1.249-4.819-1.026.045.268-.223,1.294,0,1.472C71.816,25.359,74.225,26.743,75.207,26.163Z" transform="translate(-38.934 -13.898)" fill="#dba97b"/><g transform="translate(22.547 1.691)" opacity="0.2"><path d="M66.285,11.246c.892.268,2.1.268,2.588-.669-1.918,1.026-3.837-1.7-5.755-.669a7.225,7.225,0,0,1,2.632,1.115,6.7,6.7,0,0,0-4.149-.669c2.811.491,5.889,3.525,8.7,1.562A7.317,7.317,0,0,1,66.285,11.246Z" transform="translate(-56.664 -7.052)" fill="#dadada"/><path d="M74,3.8a7.469,7.469,0,0,1,5.265,7.228A6.209,6.209,0,0,0,74,3.8Z" transform="translate(-63.532 -3.8)" fill="#dadada"/><path d="M83.249,15.786A5.867,5.867,0,0,0,82,10.7,22.311,22.311,0,0,1,83.249,15.786Z" transform="translate(-67.962 -7.622)" fill="#dadada"/><path d="M50.565,10.963A8.541,8.541,0,0,1,53.331,6.1,4.768,4.768,0,0,0,50.565,10.963Z" transform="translate(-50.537 -5.074)" fill="#dadada"/></g><g transform="translate(30.74 11.819)" opacity="0.3"><path d="M69.614,30.292a.371.371,0,0,1-.446-.268,5.045,5.045,0,0,0-.045-.625c0-.357-.045-.758-.089-1.2,0-.223-.045-.446-.045-.625a2,2,0,0,0-.045-.535A3.016,3.016,0,0,0,68.9,26.5a4.564,4.564,0,0,0,.134.491,4.632,4.632,0,0,1,.134.535c.045.178.134.4.178.58.134.4.268.848.357,1.16a3.9,3.9,0,0,1,.134.625C70.015,30.114,69.837,30.248,69.614,30.292Z" transform="translate(-68.9 -26.5)" fill="#fff"/></g><g transform="translate(26.145 11.328)"><path d="M60.385,26.2a.9.9,0,1,1-.892-.8A.851.851,0,0,1,60.385,26.2Z" transform="translate(-58.6 -25.4)" fill="#936037"/><path d="M60.382,26.646a.459.459,0,0,1-.491.446.489.489,0,0,1-.491-.446.493.493,0,0,1,.982,0Z" transform="translate(-59.043 -25.843)" fill="#3c3c3b"/><path d="M59.557,27.678a.192.192,0,0,1-.178.178h0a.192.192,0,0,1-.178-.178h0a.192.192,0,0,1,.178-.178h0a.163.163,0,0,1,.178.178Z" transform="translate(-58.932 -26.563)" fill="#fff"/><path d="M61.446,26.012a.211.211,0,0,1-.223.223h0A.211.211,0,0,1,61,26.012h0a.211.211,0,0,1,.223-.223h0c.134-.045.223.089.223.223Z" transform="translate(-59.929 -25.611)" fill="#fff"/></g><path d="M59.437,25.815c-.045.045-.134,0-.268-.089a5.123,5.123,0,0,0-.446-.357,3.3,3.3,0,0,0-1.785-.4,7.248,7.248,0,0,0-2.008.535c-.892.312-.892-.4-.223-.669a6.887,6.887,0,0,1,2.231-.714c.892-.134,2.1-.089,2.5.4C59.66,24.788,59.482,25.77,59.437,25.815Z" transform="translate(-30.035 -13.327)" fill="#3c3c3b"/><g transform="translate(32.971 11.328)"><path d="M75.685,26.2a.9.9,0,1,1-.892-.8A.88.88,0,0,1,75.685,26.2Z" transform="translate(-73.9 -25.4)" fill="#936037"/><path d="M75.682,26.646a.459.459,0,0,1-.491.446.489.489,0,0,1-.491-.446.493.493,0,0,1,.982,0Z" transform="translate(-74.343 -25.843)" fill="#3c3c3b"/><path d="M74.757,27.678a.192.192,0,0,1-.178.178h0a.192.192,0,0,1-.178-.178h0a.192.192,0,0,1,.178-.178h0a.163.163,0,0,1,.178.178Z" transform="translate(-74.177 -26.563)" fill="#fff"/><path d="M76.735,25.968a.288.288,0,0,1-.268.268h0a.288.288,0,0,1-.268-.268h0a.288.288,0,0,1,.268-.268h0a.257.257,0,0,1,.268.268Z" transform="translate(-75.174 -25.566)" fill="#fff"/></g><path d="M70.288,25.815c.045.045.134,0,.268-.089A5.124,5.124,0,0,1,71,25.368a3.3,3.3,0,0,1,1.785-.4,7.247,7.247,0,0,1,2.008.535c.892.312.892-.4.223-.669a6.887,6.887,0,0,0-2.231-.714c-.892-.134-2.1-.089-2.5.4A2.5,2.5,0,0,0,70.288,25.815Z" transform="translate(-38.878 -13.327)" fill="#3c3c3b"/><path d="M65.069,25.159A22.759,22.759,0,0,1,63.6,28.773a2.556,2.556,0,0,0-.491-.491c.848-2.231,1.785-4.462,1.562-6.782-.178-1.606-.937-3.123-1.071-4.774-.089-1.071.089-2.275-.58-3.123-.58-.758-1.249-.134-1.785-.892-.535-.8-.134-2.409-.714-3.123A2.149,2.149,0,0,0,58.465,8.7c-.892,0-2.989.625-3.882.625s-2.231-.535-3.123-.58c-.937,0-2.231-.134-2.855.625-.58.758-.045,2.142-.535,2.945-.535.8-1.517.535-2.142,1.294-.669.848-.491,2.052-.58,3.123-.134,1.606-.892,3.123-1.071,4.774-.268,2.365.714,4.6,1.562,6.826a2.8,2.8,0,0,0-.491.535,22.263,22.263,0,0,1-1.517-3.7c-1.071-4.06,1.115-7.139.892-11.332-.089-1.472,1.026-2.677.8-5.488-.4-4.64.982-5.755,3.569-7.139A11.089,11.089,0,0,1,54.45,0h.045a10.6,10.6,0,0,1,5.354,1.2c2.588,1.383,3.971,2.5,3.569,7.139-.223,2.811.892,4.015.8,5.488C63.953,18.02,66.139,21.1,65.069,25.159Z" transform="translate(-24.111 0)" fill="#fff"/><path d="M49.092,9.492c.089.669.446,1.338.178,1.963-.178.446-.625.758-.8,1.2-.268.714.223,1.562-.089,2.231a3.693,3.693,0,0,1-.491.669.823.823,0,0,0-.223.758,1.4,1.4,0,0,1,.714-.8,3.2,3.2,0,0,0,.892-.625c.535-.669.268-1.651.714-2.365.357-.535,1.026-.8,1.338-1.383a2.094,2.094,0,0,0,.089-1.383c-.134-.446-.312-.892-.446-1.338A3.832,3.832,0,0,1,51.279,5.7a6.11,6.11,0,0,0-1.606,1.606A3.256,3.256,0,0,0,49.092,9.492Z" transform="translate(-26.383 -3.161)" fill="#ededed"/><path d="M64.016,10.743c-.357-.758,0-1.651-.268-2.454-.134-.357-.357-.625-.491-.982A2.427,2.427,0,0,1,63.3,5.3a2.5,2.5,0,0,0,.937,1.651A3.6,3.6,0,0,1,65.4,8.512c.178.58,0,1.249.223,1.829a2.655,2.655,0,0,0,1.517,1.249,5.711,5.711,0,0,1-1.74.089A1.739,1.739,0,0,1,64.016,10.743Z" transform="translate(-34.926 -2.94)" fill="#ededed"/><path d="M78.66,10.077a5.942,5.942,0,0,0,.223,1.517c.223.625.669,1.115.937,1.7.312.848.134,1.874.58,2.677a3.755,3.755,0,0,0,1.829,1.472,3.68,3.68,0,0,1-1.2-2.722c0-.58.178-1.115.178-1.7A9.589,9.589,0,0,0,80.98,11.5a5.873,5.873,0,0,0-.58-1.7c-.669-1.071-2.008-1.517-2.9-2.409A5.151,5.151,0,0,1,78.66,10.077Z" transform="translate(-42.923 -4.103)" fill="#ededed"/><path d="M68.375,8.442a2.423,2.423,0,0,1,.535,1.517,1.36,1.36,0,0,1-.848,1.294A1.591,1.591,0,0,1,67.483,10c-.045-.491,0-.937-.045-1.428-.089-.4-.268-.8-.357-1.2A1.394,1.394,0,0,1,67.349,6.3a1.831,1.831,0,0,0,.312,1.16C67.884,7.817,68.152,8.085,68.375,8.442Z" transform="translate(-37.144 -3.494)" fill="#ededed"/><path d="M46.962,17.025a.671.671,0,0,1-.669-.58.661.661,0,0,1,.535-.758,57.186,57.186,0,0,1,18.293,0A.656.656,0,0,1,64.9,16.98a57.006,57.006,0,0,0-17.846,0A.138.138,0,0,1,46.962,17.025Z" transform="translate(-25.636 -8.285)" fill="#3c3c3b"/><path d="M46.962,14.325a.671.671,0,0,1-.669-.58.661.661,0,0,1,.535-.758,57.186,57.186,0,0,1,18.293,0A.656.656,0,0,1,64.9,14.28a57.006,57.006,0,0,0-17.846,0A.138.138,0,0,1,46.962,14.325Z" transform="translate(-25.636 -6.789)" fill="#3c3c3b"/><g transform="translate(27.305 18.02)"><path d="M64.555,41.28c-1.294.089-2.231.045-2.855-.58.178,1.428.982,2.142,2.855,2.275,1.918-.089,2.677-.8,2.855-2.275C66.786,41.325,65.849,41.369,64.555,41.28Z" transform="translate(-61.477 -40.566)" fill="#3c3c3b"/><path d="M64.389,42.272a4.488,4.488,0,0,1-2.766-.714L61.4,40.8a10.237,10.237,0,0,0,5.979,0l-.223.758A4.488,4.488,0,0,1,64.389,42.272Z" transform="translate(-61.311 -40.622)" fill="#fff"/><path d="M64.278,41.248H64.1a6.053,6.053,0,0,1-2.677-.4.975.975,0,0,1-.223-.134h0V40.4c.045,0,.089.045.134.045.045.045.134.045.223.089A8.21,8.21,0,0,0,64.1,40.8h.357A7.047,7.047,0,0,0,67,40.534c.089-.045.134-.045.223-.089.045,0,.089-.045.134-.045v.312h0c-.089.045-.134.089-.223.134a5.84,5.84,0,0,1-2.677.4Z" transform="translate(-61.2 -40.4)" fill="#c4986e"/></g><path d="M62.114,38h-.045c-.714,0-3.3,0-4.239,1.383a2.428,2.428,0,0,0-.491.982,6.124,6.124,0,0,0,.045,2.722,6.212,6.212,0,0,0,4.774,2.543,6.353,6.353,0,0,0,4.774-2.543,6.9,6.9,0,0,0,.045-2.722,3.2,3.2,0,0,0-.491-.982C65.55,38,62.962,38,62.248,38ZM61.8,41.614c-.491,0-.714.58-1.16.8-.491.268-1.562-.4-1.562-.4a1.3,1.3,0,0,1-.178-2.1,1.8,1.8,0,0,1,.714-.312,10.611,10.611,0,0,1,2.5-.223,10.611,10.611,0,0,1,2.5.223,2.863,2.863,0,0,1,.714.312,1.3,1.3,0,0,1-.089,2.1s-1.2.669-1.7.4c-.4-.223-.625-.8-1.115-.8Z" transform="translate(-31.686 -21.051)" fill="#3c3c3b"/><path d="M60.134,29.137c0,.535-.669.937-1.517.937s-1.517-.4-1.517-.937.669-.937,1.517-.937S60.134,28.646,60.134,29.137Z" transform="translate(-31.624 -15.623)" fill="#ffc994"/><path d="M75.434,29.137c0,.535-.669.937-1.517.937s-1.517-.4-1.517-.937.669-.937,1.517-.937S75.434,28.646,75.434,29.137Z" transform="translate(-40.098 -15.623)" fill="#ffc994"/><g transform="translate(23.729 48.314)"><path d="M61.49,119.688a17.088,17.088,0,0,1-3.034-.134,5.454,5.454,0,0,1-4.685-4.283,31.769,31.769,0,0,1-.58-6.871,35.207,35.207,0,0,0,8.3,1.428,35.207,35.207,0,0,0,8.3-1.428,31.769,31.769,0,0,1-.58,6.871,5.454,5.454,0,0,1-4.685,4.283A17.277,17.277,0,0,1,61.49,119.688Z" transform="translate(-53.185 -108.355)" fill="#3c3c3b"/><g transform="translate(0.007)"><path d="M61.5,109.728a35.207,35.207,0,0,1-8.3-1.428v1.606a35.242,35.242,0,0,0,8.254,1.428,34.474,34.474,0,0,0,8.254-1.428V108.3A31.743,31.743,0,0,1,61.5,109.728Z" transform="translate(-53.2 -108.3)" fill="#575756"/><rect width="2.231" height="1.651" transform="translate(7.183 1.383)" fill="#878787"/><path d="M56.991,111.085H56.5V109.3l.491.089Z" transform="translate(-55.028 -108.854)" fill="#3c3c3b"/><path d="M86,111.085h.446V109.3l-.446.089Z" transform="translate(-71.366 -108.854)" fill="#3c3c3b"/><path d="M63.046,112.385H62.6V110.6l.446.045Z" transform="translate(-58.406 -109.574)" fill="#3c3c3b"/><path d="M79.9,112.385h.491V110.6l-.491.045Z" transform="translate(-67.988 -109.574)" fill="#3c3c3b"/></g></g><g transform="translate(21.815 52.372)"><g transform="translate(0 33.949)"><path d="M63.134,199.682a4.026,4.026,0,0,0,2.1-.223v-.491L63,198.7Z" transform="translate(-56.707 -196.374)" fill="#3c3c3b"/><path d="M57.466,198.358c-3.971,1.071-6.871,1.16-8.522.58l-.045-.625,8.522-.714Z" transform="translate(-48.898 -195.765)" fill="#3c3c3b"/><path d="M57.419,195.545c-1.249.758-7.808,1.2-8.522.491-.045-.446.669-.892,1.874-1.383l.4-.134a.634.634,0,0,1,.268-.089l.4-.134h0c.089-.045.178-.045.268-.089h0l.4-.134c.357-.089.714-.223,1.071-.312C56.973,192.734,57.33,194.876,57.419,195.545Z" transform="translate(-48.896 -193.487)" fill="#634e42"/><path d="M57.36,195.458c-.045.045-.089.089-.134.089s-.089,0-.089-.045l-.937-.669.4-.134.758.491C57.4,195.28,57.449,195.369,57.36,195.458Z" transform="translate(-52.941 -194.159)" fill="#3c3c3b"/><path d="M55.76,196a.164.164,0,0,1-.134.045c-.045,0-.089,0-.089-.045L55,195.6l-.4-.268.4-.134h0c.045.045.134.089.178.134.178.134.4.268.58.4C55.8,195.825,55.849,195.914,55.76,196Z" transform="translate(-52.055 -194.436)" fill="#3c3c3b"/><path d="M54.215,196.558c-.045.045-.089.089-.134.089s-.089,0-.089-.045l-.892-.669.4-.134.714.535A.147.147,0,0,1,54.215,196.558Z" transform="translate(-51.224 -194.768)" fill="#3c3c3b"/></g><g transform="translate(9.86 0.631)"><g transform="translate(0 33.409)"><path d="M85.278,199.982a4.015,4.015,0,0,0,2.1-.357l-.045-.491L85.1,199Z" transform="translate(-78.807 -196.631)" fill="#3c3c3b"/><path d="M79.566,198.458c-3.882,1.249-6.826,1.562-8.477,1.071L71,198.9l8.477-1.2Z" transform="translate(-70.998 -195.911)" fill="#3c3c3b"/><path d="M79.474,195.7c-1.2.848-7.763,1.651-8.477.982-.045-.4.58-.937,1.829-1.472a1.336,1.336,0,0,0,.357-.178l.268-.134a1.585,1.585,0,0,0,.4-.178h0l.268-.134h0a1.585,1.585,0,0,0,.4-.178c.357-.134.669-.268,1.071-.4C78.85,192.892,79.385,195.034,79.474,195.7Z" transform="translate(-70.995 -193.691)" fill="#634e42"/><path d="M79.3,196.058c-.045.045-.089.089-.134.089s-.089,0-.089-.045l-.982-.625a1.585,1.585,0,0,0,.4-.178l.758.446A.392.392,0,0,1,79.3,196.058Z" transform="translate(-74.93 -194.582)" fill="#3c3c3b"/><path d="M77.7,196.658c-.045.045-.089.089-.134.089s-.089,0-.089-.045a2.531,2.531,0,0,0-.58-.357l-.4-.268a1.583,1.583,0,0,0,.4-.178h0c.045.045.134.089.178.134.178.134.4.223.58.357A.215.215,0,0,1,77.7,196.658Z" transform="translate(-74.044 -194.914)" fill="#3c3c3b"/><path d="M76.16,197.358c-.045.045-.089.089-.134.089s-.089,0-.089-.045L75,196.778a1.336,1.336,0,0,0,.357-.178l.758.491C76.2,197.18,76.249,197.269,76.16,197.358Z" transform="translate(-73.213 -195.302)" fill="#3c3c3b"/></g><path d="M83.979,153.2c0-.223-.178-1.606-.178-1.829-.312-10.351-.714-20.657-1.517-31.008a1.763,1.763,0,0,0-3.48-.134,23.235,23.235,0,0,0,0,3.525c.045,4.6,0,9.191-.223,13.786-.178,4.908-.4,9.816-.58,14.723v.089A9.463,9.463,0,0,0,83.979,153.2Z" transform="translate(-74.875 -118.81)" fill="#3c3c3b"/></g><path d="M62.745,151.93c0-.223-.089-1.606-.089-1.829.268-10.351.491-20.7.268-31.053a1.743,1.743,0,0,0-3.435-.312,23.036,23.036,0,0,0-.178,3.525c-.223,4.6-.535,9.146-.982,13.742-.491,4.908-.937,9.771-1.428,14.679v.089A7.6,7.6,0,0,0,62.745,151.93Z" transform="translate(-53.329 -117.395)" fill="#3c3c3b"/></g><g transform="translate(0 37.73)"><path d="M5.622,92.28h0a.584.584,0,0,0-.535-.58H.535A.584.584,0,0,0,0,92.28H0a.543.543,0,0,0,.535.535H5.042A.528.528,0,0,0,5.622,92.28Z" transform="translate(0 -88.522)" fill="#ffcf9f"/><path d="M6.422,89.664h0a.555.555,0,0,0-.491-.625l-4.506-.446a.555.555,0,0,0-.625.491h0a.626.626,0,0,0,.535.625l4.506.446A.515.515,0,0,0,6.422,89.664Z" transform="translate(-0.443 -86.798)" fill="#ffcf9f"/><path d="M6.12,94.735h0a.553.553,0,0,0-.58-.535l-4.1.134a.553.553,0,0,0-.535.58h0a.626.626,0,0,0,.625.535l4.1-.134A.549.549,0,0,0,6.12,94.735Z" transform="translate(-0.498 -89.907)" fill="#ffcf9f"/><path d="M7.726,97.039h0a.494.494,0,0,0-.535-.446l-2.945.357a.53.53,0,0,0-.446.535h0a.53.53,0,0,0,.535.446l2.945-.357A.471.471,0,0,0,7.726,97.039Z" transform="translate(-2.105 -91.229)" fill="#ffcf9f"/><path d="M19.713,89.16l-6.2-.045c-.178-.535-.4-.937-.937-1.071a1.235,1.235,0,0,0-.4-.045h-1.16l-.178.491-1.74.089a10.584,10.584,0,0,0,.758,4.283l2.275-.223a1.544,1.544,0,0,0,1.249-.669l6.291.223V89.16Z" transform="translate(-5.034 -86.473)" fill="#f5c08c"/><path d="M10.686,85.48a5.291,5.291,0,0,1-1.829-.8c-.491-.4-1.517.491-.178,1.294a3.421,3.421,0,0,0,1.472.669,1.915,1.915,0,0,0,1.026,2.1l1.2-2.543C12.2,85.792,11.445,85.524,10.686,85.48Z" transform="translate(-4.44 -84.577)" fill="#ffcf9f"/><path d="M15.888,88.883a2.354,2.354,0,0,0-.937-1.383l-1.16.357-.491.758c.089.937.491,1.963,1.562,1.874H22V88.883Z" transform="translate(-7.366 -86.196)" fill="#ffcf9f"/></g><path d="M46.513,66.6l-4.952,8.522-1.338,2.32-.134.223a2.482,2.482,0,0,1-2.409,1.249,2.746,2.746,0,0,1-1.026-.312,2.482,2.482,0,0,1-.892-3.435l.714-1.249,5.711-9.86a2.492,2.492,0,0,1,3.435-.892A2.572,2.572,0,0,1,46.513,66.6Z" transform="translate(-19.61 -34.79)" fill="#fff"/><path d="M19.314,92.909l9.191-.268a2.522,2.522,0,0,0-.134-5.042l-9.771.268Z" transform="translate(-10.301 -48.521)" fill="#fff"/><path d="M48,74.3a64.859,64.859,0,0,0-.58,7.228l-1.338,2.32h0a.566.566,0,0,1-.045-.268,3.846,3.846,0,0,1,.045-1.428v-.045A30.776,30.776,0,0,1,48,74.3Z" transform="translate(-25.472 -41.155)" fill="#ededed"/><path d="M68.52,115.164c-1.026.8-1.472.268-2.365.446a2.448,2.448,0,0,0-1.071.491.338.338,0,0,1-.178.089h0a3.012,3.012,0,0,1-2.142.312c-.223-.045-.491-.089-.714-.134-.268-.045-.535-.045-.8-.089a8.162,8.162,0,0,0-2.1.178c-.625.089-1.294.268-1.918.4h0c-.312.045-.58.089-.892.134-1.428.178-2.142-.4-3.257-.58a3.577,3.577,0,0,0-1.651.089,4.578,4.578,0,0,0-.625.178,4.114,4.114,0,0,1-3.079-.223,1.843,1.843,0,0,1-.491-.312,2.587,2.587,0,0,0-1.7-.625c-.848,0-1.606.312-2.543-.357A334.708,334.708,0,0,0,45.275,78.8v-.223c0-2.5,0-5.042-.045-7.674-.045-1.918-.089-3.882-.134-5.845a6.3,6.3,0,0,1,1.428-3.792,5.09,5.09,0,0,1,.491-.491,28.806,28.806,0,0,1,4.149-2.231,19.961,19.961,0,0,0,5.622-.446l4.952,1.249a6.33,6.33,0,0,1,2.543,1.338c.178.178-.089.134.045.312.937,1.071,1.071,1.7,1.428,3.7-.089,1.829.4,4.015.4,5.845v1.562c0,2.008,0,4.015.089,6.068.045,2.588.134,5.131.268,7.719h0C67.093,95.265,67.9,104.857,68.52,115.164Z" transform="translate(-23.815 -32.183)" fill="#fff"/><path d="M67,55.8a9.231,9.231,0,0,1-5.265.357L61.6,57.228c1.16.8,4.194.58,5.666-.268Z" transform="translate(-34.117 -30.909)" fill="#f6f6f6"/><rect width="1.338" height="7.986" transform="translate(29.045 26.051)" fill="#f6f6f6"/><path d="M51.175,157.23a.634.634,0,0,1-.089.268,1.842,1.842,0,0,1-.491-.312,2.587,2.587,0,0,0-1.7-.625c.446-8.12,1.918-16.24,1.606-24.36A87.033,87.033,0,0,1,51,146.656a51.221,51.221,0,0,0-.357,5.8,17.22,17.22,0,0,0,.446,3.346A5.025,5.025,0,0,1,51.175,157.23Z" transform="translate(-27.083 -73.222)" fill="#ededed"/><path d="M62.311,166.02a6.283,6.283,0,0,1-.045.892,3.577,3.577,0,0,0-1.651.089c-1.071-5.845-.937-11.823-1.115-17.8a50.42,50.42,0,0,0,2.052,13.385A13.174,13.174,0,0,1,62.311,166.02Z" transform="translate(-32.954 -82.638)" fill="#ededed"/><path d="M76.125,156.046c-.625.089-1.249.268-1.918.4a19.24,19.24,0,0,0,.4-7.139c-.268-1.918-.8-3.837-.937-5.8a25.457,25.457,0,0,1,.312-4.863c.357-3.034.758-6.068,1.115-9.146.045,2.142.045,4.239.045,6.38a54.414,54.414,0,0,0,.268,6.023C75.946,146.632,77.552,151.54,76.125,156.046Z" transform="translate(-40.789 -71.727)" fill="#ededed"/><path d="M68.86,152.957a16.313,16.313,0,0,1,0-3.614c.089-1.829.223-3.614.312-5.443-.892,3.3-1.74,6.737-1.071,10.083.535,2.677,2.008,5.086,2.5,7.719C71.135,158.8,69.261,155.946,68.86,152.957Z" transform="translate(-37.584 -79.702)" fill="#ededed"/><path d="M85.042,170.491a33.376,33.376,0,0,0-.491,4.685c-.268-.045-.535-.045-.8-.089a12.841,12.841,0,0,1,0-3.48c.134-2.5.714-4.908.848-7.406A17.593,17.593,0,0,1,85.042,170.491Z" transform="translate(-46.316 -90.945)" fill="#ededed"/><path d="M91.183,163.628a2.447,2.447,0,0,0-1.071.491.338.338,0,0,1-.178.089c-.089-1.338.089-2.766.089-4.1-.045-5.175-2.677-10.217-1.7-15.3.223,3.7,1.428,7.272,2.231,10.886A26.457,26.457,0,0,1,91.183,163.628Z" transform="translate(-48.798 -80.201)" fill="#ededed"/><path d="M89.243,93.993c-.8-4.328-1.249-4.328-2.142-9.949A47.766,47.766,0,0,0,83.8,72.8a3.3,3.3,0,0,1,2.186,1.606A21.9,21.9,0,0,1,88.262,78.2a5.615,5.615,0,0,0,.58,2.008c0,2.008,0,4.015.089,6.068C89.02,88.862,89.109,91.4,89.243,93.993Z" transform="translate(-46.412 -40.324)" fill="#ededed"/><path d="M82.737,62.173a2.531,2.531,0,0,1,3.435.892L92.6,74.175a2.51,2.51,0,1,1-4.328,2.543L81.8,65.609A2.534,2.534,0,0,1,82.737,62.173Z" transform="translate(-45.126 -34.248)" fill="#fff"/><g transform="translate(42.305 48.653)"><path d="M98.874,117.6h0a.538.538,0,0,0-.58.58L98.339,123a.591.591,0,0,0,.58.58h0a.591.591,0,0,0,.58-.58l-.045-4.819A.562.562,0,0,0,98.874,117.6Z" transform="translate(-96.742 -113.79)" fill="#f2bc88"/><path d="M101.525,118.7h0a.61.61,0,0,0-.625.625l.045,4.819a.6.6,0,0,0,.625.58h0a.61.61,0,0,0,.625-.625l-.045-4.819A.6.6,0,0,0,101.525,118.7Z" transform="translate(-98.188 -114.399)" fill="#f2bc88"/><path d="M104.325,117.7h0a.6.6,0,0,0-.625.58l.045,4.819a.6.6,0,0,0,.625.58h0a.538.538,0,0,0,.58-.58l-.045-4.819A.591.591,0,0,0,104.325,117.7Z" transform="translate(-99.738 -113.845)" fill="#f2bc88"/><path d="M97.265,114.352h0a.606.606,0,0,0-.8.491,18.968,18.968,0,0,1-1.562,3.926.664.664,0,0,0,.268.892h0a.628.628,0,0,0,.892-.268,19.732,19.732,0,0,0,1.651-4.1A.711.711,0,0,0,97.265,114.352Z" transform="translate(-94.821 -111.969)" fill="#f2bc88"/><path d="M106.835,118.7h0a.515.515,0,0,0-.535.535l.045,3.212a.515.515,0,0,0,.535.535h0a.515.515,0,0,0,.535-.535l-.045-3.212A.515.515,0,0,0,106.835,118.7Z" transform="translate(-101.178 -114.399)" fill="#f2bc88"/><rect width="3.078" height="3.168" transform="translate(2.292 0.032) rotate(-0.593)" fill="#ffc994"/><path d="M102.615,117.4h0a.515.515,0,0,1-.535-.535v.178a.591.591,0,0,1-.58.58h0a.591.591,0,0,1-.58-.58v.178a.591.591,0,0,1-.58.58h0a.591.591,0,0,1-.58-.58.591.591,0,0,1-.58.58h0a.591.591,0,0,1-.58-.58v-2.632a1.781,1.781,0,0,1,1.74-1.785h1.16a1.781,1.781,0,0,1,1.785,1.74v2.275C103.151,117.172,102.928,117.4,102.615,117.4Z" transform="translate(-96.914 -111.131)" fill="#ffc994"/></g><path d="M97.667,98.93l-1.294-9.1a2.524,2.524,0,0,1,5-.714l1.383,9.682Z" transform="translate(-53.363 -48.162)" fill="#fff"/><g transform="translate(22.069 38.9)"><path d="M50.384,87.2a15.376,15.376,0,0,0,7,13.385A29.366,29.366,0,0,1,50.384,87.2Z" transform="translate(-49.967 -87.2)" fill="#ededed"/><path d="M53.139,106.963c-1.2-3.569-2.409-7.094-3.659-10.663A15.543,15.543,0,0,0,53.139,106.963Z" transform="translate(-49.465 -92.24)" fill="#ededed"/></g></g></g></svg>