<svg xmlns="http://www.w3.org/2000/svg" width="244.22" height="408" viewBox="0 0 244.22 408"><g transform="translate(-149.5 -1128.872)"><g transform="translate(373.925 1136.282) rotate(90)"><path d="M161.537,198.886c-.032,0-.136-.017-.217-.019a32.963,32.963,0,0,1-5.159-.434,16.83,16.83,0,0,1-4.96-1.828,26.493,26.493,0,0,1-5.938-5.268,45.013,45.013,0,0,1-3.8-5.413,9.565,9.565,0,0,1-1.376-2.28,3.363,3.363,0,0,1-.109-.344c-28.291-.08-56.582-.281-84.864-.923-16.982-.568-33.641-9.1-42.939-23.515A34.507,34.507,0,0,1,4.5,142.786C-2.124,124.907.706,105.419.1,86.759A87.9,87.9,0,0,1,9.4,43.675C17.243,31.321,28.961,20.3,43.944,18.06c20.99-4.364,42.609-1.886,63.883-2.607q16.094.035,32.186.018c.018-.076.05-.143.073-.217a9.558,9.558,0,0,1,1.376-2.28,45.083,45.083,0,0,1,3.8-5.413A26.475,26.475,0,0,1,151.2,2.293a16.822,16.822,0,0,1,4.96-1.829A33,33,0,0,1,161.32.03a1.277,1.277,0,0,1,1,.181,1.031,1.031,0,0,1,.4.816c.065.435,0,.624-.29,1.719a40.887,40.887,0,0,1-1.72,4.743c-.74,1.738-1.969,4.124-2.788,5.63-.523.963-.949,1.691-1.358,2.353q20.938-.009,41.871-.018a2.246,2.246,0,0,1,.163-.2,3.984,3.984,0,0,1,1.683-1.1c.894-.315.939-.226,3.657-.362s9.6-.089,11.622.036a8.828,8.828,0,0,1,3.367.543c.8.313,1.4.464,1.521,1.068q31.9-.008,63.811.109c.782-.266.958-.2,3.548-.327,2.718-.135,9.623-.087,11.64.036a10.625,10.625,0,0,1,2.9.38q26.356.163,52.714.524c12.286-.029,24.5,7.63,28.62,19.442,10.533,25.986,10.344,54.8,9.268,82.4-1.376,18.024-3.7,36.987-13.468,52.551-8.751,12.4-25.616,12.762-39.355,12.709q-19.407.2-38.812.217c-.44.058-.976.109-1.865.163-2.017.124-8.922.171-11.64.036-1.784-.089-2.383-.089-2.86-.163-16.569,0-33.139-.035-49.709-.036q-7.385-.04-14.772-.054c-.1.639-.721.784-1.539,1.1a8.813,8.813,0,0,1-3.367.543c-2.017.124-8.9.172-11.622.037s-2.763-.048-3.657-.363a4,4,0,0,1-1.683-1.1,2.113,2.113,0,0,1-.217-.254l-41.871-.054c.426.686.864,1.437,1.412,2.444.818,1.505,2.047,3.891,2.788,5.63a40.825,40.825,0,0,1,1.72,4.742c.289,1.1.354,1.284.29,1.72a1.028,1.028,0,0,1-.4.815,1.158,1.158,0,0,1-.652.2,1.227,1.227,0,0,1-.127,0Zm47.591-15.459c.515,0,1.1,0,1.665-.019-.8,0-1.6,0-2.408,0C208.642,183.417,208.9,183.423,209.129,183.426ZM355.414,176.8c3.606.09,7.671-.45,9.866-1.574a17.886,17.886,0,0,0,9.848-12.979,30.909,30.909,0,0,1,2.154-6.318c2.3-4.545,4.412-11.117,4.218-13.089l-.181-1.828-1.792,1.684a23.4,23.4,0,0,0-3.729,5.9c-6.13,13.45-14.315,21.285-26.791,25.669-1.086.381-1.078.424-.054,1.176,1.139.839,3.658,1.288,6.462,1.358Zm-194-1.14c1.166.007,2.5,0,3.982,0,9.882-.019,26.341-.237,43.591-.6l12.31-.254,4.8-7.531a83.808,83.808,0,0,0,4.96-8.4c.168-.876.123-.875-3.711-.815-2.137.034-7.707.193-12.364.362a410.027,410.027,0,0,0-46.252,4.8l-5.123.869-1.647,2.57c-.907,1.409-2.594,3.87-3.747,5.486s-2.161,3.107-2.245,3.313a36.291,36.291,0,0,0,5.449.2Zm-115.475-.416c.941,0,2.009.005,3.222,0,13.075-.054,15.41-1.058,10.409-4.435-2.889-1.951-21.49-13.249-29.018-17.631-6.4-3.727-8.922-5.873-11.785-10.029a13.533,13.533,0,0,0-3.91-3.892c-1.871-.888-4.789-1.149-5.449-.489a10.951,10.951,0,0,0-.38,3.639c0,3.49,1.06,6.1,4.888,12.129,3.149,4.962,9.277,11.916,12.907,14.645a40.007,40.007,0,0,0,7.965,4.326C38.773,175.049,39.35,175.244,45.936,175.243ZM242.8,174.5c1.492,0,3.841-.053,7.476-.145,30.509-.768,50.353-1.442,50.6-1.7.408-.435,1.539-7.435,1.539-9.54,0-3.281.256-3.188-11.061-3.783-7.573-.4-36.271-1.293-43.1-1.34-.665,0-1.395,1.315-4.218,7.6-1.877,4.181-3.544,7.921-3.693,8.309-.161.419-.025.592,2.462.6Zm76.338-4.381a23.966,23.966,0,0,0,2.516-.109c4.083-.324,13.768-1.7,14.3-2.027,1.144-.707-4.742-2.8-11.948-4.255-5.363-1.086-5.986-1.15-7.313-.615-1.233.5-1.477,1.987-.706,4.308C316.642,169.4,317.161,170.056,319.137,170.121Zm-216.07-3.385c1.742,0,49.793-10.564,58.127-12.78,5.618-1.494,15.943-4.982,22.936-7.748,15.91-6.293,24.049-8.436,32.077-8.436,6.111,0,6.464-.162,11.477-5.521l5.159-5.521V71.969l-5.032-5.376L222.8,61.234l-9.739-.58c-7.681-.449-11.964-1.438-20.311-4.688-20.8-8.1-34.344-12.05-59.593-17.432-14.089-3-26.733-5.719-28.095-6.029-1.995-.455-2.885.245-4.6,3.621-2.633,5.191-8.423,23.259-10.083,31.48-3.661,18.132-3.374,50.375.579,66.272C94.642,148.7,101.289,166.735,103.067,166.735Zm258.14-5.7c3.073.151,4-2.5,7.35-8.779,9.1-17.069,11.856-31.77,11.006-58.833-.667-21.231-2.473-29.391-9.83-44.351-6.41-13.035-6.579-13.124-16.038-8.616-4.288,2.043-10.688,4.8-14.21,6.119s-6.408,2.6-6.408,2.842,1.747,3.885,3.874,8.11c6.677,13.258,8.865,23.8,8.8,42.378-.068,18.6-2.032,27.837-8.761,41.2-2.226,4.421-3.885,8.169-3.693,8.327s6.817,3.1,14.717,6.553C355.143,159.1,358.817,160.916,361.207,161.033ZM10.726,60.655a5.452,5.452,0,0,0,1.665-.2c3.312-.792,3.8-1.174,6.589-5.015,3.315-4.558,5.2-6.065,13.432-10.825,12.194-7.054,28.592-17.329,29.181-18.284,1.262-2.047-.24-2.389-11.513-2.516-9.308-.1-11.074.02-13.613.941-8.49,3.081-15.247,8.828-21.614,18.393-4.686,7.039-5.8,9.613-5.811,13.45C9.032,59.412,9.4,60.539,10.726,60.655Zm370.592-2.914.163-1.666c.2-1.929-2.145-9.251-4.127-12.871a28.353,28.353,0,0,1-2.172-6.389c-1.919-9.2-9.027-14.911-18.338-14.754a30.954,30.954,0,0,0-5.069.452,13.228,13.228,0,0,0-2.77,1.014c-1.013.567-.973.641.579,1.267,7.229,2.919,11.206,5.34,15.025,9.106,4.558,4.5,7.425,8.667,11.133,16.238,1.409,2.876,3.226,5.772,4.055,6.427ZM247.433,40.851l7.893-.09c9.581-.108,28.42-.768,38.612-1.339,6.073-.341,7.565-.536,7.965-1.05.679-.876.607-4.334-.2-8.545l-.688-3.53-1.774-.271c-1.719-.26-22.242-.87-46.994-1.394-8.576-.182-12.128-.134-12.02.163.084.232,1.738,3.939,3.675,8.237Zm-23.316-.162c4.249.007,7.006-.163,7.006-.562,0-.515-8.675-14.534-9.612-15.531-.462-.492-10.546-.756-54.47-1.412L155.546,23l1.611,2.226c.892,1.223,2.693,3.875,4,5.884,1.45,2.228,2.706,3.726,3.2,3.837,4.461,1,21.5,3.269,32.114,4.29,9.357.9,20.56,1.436,27.642,1.449Zm94.657-4.78a37.938,37.938,0,0,0,7.132-1.14c7.942-1.8,11.953-3.573,9.3-4.127-2.553-.534-10.057-1.453-13.776-1.684l-4-.236-.8,1.3a9.65,9.65,0,0,0-1.05,2.842c-.357,2.112.457,3.079,3.186,3.04Z" transform="translate(0 0)" fill="#00baf2"/></g><g transform="translate(149.5 1115.5)"><line y2="408" transform="translate(123.355 13.372)" fill="none" stroke="#000" stroke-width="4"/><g transform="translate(0 147.702)"><line x2="243.855" transform="translate(0 139.586)" fill="none" stroke="#000" stroke-width="4"/><path d="M0,0H244.22" fill="none" stroke="#000" stroke-width="4"/></g></g></g></svg>