<svg xmlns="http://www.w3.org/2000/svg" width="98.794" height="49.943" viewBox="0 0 98.794 49.943">
  <g id="g4295" transform="translate(104.719 72.335) rotate(-180)">
    <path id="path4400-3-2" d="M79.23,686.5c-.008,0-.034,0-.055,0a8.272,8.272,0,0,0-1.3.109,4.227,4.227,0,0,0-1.246.459,6.652,6.652,0,0,0-1.491,1.323,11.309,11.309,0,0,0-.955,1.359,2.4,2.4,0,0,0-.345.573.836.836,0,0,0-.027.086c-7.1.02-14.208.07-21.31.232a13.413,13.413,0,0,0-10.782,5.9,8.665,8.665,0,0,0-1.927,4.037c-1.663,4.49-.953,9.383-1.1,14.069a22.073,22.073,0,0,0,2.337,10.819c1.968,3.1,4.911,5.87,8.673,6.432,5.271,1.1,10.7.474,16.042.655q4.041-.009,8.082,0c0,.019.012.036.018.054a2.4,2.4,0,0,0,.345.573,11.324,11.324,0,0,0,.955,1.359,6.651,6.651,0,0,0,1.491,1.323,4.224,4.224,0,0,0,1.246.459,8.289,8.289,0,0,0,1.3.109.32.32,0,0,0,.25-.046.259.259,0,0,0,.1-.2c.016-.109,0-.157-.073-.432a10.26,10.26,0,0,0-.432-1.191c-.186-.437-.495-1.036-.7-1.414-.131-.242-.238-.424-.341-.591q5.258,0,10.514,0a.564.564,0,0,0,.041.05,1,1,0,0,0,.423.277,2.75,2.75,0,0,0,.918.091c.683.034,2.412.022,2.918-.009a2.216,2.216,0,0,0,.845-.136c.2-.079.351-.117.382-.268q8.01,0,16.024-.027a3.039,3.039,0,0,0,.891.082c.683.034,2.416.022,2.923-.009a2.668,2.668,0,0,0,.727-.1q6.618-.041,13.237-.132a7.645,7.645,0,0,0,7.187-4.882c2.645-6.525,2.6-13.76,2.327-20.692-.345-4.526-.929-9.288-3.382-13.2-2.2-3.113-6.432-3.2-9.882-3.191q-4.873-.051-9.746-.054c-.11-.015-.245-.027-.468-.041-.506-.031-2.24-.043-2.923-.009-.448.022-.6.022-.718.041-4.161,0-8.322.009-12.483.009q-1.854.01-3.709.014c-.026-.16-.181-.2-.386-.277a2.213,2.213,0,0,0-.845-.136c-.506-.031-2.236-.043-2.918-.009a2.758,2.758,0,0,0-.918.091,1,1,0,0,0-.423.277.525.525,0,0,0-.055.064l-10.514.014c.107-.172.217-.361.355-.614.206-.378.514-.977.7-1.414a10.246,10.246,0,0,0,.432-1.191c.073-.275.089-.322.073-.432a.259.259,0,0,0-.1-.2.29.29,0,0,0-.164-.05H79.23Zm11.951,3.882c.129,0,.276,0,.418,0h-.6Zm36.734,1.664a5.9,5.9,0,0,1,2.477.4,4.491,4.491,0,0,1,2.473,3.259,7.76,7.76,0,0,0,.541,1.586,9.777,9.777,0,0,1,1.059,3.287l-.045.459-.45-.423a5.879,5.879,0,0,1-.936-1.482,11.039,11.039,0,0,0-6.728-6.446c-.273-.1-.271-.106-.014-.3a3.3,3.3,0,0,1,1.623-.341Zm-48.717.286c.293,0,.628,0,1,0,2.481,0,6.614.06,10.946.15l3.091.064,1.2,1.891a21.047,21.047,0,0,1,1.246,2.109c.042.22.031.22-.932.2-.537-.008-1.935-.049-3.1-.091a102.977,102.977,0,0,1-11.614-1.2l-1.286-.218-.414-.645c-.228-.354-.651-.972-.941-1.378s-.543-.78-.564-.832a9.093,9.093,0,0,1,1.368-.05Zm-29,.1c.236,0,.5,0,.809,0,3.283.013,3.87.266,2.614,1.114-.726.49-5.4,3.327-7.287,4.427a7.671,7.671,0,0,0-2.959,2.518,3.4,3.4,0,0,1-.982.977c-.47.223-1.2.288-1.368.123a2.75,2.75,0,0,1-.1-.914c0-.876.266-1.531,1.227-3.046a17.4,17.4,0,0,1,3.241-3.677,10.041,10.041,0,0,1,2-1.086A5.5,5.5,0,0,1,50.2,692.432Zm49.435.186c.375,0,.965.013,1.877.036,7.661.193,12.644.362,12.705.427a11.538,11.538,0,0,1,.386,2.4c0,.824.064.8-2.777.95-1.9.1-9.108.325-10.823.336-.167,0-.35-.33-1.059-1.909-.471-1.05-.89-1.989-.927-2.086s-.006-.149.618-.15Zm19.169,1.1a6,6,0,0,1,.632.027,33.536,33.536,0,0,1,3.591.509c.287.178-1.191.7-3,1.068-1.347.273-1.5.289-1.836.155-.31-.125-.371-.5-.177-1.082C118.178,693.9,118.309,693.735,118.8,693.719Zm-54.258.85c.438,0,12.5,2.653,14.6,3.209,1.411.375,4,1.251,5.759,1.946,4,1.58,6.039,2.118,8.055,2.118,1.535,0,1.623.041,2.882,1.386l1.3,1.386v13.751l-1.264,1.35-1.259,1.346-2.446.146a14.185,14.185,0,0,0-5.1,1.177A83.668,83.668,0,0,1,72.1,726.762c-3.538.754-6.713,1.436-7.055,1.514-.5.114-.725-.062-1.155-.909a49.313,49.313,0,0,1-2.532-7.905c-.919-4.553-.847-12.65.145-16.642C62.431,699.1,64.1,694.569,64.547,694.569ZM129.369,696c.772-.038,1.005.629,1.846,2.2,2.285,4.286,2.977,7.978,2.764,14.774-.167,5.331-.621,7.381-2.468,11.137-1.61,3.273-1.652,3.3-4.027,2.164-1.077-.513-2.684-1.2-3.568-1.536a7.945,7.945,0,0,1-1.609-.714c0-.06.439-.976.973-2.036,1.677-3.329,2.226-5.976,2.209-10.642s-.51-6.99-2.2-10.346a12.089,12.089,0,0,1-.927-2.091c.048-.04,1.712-.78,3.7-1.646A13.914,13.914,0,0,1,129.369,696Zm-88.01,25.206a1.37,1.37,0,0,1,.418.05c.832.2.953.295,1.655,1.259.832,1.144,1.307,1.523,3.373,2.718,3.062,1.771,7.18,4.352,7.328,4.591.317.514-.06.6-2.891.632-2.337.026-2.781,0-3.418-.236A10.929,10.929,0,0,1,42.4,725.6c-1.177-1.768-1.455-2.414-1.459-3.377C40.934,721.519,41.026,721.236,41.359,721.207Zm93.06.732.041.418a9.731,9.731,0,0,1-1.036,3.232,7.12,7.12,0,0,0-.546,1.6,4.449,4.449,0,0,1-4.6,3.7,7.768,7.768,0,0,1-1.273-.114,3.324,3.324,0,0,1-.7-.255c-.254-.142-.244-.161.145-.318a10.373,10.373,0,0,0,3.773-2.287,13.327,13.327,0,0,0,2.8-4.078,6.666,6.666,0,0,1,1.018-1.614ZM100.8,726.18l1.982.023c2.406.027,7.137.193,9.7.336,1.525.086,1.9.134,2,.264a4.044,4.044,0,0,1-.05,2.146l-.173.886-.445.068c-.432.065-5.585.218-11.8.35a14.394,14.394,0,0,1-3.018-.041c.021-.058.436-.989.923-2.068Zm-5.855.041a4.489,4.489,0,0,1,1.759.141c0,.129-2.178,3.65-2.414,3.9-.116.124-2.648.19-13.678.355l-2.887.045.4-.559c.224-.307.676-.973,1-1.478a3,3,0,0,1,.8-.964c1.12-.25,5.4-.821,8.064-1.077,2.35-.226,5.163-.361,6.941-.364Zm23.77,1.2a9.534,9.534,0,0,1,1.791.286c1.994.452,3,.9,2.337,1.036-.641.134-2.525.365-3.459.423l-1,.059-.2-.327a2.422,2.422,0,0,1-.264-.714c-.09-.53.115-.773.8-.763Z" transform="translate(-32.741 -664.103)" fill="#00baf2"/>
  </g>
</svg>
