<svg xmlns="http://www.w3.org/2000/svg" width="313.026" height="170.65" viewBox="0 0 313.026 170.65"><g transform="translate(-22 -106.567)"><g transform="translate(28.853 185.891)" opacity="0.8"><path d="M2159.6,900.967s1.728-24.714,2.425-32.3c1.029-11.218.2-30.85.2-30.85h3.837s1.778,25.449,1.778,34.286.936,30.548.936,30.548-1.659,1.522-5.121.773S2159.6,900.967,2159.6,900.967Z" transform="translate(-2145.333 -830.006)" fill="#755032"/><g transform="translate(14.271 7.812)"><path d="M2189.592,1406.615l-.058.028c-.035.018-.069.037-.1.056-.153.089-.3.191-.451.281a.946.946,0,0,1-1.023.09,1.4,1.4,0,0,1-.41-.5,1.342,1.342,0,0,0-.389-.505.36.36,0,0,0-.248-.074.394.394,0,0,0-.237.183c-.039.053-.076.108-.112.163-.107,1.346-.221,2.816-.338,4.354.2.038.411.1.607.135a.687.687,0,0,0,.568-.128c.188-.152.317-.365.5-.52a.892.892,0,0,1,.7-.238.65.65,0,0,1,.481.525c.081.3.141.6.21.9q.06.261.121.523.093-.19.19-.377c.115-.22.232-.439.359-.652a.514.514,0,0,1,.458-.308.535.535,0,0,1,.416.3,4.774,4.774,0,0,1,.339-.785.626.626,0,0,1,.362-.362.472.472,0,0,1,.464.223c.246.312.471.643.687.976q.1.161.2.324c-.036-1.528-.064-2.967-.08-4.255l-.013,0a1.217,1.217,0,0,1-.579-.368.734.734,0,0,0-.112-.107.348.348,0,0,0-.056-.031l-.035-.01-.02,0h-.063l-.011,0-.043.012-.034.012-.043.022c-.029.016-.058.034-.087.053a1.872,1.872,0,0,0-.167.128c-.245.2-.522.467-.869.407a.92.92,0,0,1-.487-.35.644.644,0,0,0-.205-.163l-.038-.012-.05-.011h0l-.028,0h-.049l-.026,0h-.006l-.058.012a.931.931,0,0,0-.1.033l-.011,0,0,0Z" transform="translate(-2184.56 -1370.455)" fill="#95693f"/><path d="M2202.1,1269.208a.823.823,0,0,0-.6-.055,1.543,1.543,0,0,0-.386.25,1.135,1.135,0,0,1-.9.373,1.271,1.271,0,0,1-.47-.253c-.119-.083-.251-.176-.393-.107a1.3,1.3,0,0,0-.378.422,3.2,3.2,0,0,1-.433.494,1.2,1.2,0,0,1-1.06.313.925.925,0,0,1-.137-.043c-.053.829-.115,1.629-.184,2.39-.026.28-.054.584-.082.909a1.259,1.259,0,0,1,.606-.275.985.985,0,0,1,.95.406l.4-.508c.129-.165.263-.387.487-.428a.292.292,0,0,1,.307.133.874.874,0,0,1,.076.345q.068.538.137,1.076.461-.777.92-1.554a.15.15,0,0,1,.233-.03,1.756,1.756,0,0,1,.342.622,8.593,8.593,0,0,1,1.2-1.473.137.137,0,0,1,.155-.031c-.028-.855-.062-1.762-.1-2.708l-.014,0C2202.54,1269.395,2202.322,1269.3,2202.1,1269.208Z" transform="translate(-2194.731 -1242.143)" fill="#95693f"/><path d="M2182.481,1544.443a3.105,3.105,0,0,1-.571-.513.7.7,0,0,0-.246-.166.31.31,0,0,0-.258.031c-.19.112-.3.344-.461.5a.928.928,0,0,1-.761.256,1.807,1.807,0,0,1-1.248-.971,2.27,2.27,0,0,1-1.265.7,1.121,1.121,0,0,1-1.047-.478,1.234,1.234,0,0,1-.131-.544,1.25,1.25,0,0,0-.039-.233.234.234,0,0,0-.036-.085l0,0a.055.055,0,0,0-.01-.01c.008.005.005,0,0,0s-.017.006,0,0h0l-.014,0c-.009,0,.01-.012-.02,0a.251.251,0,0,0-.083.077c-.008.011-.015.022-.023.033-.116,1.56-.232,3.139-.345,4.684a.931.931,0,0,1,.65.22,2.35,2.35,0,0,1,.472.668,1.717,1.717,0,0,0,.411.545l.608-.478c.119-.094.237-.194.361-.282a.453.453,0,0,1,.373-.091c.254.068.345.37.442.58l.273.591a3.432,3.432,0,0,1,.682-.723.151.151,0,0,1,.248.065,4.534,4.534,0,0,1,.248.933c.063-.245.129-.489.2-.732.079-.266.153-.539.254-.8a.608.608,0,0,1,.506-.455.94.94,0,0,1,.659.349q.286.285.549.591a10.9,10.9,0,0,1,.672.883c-.057-1.656-.113-3.352-.163-5.021A1.365,1.365,0,0,1,2182.481,1544.443Z" transform="translate(-2174.896 -1498.825)" fill="#95693f"/><path d="M2207.962,1135.3a.762.762,0,0,1,.479.066,3.4,3.4,0,0,1,.862.678l.642.587c-.081-1.651-.171-3.356-.265-5.058a.892.892,0,0,0-.231-.051c-.376-.027-.653.271-.912.5a1.2,1.2,0,0,1-1.015.4.707.707,0,0,1-.51-.48,2.664,2.664,0,0,0-.658.791,1.7,1.7,0,0,1-.927.739.856.856,0,0,1-.449,0c-.017,1.1-.042,2.187-.074,3.26a1,1,0,0,1,.12.017c.339.069.516.347.709.6a1.282,1.282,0,0,0,.125.146.536.536,0,0,0,.056.048l.038.023.01.006.008,0,.033.008h.042l.008,0a.247.247,0,0,0,.036-.01.366.366,0,0,0,.145-.143c.116-.172.223-.348.35-.513a5.5,5.5,0,0,1,.429-.5.15.15,0,0,1,.233.03l.079.13c.029-.113.059-.226.088-.339a3.6,3.6,0,0,1,.183-.623A.557.557,0,0,1,2207.962,1135.3Z" transform="translate(-2202.07 -1113.154)" fill="#95693f"/><path d="M2172.246,1707.013a1.985,1.985,0,0,0,.313.491,1.374,1.374,0,0,0,.463.3,2.865,2.865,0,0,0,.575.155c-.057-1.423-.123-3.119-.192-4.97l-.394-.179c-.166-.075-.331-.165-.5-.225a.191.191,0,0,0-.18,0,.583.583,0,0,0-.118.142,3.014,3.014,0,0,1-.3.364,1.28,1.28,0,0,1-.8.425.914.914,0,0,1-.661-.256,2.976,2.976,0,0,1-.416-.506c-.059-.083-.115-.161-.171-.229a1.586,1.586,0,0,0-.108-.12c-.015-.016-.031-.031-.048-.046l-.04-.034a.692.692,0,0,0-.116-.071l-.006,0-.036-.012c-.018-.006-.035-.01-.054-.014l-.023,0h0l-.036,0a.5.5,0,0,0-.072,0,.543.543,0,0,0-.176.056,3.191,3.191,0,0,1-.763.42.694.694,0,0,1-.41-.027.527.527,0,0,1-.283-.327.309.309,0,0,0-.083-.144.213.213,0,0,0-.1-.04.5.5,0,0,0-.271.055,1.358,1.358,0,0,0-.477.607c-.153.26-.394.566-.73.55-.315-.015-.452-.314-.5-.587-.026-.164-.039-.33-.069-.494a5.044,5.044,0,0,0-.126-.53c-.027-.091-.055-.184-.088-.275-.116,1.622-.224,3.12-.315,4.415q.082-.09.168-.178.172-.179.354-.348a.857.857,0,0,1,.4-.25.736.736,0,0,1,.705.357,5.564,5.564,0,0,1,.432.8,8.969,8.969,0,0,0,.511.844,8.64,8.64,0,0,0,1.133,1.335q.182-.447.382-.886.217-.477.455-.943c.119-.232.275-.672.6-.643.164.015.251.145.315.282l.234.5.391.842a1.289,1.289,0,0,0,.54-.884.152.152,0,0,1,.188-.143A.725.725,0,0,1,2172.246,1707.013Z" transform="translate(-2164.604 -1647.463)" fill="#95693f"/><path d="M2176.623,1630.859a1.636,1.636,0,0,0,.646-.585.656.656,0,0,1,.355-.31.829.829,0,0,1,.521.126l.569.259c-.046-1.236-.093-2.536-.139-3.867a13.489,13.489,0,0,0-.857-1.179q-.252-.3-.526-.576a1.8,1.8,0,0,0-.271-.242.366.366,0,0,0-.261-.083c-.191.038-.246.348-.294.5q-.127.4-.24.794-.229.812-.4,1.639c-.033.164-.311.126-.291-.039a4.3,4.3,0,0,0-.183-1.849,3.217,3.217,0,0,0-.613.746.15.15,0,0,1-.256,0l-.343-.742c-.053-.115-.1-.231-.159-.345-.027-.055-.065-.147-.125-.173-.078-.035-.179.069-.235.112l-.3.233-.638.5a.155.155,0,0,1-.18.023,1.758,1.758,0,0,1-.6-.706,1.989,1.989,0,0,0-.439-.618.931.931,0,0,0-.135-.082.622.622,0,0,0-.2-.047.816.816,0,0,0-.109,0c-.107,1.473-.211,2.913-.309,4.275a.779.779,0,0,1,.166.263,4.6,4.6,0,0,1,.176.5,4.89,4.89,0,0,1,.123.53c.028.161.041.327.067.486a.6.6,0,0,0,.109.3.151.151,0,0,0,.122.053.334.334,0,0,0,.19-.078,2.667,2.667,0,0,0,.479-.7.94.94,0,0,1,.665-.432.559.559,0,0,1,.348.063.656.656,0,0,1,.25.357.211.211,0,0,0,.214.133.63.63,0,0,0,.327-.092,1.83,1.83,0,0,1,.822-.4.8.8,0,0,1,.565.228,2.969,2.969,0,0,1,.4.5c.065.091.12.167.186.245.035.041.07.08.108.117.017.016.034.032.052.048l.038.032a.6.6,0,0,0,.253.122A.582.582,0,0,0,2176.623,1630.859Z" transform="translate(-2169.926 -1575.157)" fill="#95693f"/><path d="M2204.682,876.4a1.036,1.036,0,0,0-.195-.222,1.579,1.579,0,0,0-1.178-.331,2.442,2.442,0,0,0-.382.068c.026.8.055,1.779.084,2.886l.041.05a.5.5,0,0,0,.259.18.716.716,0,0,0,.326,0,1.746,1.746,0,0,0,.708-.382,2.585,2.585,0,0,1,.756-.458,1.7,1.7,0,0,1,.7-.066,5.768,5.768,0,0,1,1.209.314c-.042-.641-.081-1.235-.117-1.772a2.035,2.035,0,0,1-.192-.119,2.5,2.5,0,0,0-.63-.364.624.624,0,0,0-.312-.035.533.533,0,0,0-.253.146c-.154.139-.329.342-.56.315a.322.322,0,0,1-.166-.065A.572.572,0,0,1,2204.682,876.4Z" transform="translate(-2200.218 -873.463)" fill="#95693f"/><path d="M2208.219,1081.794a.327.327,0,0,0-.332.076c-.111.114-.161.274-.274.388a.49.49,0,0,1-.462.151c-.176-.05-.216-.211-.314-.341a.64.64,0,0,0-.657-.172c0,1.463-.006,2.955-.028,4.441a.539.539,0,0,0,.424.006,1.235,1.235,0,0,0,.47-.3,3.155,3.155,0,0,0,.354-.479,1.856,1.856,0,0,1,.9-.825.149.149,0,0,1,.182.182.276.276,0,0,0,.136.326.471.471,0,0,0,.446.033,3.9,3.9,0,0,0,.847-.633,1.185,1.185,0,0,1,.489-.223,1.04,1.04,0,0,1,.433.022c-.038-.67-.075-1.339-.114-2-.137-.216-.265-.446-.422-.648a.467.467,0,0,0-.5-.2c-.455.107-.613.6-.738.992a.149.149,0,0,1-.286,0C2208.686,1082.28,2208.568,1081.886,2208.219,1081.794Z" transform="translate(-2203.241 -1066.334)" fill="#95693f"/><path d="M2202.638,839.957a1.547,1.547,0,0,1,1,.719c.008,0,.021,0,0,0,.023,0,0,0,.016,0l.024-.007a.546.546,0,0,0,.108-.072c.1-.083.187-.177.29-.253.443-.327,1,0,1.377.273l.07.049c-.119-1.776-.194-2.846-.194-2.846H2201.5s.034.794.079,2.154A2.271,2.271,0,0,1,2202.638,839.957Z" transform="translate(-2198.882 -837.818)" fill="#95693f"/><path d="M2197.1,1326.161a.149.149,0,0,1-.276-.075,1.424,1.424,0,0,0-.211-.65l-1.024,1.731a.152.152,0,0,1-.168.068.155.155,0,0,1-.109-.143l-.11-.855-.053-.42c-.017-.13-.025-.265-.052-.394,0-.022-.022-.043-.006-.041-.033,0-.077.039-.1.058a2.193,2.193,0,0,0-.257.314l-.53.678a.149.149,0,0,1-.248-.065.523.523,0,0,0-.342-.4.977.977,0,0,0-1.062.38c-.079.921-.167,1.988-.26,3.16a.7.7,0,0,1,.069-.048.618.618,0,0,1,.692.081,1.733,1.733,0,0,1,.434.563.956.956,0,0,0,.386.445.373.373,0,0,0,.2.035.331.331,0,0,0,.1-.014.9.9,0,0,0,.114-.034.97.97,0,0,0,.1-.044c.038-.019.075-.039.113-.06.076-.043.149-.09.222-.137a1.368,1.368,0,0,1,.961-.337.922.922,0,0,1,.484.337.65.65,0,0,0,.208.177.394.394,0,0,0,.053.016l.015,0h.069l.012,0a.94.94,0,0,0,.35-.194,5.094,5.094,0,0,1,.4-.317.688.688,0,0,1,.431-.133.54.54,0,0,1,.274.105c.1.072.167.168.255.249a.809.809,0,0,0,.269.159c-.008-.693-.013-1.339-.013-1.928,0-.986-.022-2.179-.062-3.521l-.126-.322A8.324,8.324,0,0,0,2197.1,1326.161Z" transform="translate(-2190.247 -1294.14)" fill="#95693f"/><path d="M2206.527,917.136a3.738,3.738,0,0,0-.729.494,1.624,1.624,0,0,1-.735.329.911.911,0,0,1-.611-.111c.019.725.037,1.5.053,2.32a.293.293,0,0,0,.069.079.257.257,0,0,0,.257-.013c.259-.124.4-.4.616-.57a.708.708,0,0,1,.4-.168.456.456,0,0,1,.143.015.4.4,0,0,1,.119.08l.03.024a1.1,1.1,0,0,1,.473-.573.506.506,0,0,1,.4-.033.768.768,0,0,1,.361.327,5.408,5.408,0,0,0,.563.713,2.406,2.406,0,0,0,.728.541c-.073-1.152-.143-2.229-.206-3.2a5.646,5.646,0,0,0-1.288-.341A1.382,1.382,0,0,0,2206.527,917.136Z" transform="translate(-2201.648 -912.086)" fill="#95693f"/><path d="M2184.943,1471.429l-.117-.5a2.707,2.707,0,0,0-.11-.426.3.3,0,0,0-.188-.193.408.408,0,0,0-.256.029,1.486,1.486,0,0,0-.508.447,1.172,1.172,0,0,1-.586.4,1.5,1.5,0,0,1-.69-.047c-.109-.027-.219-.059-.33-.081-.082,1.072-.165,2.174-.248,3.288a.335.335,0,0,1,.182,0c.182.043.257.234.288.4.017.094.027.19.036.286a.918.918,0,0,0,.039.237.8.8,0,0,0,.845.425,2.309,2.309,0,0,0,1.18-.743.15.15,0,0,1,.233.03,2.778,2.778,0,0,0,.622.778.891.891,0,0,0,.807.17c.224-.077.351-.307.5-.476a.706.706,0,0,1,.656-.285,1.145,1.145,0,0,1,.585.4,1.194,1.194,0,0,0,.6.409,1.33,1.33,0,0,0,.5,0c-.042-1.387-.081-2.753-.113-4.062a15.372,15.372,0,0,0-1.059-1.626c-.049-.066-.166-.269-.269-.2a.377.377,0,0,0-.107.139q-.067.116-.125.236a4.471,4.471,0,0,0-.353,1.02.147.147,0,0,1-.163.106.152.152,0,0,1-.129-.146.847.847,0,0,0-.2-.455.2.2,0,0,0-.068-.052.285.285,0,0,1-.028-.008c-.018,0-.019,0,0,0h-.023a.133.133,0,0,1-.03.009.257.257,0,0,0-.04.025.428.428,0,0,0-.083.109,13.793,13.793,0,0,0-.736,1.422.15.15,0,0,1-.271-.035Q2185.06,1471.938,2184.943,1471.429Z" transform="translate(-2180.515 -1430.524)" fill="#95693f"/><path d="M2168.491,1767.063a2.131,2.131,0,0,1-1.136-.515,1.941,1.941,0,0,1-.343-.514.852.852,0,0,0-.19-.276,1.584,1.584,0,0,1-.786,1.015.15.15,0,0,1-.2-.053l-.468-1.007q-.1-.226-.209-.451a.449.449,0,0,0-.082-.153c-.02-.016-.024-.011-.049.007a.837.837,0,0,0-.2.3q-.111.214-.218.429-.419.846-.768,1.723a.151.151,0,0,1-.248.065,9.012,9.012,0,0,1-1.4-1.63,8.777,8.777,0,0,1-.483-.816,4.416,4.416,0,0,0-.4-.735.669.669,0,0,0-.241-.206.285.285,0,0,0-.293.054,3.421,3.421,0,0,0-.344.324q-.166.167-.326.341c-.071.078-.14.158-.208.239-.184,2.58-.3,4.232-.3,4.232s.588,1.709,4.05,2.457,5.121-.772,5.121-.772-.068-1.573-.167-4.042Z" transform="translate(-2159.604 -1706.29)" fill="#95693f"/><path d="M2206.076,1197.137c-.143-.13-.283-.26-.426-.389a1.571,1.571,0,0,0-.357-.249.445.445,0,0,0-.34-.049c-.125.05-.167.19-.2.309-.1.361-.189.724-.283,1.086a.15.15,0,0,1-.271.035l-.16-.262a4.848,4.848,0,0,0-.333.406q-.1.142-.2.29a1.575,1.575,0,0,1-.177.251.489.489,0,0,1-.453.159.627.627,0,0,1-.33-.216c-.177-.2-.309-.517-.579-.605a.641.641,0,0,0-.129-.026c-.047,1.473-.111,2.907-.194,4.264a.586.586,0,0,0,.285.094.831.831,0,0,0,.463-.1,1.677,1.677,0,0,0,.457-.4c.138-.163.254-.342.39-.506a.643.643,0,0,1,.531-.273,1.022,1.022,0,0,1,.493.234.612.612,0,0,0,.419.16l.044-.01.047-.014a.462.462,0,0,0,.08-.037,1.531,1.531,0,0,0,.2-.132c.133-.1.262-.216.4-.307a.981.981,0,0,1,.536-.173,1.916,1.916,0,0,1,.716.208c.112.048.226.092.342.133-.042-1-.089-2.046-.141-3.115Z" transform="translate(-2199.019 -1174.004)" fill="#95693f"/><path d="M2209.43,954.393a3.381,3.381,0,0,1-1.285-1.186,1.818,1.818,0,0,0-.25-.335.244.244,0,0,0-.127-.059.184.184,0,0,0-.115.024,1,1,0,0,0-.4.594.151.151,0,0,1-.248.066l-.211-.168a.4.4,0,0,0-.289.121,3.282,3.282,0,0,0-.289.312.9.9,0,0,1-.668.344.489.489,0,0,1-.137-.028c.017.873.032,1.789.045,2.738a.145.145,0,0,1,.1.1.965.965,0,0,0,.83.707.868.868,0,0,0,.469-.066,1.885,1.885,0,0,0,.476-.387,1.674,1.674,0,0,1,.538-.389,1.455,1.455,0,0,1,.81-.007l1.067.2c-.053-.869-.105-1.713-.157-2.522C2209.531,954.434,2209.48,954.416,2209.43,954.393Z" transform="translate(-2202.542 -945.62)" fill="#95693f"/><path d="M2210.092,1020.227c-.3-.057-.606-.124-.912-.168a.83.83,0,0,0-.664.151c-.178.136-.321.312-.493.454a1.173,1.173,0,0,1-.571.276,1.266,1.266,0,0,1-.618-.058,1.339,1.339,0,0,1-.615-.442c.012,1.123.021,2.286.023,3.469a.928.928,0,0,1,.867.265,2.328,2.328,0,0,1,.139.219.081.081,0,0,0,.1.043c.151-.041.215-.226.3-.342a.625.625,0,0,1,.412-.286.772.772,0,0,1,.513.1,1.073,1.073,0,0,1,.414.509,1.806,1.806,0,0,1,.247-.437,1.008,1.008,0,0,1,.639-.376.742.742,0,0,1,.686.272,3.037,3.037,0,0,1,.191.26c-.076-1.307-.153-2.594-.229-3.832Z" transform="translate(-2203.304 -1008.649)" fill="#95693f"/></g><path d="M2075.828,808.51a19.151,19.151,0,0,0-18.257-14.607l-5.931.8c-4.041,3.282-5.35,8.792-6.416,13.888a2.664,2.664,0,0,1,.891-1.175,26.346,26.346,0,0,0-.3,10.343,23.5,23.5,0,0,1,2.208-3.255l.37.641a34.334,34.334,0,0,0,5.07-8.6,23.96,23.96,0,0,0,.276,11.93,9.339,9.339,0,0,1,1.585-2.85,20.974,20.974,0,0,0,1.356,8.817,36.33,36.33,0,0,0,2.232-8.945l.9,2.881a28.5,28.5,0,0,0,.7-11.57,43.149,43.149,0,0,0,5.769,8.065,15.993,15.993,0,0,0,.6-3.906,19.438,19.438,0,0,0,2.547,6.411,11.752,11.752,0,0,0,.189-9.625,14.554,14.554,0,0,1,2.284,2.361,6.477,6.477,0,0,0-.574-2.765A6.3,6.3,0,0,0,2075.828,808.51Z" transform="translate(-2038.106 -788.838)" fill="#566e3e"/><path d="M1939.8,742.034a18.3,18.3,0,0,0-8.387,11.853l1.128-.7-.037,1.141a14.012,14.012,0,0,0,3.827-3.592l-.353,3.243a48.82,48.82,0,0,1,7.1-7.571c-3.115,4.123-5.564,9.119-5.092,14.265a37.862,37.862,0,0,1,3.709-2.98q.045.588.091,1.177a19.486,19.486,0,0,0,3.592-7.64q.211,1.706.422,3.412a34.53,34.53,0,0,0,5.094-7.3c-.914,4.969-1.819,10.153-.423,15.009l.9-1.531a3.984,3.984,0,0,0,.407,2.813,45.317,45.317,0,0,0,2.136-7.989,15.187,15.187,0,0,0-.852-8.134q3.544,4.666,6.828,9.522a3.621,3.621,0,0,1,.842-1.718l.971,2.2a1.436,1.436,0,0,1,1.351.723,12.316,12.316,0,0,0-5.649-10.764,12.263,12.263,0,0,1,8.305,4.94l-.157-1.041a13.452,13.452,0,0,1,3.109,3.445,20.3,20.3,0,0,0,1.052-4.03,10.888,10.888,0,0,0,3.535,4.475,9.1,9.1,0,0,0-1.993-5.962,20.028,20.028,0,0,0-4.759-4.27,29.736,29.736,0,0,0-8.482-4.257c-3.359-.973-6.089-.394-9.432-.173-1.462.1-2.842-.4-4.325-.2A11.745,11.745,0,0,0,1939.8,742.034Z" transform="translate(-1931.416 -738.527)" fill="#668944"/><path d="M1990.337,713.4c-1.655.339-3.464.811-4.384,2.228l2.19-.26-.958,1.165,3.429-.951-1.171,1.314a26.81,26.81,0,0,1,11.7-1.212c-1.87.709-3.877,1.009-5.739,1.74a13.3,13.3,0,0,0-6.725,5.911l1.742-1.084a12.078,12.078,0,0,0-1.89,4.615,60.764,60.764,0,0,0,6.111-4.244l-.61,2q4.106-3.621,7.842-7.636a27.552,27.552,0,0,0-1.865,10.755l1.195-1.274a28.461,28.461,0,0,0,1.349,6.6,14.754,14.754,0,0,0,2.1-6.733,2.345,2.345,0,0,0,.87.785,16.028,16.028,0,0,0-.5-8.67,4.725,4.725,0,0,1,1.438,1.168l5.583,5.916.479-1.823.814,1.825.731-.931,3.7,4.314a5.64,5.64,0,0,0-.346-5.479,12.139,12.139,0,0,0-4.162-3.883,29.7,29.7,0,0,0-7.505-3.36,20.834,20.834,0,0,1,14.385,2.957l-1.28-1.794a15.12,15.12,0,0,0,4.315,3.233,6.405,6.405,0,0,0-3.129-3.776,20.992,20.992,0,0,0-15.973-2.711,6.7,6.7,0,0,1-2.217.5C2001.1,714.485,1997.916,711.848,1990.337,713.4Z" transform="translate(-1982.543 -712.912)" fill="#93ad3f"/><path d="M2180.655,1545.79a2.92,2.92,0,0,0,.731,2.531.578.578,0,0,0,.352.139c.356-.01.476-.477.49-.833.189-4.924.1-9.887,1-14.733.155-.84,1.012-4.208-.5-4.351-1.3-.123-1.144,3.886-1.225,4.735Q2180.9,1539.521,2180.655,1545.79Z" transform="translate(-2165.059 -1477.529)" fill="#fff" opacity="0.19"/><path d="M2199.749,1408.208a2.541,2.541,0,0,0,.187,1.347,1.194,1.194,0,0,0,1.053.632,1.237,1.237,0,0,0,1.108-.926,6.728,6.728,0,0,0,.172-2.533c-.034-.584.295-3.694-1.754-3C2199.247,1404.157,2199.788,1407.351,2199.749,1408.208Z" transform="translate(-2182.89 -1360.428)" fill="#fff" opacity="0.19"/><path d="M2092.444,720.643a1.847,1.847,0,0,0-1.354.467.459.459,0,0,0-.118.217.406.406,0,0,0,.29.415,1.234,1.234,0,0,0,.544.021,18.821,18.821,0,0,1,6.209.385.449.449,0,0,0,.32,0,.3.3,0,0,0,.033-.448.866.866,0,0,0-.451-.228A18.561,18.561,0,0,0,2092.444,720.643Z" transform="translate(-2080.988 -720.153)" fill="#fff" opacity="0.19"/><path d="M2074.8,790.554a.38.38,0,0,0,0,.328c.1.149.332.087.489,0,1.321-.735,2.144-2.135,3.393-2.985a18.232,18.232,0,0,0,2.413-1.488c.652-.612-1.074-.71-1.431-.631a6.289,6.289,0,0,0-2.026,1.034A7.589,7.589,0,0,0,2074.8,790.554Z" transform="translate(-2065.79 -781.199)" fill="#fff" opacity="0.19"/><path d="M2233.981,795.211a3.134,3.134,0,0,0,.318,1.287,1.224,1.224,0,0,0,1.076.67.344.344,0,0,0,.206-.067.418.418,0,0,0,.109-.207,11.982,11.982,0,0,0,.46-4.373,5.829,5.829,0,0,0-.5-2.1c-.808-1.658-1.35.567-1.5,1.311A12.212,12.212,0,0,0,2233.981,795.211Z" transform="translate(-2215.007 -785.011)" fill="#fff" opacity="0.19"/><path d="M1994.36,789.009a3.992,3.992,0,0,0-.859,1.553.672.672,0,0,0,.123.661.52.52,0,0,0,.339.111c.585,0,.96-.6,1.265-1.1a12.964,12.964,0,0,1,4.025-3.971c.128-.084.276-.227.206-.363-.062-.121-.236-.111-.368-.08A8.054,8.054,0,0,0,1994.36,789.009Z" transform="translate(-1989.589 -781.245)" fill="#fff" opacity="0.19"/><path d="M2059.156,924.812a1.657,1.657,0,0,0-.063.807.589.589,0,0,0,.583.472.675.675,0,0,0,.371-.205c.62-.6.608-1.576.873-2.4.115-.359,1.5-3.632-.124-2.819C2059.845,921.146,2059.391,923.888,2059.156,924.812Z" transform="translate(-2051.081 -907.554)" fill="#fff" opacity="0.19"/></g><g transform="translate(43.067 150.373)" opacity="0.8"><path d="M2159.6,933.7s2.625-37.525,3.682-49.044c1.563-17.034.3-46.843.3-46.843h5.827s2.7,38.642,2.7,52.06,1.42,46.385,1.42,46.385-2.519,2.31-7.776,1.174S2159.6,933.7,2159.6,933.7Z" transform="translate(-2137.935 -825.956)" fill="#755032"/><g transform="translate(21.67 11.862)"><path d="M2191.338,1406.94c-.03.014-.06.028-.088.043-.053.027-.1.056-.155.085-.233.135-.452.291-.684.427a1.437,1.437,0,0,1-1.554.136,2.128,2.128,0,0,1-.623-.756,2.039,2.039,0,0,0-.592-.767.548.548,0,0,0-.376-.113.6.6,0,0,0-.359.278q-.088.122-.17.248c-.163,2.043-.335,4.276-.512,6.611.31.058.624.156.922.205a1.043,1.043,0,0,0,.863-.194c.286-.231.482-.555.764-.79a1.355,1.355,0,0,1,1.062-.361.988.988,0,0,1,.73.8c.123.45.214.911.319,1.365.061.264.123.529.183.794.095-.192.191-.383.288-.572.175-.334.354-.666.545-.99a.78.78,0,0,1,.7-.468.813.813,0,0,1,.632.457,7.179,7.179,0,0,1,.515-1.192.951.951,0,0,1,.549-.549.717.717,0,0,1,.7.339c.374.474.716.976,1.043,1.482q.156.244.308.492c-.055-2.321-.1-4.505-.121-6.461l-.021-.005a1.851,1.851,0,0,1-.88-.559,1.105,1.105,0,0,0-.169-.162.5.5,0,0,0-.084-.048s-.046-.014-.054-.016l-.03-.006h-.008c-.027,0-.051,0-.077,0h-.01l-.017,0c-.022.006-.043.011-.066.018l-.051.019c-.022.01-.044.021-.065.033-.045.025-.089.052-.132.08a2.859,2.859,0,0,0-.253.195c-.372.309-.792.709-1.319.619a1.4,1.4,0,0,1-.74-.532.972.972,0,0,0-.312-.248l-.058-.019c-.024-.007-.049-.013-.075-.017h0l-.043,0c-.026,0-.051,0-.075,0l-.039,0-.01,0c-.03,0-.058.011-.087.019a1.441,1.441,0,0,0-.153.05l-.016.006-.007,0Z" transform="translate(-2183.697 -1352.033)" fill="#95693f"/><path d="M2204.7,1269.255a1.25,1.25,0,0,0-.91-.083,2.335,2.335,0,0,0-.586.379,1.725,1.725,0,0,1-1.369.567,1.927,1.927,0,0,1-.714-.384c-.181-.126-.382-.268-.6-.162a1.975,1.975,0,0,0-.574.642,4.857,4.857,0,0,1-.659.749,1.823,1.823,0,0,1-1.609.476,1.372,1.372,0,0,1-.208-.066c-.081,1.259-.174,2.474-.28,3.629-.04.425-.081.886-.124,1.38a1.911,1.911,0,0,1,.92-.417,1.5,1.5,0,0,1,1.442.616l.6-.771c.2-.25.4-.587.74-.65a.444.444,0,0,1,.466.2,1.325,1.325,0,0,1,.115.524q.1.817.208,1.633.7-1.18,1.4-2.36a.227.227,0,0,1,.353-.046,2.667,2.667,0,0,1,.52.944,13.056,13.056,0,0,1,1.82-2.236.209.209,0,0,1,.235-.047c-.042-1.3-.094-2.676-.153-4.113l-.021-.007C2205.373,1269.538,2205.043,1269.388,2204.7,1269.255Z" transform="translate(-2193.516 -1228.159)" fill="#95693f"/><path d="M2185.885,1545.231a4.7,4.7,0,0,1-.867-.779,1.059,1.059,0,0,0-.373-.252.473.473,0,0,0-.392.047c-.288.171-.461.522-.7.758a1.408,1.408,0,0,1-1.155.389,2.744,2.744,0,0,1-1.9-1.474,3.45,3.45,0,0,1-1.92,1.071,1.7,1.7,0,0,1-1.589-.726,1.866,1.866,0,0,1-.2-.826,1.86,1.86,0,0,0-.059-.354.347.347,0,0,0-.054-.129.031.031,0,0,1,0-.007.078.078,0,0,0-.015-.014c.012.008.008,0,0-.007s-.026.009-.007,0l.005,0,0,0-.022,0c-.013,0,.015-.018-.031,0a.381.381,0,0,0-.125.117c-.011.016-.023.034-.036.051-.176,2.369-.352,4.766-.524,7.113a1.414,1.414,0,0,1,.987.334,3.566,3.566,0,0,1,.717,1.014,2.618,2.618,0,0,0,.625.827l.924-.726c.181-.143.36-.3.548-.428a.688.688,0,0,1,.566-.139c.386.1.524.561.672.881l.415.9a5.213,5.213,0,0,1,1.035-1.1.23.23,0,0,1,.377.1,6.85,6.85,0,0,1,.376,1.417c.1-.372.2-.743.3-1.111.119-.4.233-.818.385-1.211a.924.924,0,0,1,.769-.691,1.43,1.43,0,0,1,1,.529q.435.432.833.9a16.548,16.548,0,0,1,1.021,1.341c-.087-2.515-.172-5.089-.248-7.625A2.071,2.071,0,0,1,2185.885,1545.231Z" transform="translate(-2174.367 -1475.963)" fill="#95693f"/><path d="M2209.548,1137.264a1.157,1.157,0,0,1,.728.1,5.161,5.161,0,0,1,1.309,1.03l.975.891c-.123-2.506-.259-5.1-.4-7.681a1.354,1.354,0,0,0-.351-.078c-.57-.041-.99.411-1.385.754a1.829,1.829,0,0,1-1.542.6,1.073,1.073,0,0,1-.774-.73,4.047,4.047,0,0,0-1,1.2,2.577,2.577,0,0,1-1.409,1.122,1.292,1.292,0,0,1-.682.007c-.026,1.664-.063,3.321-.113,4.95a1.452,1.452,0,0,1,.183.025c.514.1.784.527,1.076.918a1.919,1.919,0,0,0,.19.222.8.8,0,0,0,.084.073c.019.012.038.024.058.035l.014.009.012,0a.424.424,0,0,0,.05.012l.042,0h.022l.012,0a.339.339,0,0,0,.054-.016.549.549,0,0,0,.22-.216c.176-.262.339-.529.531-.78a8.361,8.361,0,0,1,.652-.754.229.229,0,0,1,.354.046c.039.066.08.131.12.2.045-.171.09-.343.134-.514a5.478,5.478,0,0,1,.277-.947A.847.847,0,0,1,2209.548,1137.264Z" transform="translate(-2200.601 -1103.631)" fill="#95693f"/><path d="M2176.034,1709.882a3.015,3.015,0,0,0,.474.746,2.082,2.082,0,0,0,.7.449,4.334,4.334,0,0,0,.873.235c-.087-2.161-.187-4.736-.292-7.547l-.6-.273c-.252-.114-.5-.25-.762-.342a.292.292,0,0,0-.274,0,.892.892,0,0,0-.179.216,4.6,4.6,0,0,1-.455.552,1.943,1.943,0,0,1-1.216.646,1.388,1.388,0,0,1-1-.389,4.544,4.544,0,0,1-.631-.768c-.09-.126-.174-.245-.259-.349-.052-.063-.106-.124-.164-.182-.022-.024-.047-.047-.073-.07l-.061-.051a1.083,1.083,0,0,0-.175-.108l-.009,0-.054-.019c-.027-.009-.054-.015-.082-.021l-.035-.007h0l-.054,0a.772.772,0,0,0-.109,0,.83.83,0,0,0-.267.084,4.832,4.832,0,0,1-1.158.637,1.056,1.056,0,0,1-.622-.04.8.8,0,0,1-.43-.5.473.473,0,0,0-.126-.218.318.318,0,0,0-.15-.061.754.754,0,0,0-.412.084,2.063,2.063,0,0,0-.725.922c-.232.4-.6.86-1.109.836-.478-.023-.687-.478-.753-.891-.04-.25-.06-.5-.1-.75a7.612,7.612,0,0,0-.191-.8c-.041-.139-.084-.28-.134-.418-.177,2.463-.34,4.738-.479,6.7q.125-.138.255-.271c.175-.181.354-.357.537-.528a1.3,1.3,0,0,1,.613-.379,1.119,1.119,0,0,1,1.071.543,8.5,8.5,0,0,1,.656,1.209,13.393,13.393,0,0,0,.775,1.281,13.112,13.112,0,0,0,1.72,2.027q.276-.678.58-1.346.33-.724.691-1.433c.18-.352.417-1.021.918-.976.249.022.381.22.479.428l.355.766.594,1.279a1.956,1.956,0,0,0,.82-1.342.23.23,0,0,1,.285-.217A1.1,1.1,0,0,1,2176.034,1709.882Z" transform="translate(-2164.431 -1619.46)" fill="#95693f"/><path d="M2179.737,1634.234a2.477,2.477,0,0,0,.98-.888,1,1,0,0,1,.54-.471,1.261,1.261,0,0,1,.792.191l.864.393c-.069-1.876-.141-3.851-.21-5.872a20.7,20.7,0,0,0-1.3-1.791q-.383-.452-.8-.874a2.684,2.684,0,0,0-.411-.368.555.555,0,0,0-.4-.126c-.291.058-.374.529-.447.757q-.194.6-.364,1.205-.348,1.234-.6,2.489c-.05.249-.472.192-.442-.059a6.533,6.533,0,0,0-.278-2.808,4.9,4.9,0,0,0-.931,1.133.227.227,0,0,1-.389,0l-.521-1.127c-.08-.174-.158-.351-.242-.524-.041-.083-.1-.223-.189-.262-.119-.053-.272.1-.356.17l-.45.354-.969.762a.235.235,0,0,1-.273.036,2.661,2.661,0,0,1-.91-1.071,3.034,3.034,0,0,0-.667-.938,1.473,1.473,0,0,0-.205-.124.938.938,0,0,0-.311-.071,1.269,1.269,0,0,0-.165.006c-.162,2.237-.321,4.424-.47,6.491a1.184,1.184,0,0,1,.252.4,7,7,0,0,1,.267.766,7.548,7.548,0,0,1,.187.805c.043.245.062.5.1.739a.918.918,0,0,0,.165.45.228.228,0,0,0,.185.081.51.51,0,0,0,.289-.118,4.063,4.063,0,0,0,.728-1.064,1.427,1.427,0,0,1,1.009-.656.85.85,0,0,1,.528.1.991.991,0,0,1,.38.542.32.32,0,0,0,.325.2.956.956,0,0,0,.5-.139,2.782,2.782,0,0,1,1.248-.614,1.215,1.215,0,0,1,.858.346,4.492,4.492,0,0,1,.611.753c.1.138.182.253.282.372.053.062.107.121.164.178.025.025.051.049.079.073l.058.048a.9.9,0,0,0,.385.186A.879.879,0,0,0,2179.737,1634.234Z" transform="translate(-2169.569 -1549.656)" fill="#95693f"/><path d="M2205.592,876.693a1.588,1.588,0,0,0-.3-.337,2.4,2.4,0,0,0-1.788-.5,3.692,3.692,0,0,0-.58.1c.04,1.221.084,2.7.128,4.383l.062.075a.76.76,0,0,0,.393.273,1.086,1.086,0,0,0,.5.006,2.649,2.649,0,0,0,1.075-.58,3.925,3.925,0,0,1,1.148-.7,2.59,2.59,0,0,1,1.062-.1,8.767,8.767,0,0,1,1.836.477c-.063-.974-.124-1.876-.178-2.691a3.123,3.123,0,0,1-.292-.181,3.787,3.787,0,0,0-.956-.553.946.946,0,0,0-.473-.054.807.807,0,0,0-.384.221c-.234.211-.5.519-.849.479a.491.491,0,0,1-.252-.1A.873.873,0,0,1,2205.592,876.693Z" transform="translate(-2198.813 -872.23)" fill="#95693f"/><path d="M2209.291,1081.9a.5.5,0,0,0-.5.115c-.168.173-.245.416-.416.588a.744.744,0,0,1-.7.23c-.267-.075-.328-.321-.477-.517a.972.972,0,0,0-1-.261c0,2.221-.01,4.486-.042,6.742a.817.817,0,0,0,.644.009,1.875,1.875,0,0,0,.714-.461,4.784,4.784,0,0,0,.538-.727,2.819,2.819,0,0,1,1.368-1.253.227.227,0,0,1,.277.277.419.419,0,0,0,.206.5.715.715,0,0,0,.677.05,5.921,5.921,0,0,0,1.286-.961,1.8,1.8,0,0,1,.743-.339,1.579,1.579,0,0,1,.657.034c-.057-1.017-.115-2.033-.173-3.042-.208-.328-.4-.677-.641-.984a.71.71,0,0,0-.752-.3c-.69.163-.931.909-1.121,1.506a.227.227,0,0,1-.434,0C2210,1082.643,2209.82,1082.045,2209.291,1081.9Z" transform="translate(-2201.732 -1058.43)" fill="#95693f"/><path d="M2203.227,841.067a2.349,2.349,0,0,1,1.524,1.092c.012,0,.031,0,.007,0,.035,0,.005,0,.024,0l.037-.011a.841.841,0,0,0,.164-.11c.149-.126.283-.268.441-.385.673-.5,1.518,0,2.091.414.035.025.071.05.106.074-.18-2.7-.294-4.322-.294-4.322H2201.5s.051,1.206.119,3.271A3.449,3.449,0,0,1,2203.227,841.067Z" transform="translate(-2197.524 -837.818)" fill="#95693f"/><path d="M2199.592,1326.979a.227.227,0,0,1-.419-.114,2.156,2.156,0,0,0-.321-.987q-.777,1.314-1.555,2.629a.231.231,0,0,1-.255.1.235.235,0,0,1-.165-.217l-.167-1.3c-.027-.213-.054-.425-.082-.638-.025-.2-.038-.4-.078-.6-.007-.033-.033-.065-.009-.062-.05-.005-.117.06-.15.088a3.355,3.355,0,0,0-.39.476l-.8,1.029a.227.227,0,0,1-.377-.1.793.793,0,0,0-.519-.614,1.482,1.482,0,0,0-1.613.577c-.12,1.4-.253,3.018-.4,4.8a.919.919,0,0,1,.1-.073.938.938,0,0,1,1.051.123,2.624,2.624,0,0,1,.659.854,1.455,1.455,0,0,0,.586.676.566.566,0,0,0,.3.053.492.492,0,0,0,.146-.02,1.415,1.415,0,0,0,.172-.052,1.394,1.394,0,0,0,.151-.066c.058-.029.115-.059.171-.092.115-.066.226-.137.338-.208a2.079,2.079,0,0,1,1.46-.511,1.4,1.4,0,0,1,.735.512.984.984,0,0,0,.316.27.613.613,0,0,0,.081.025l.024,0h.1l.018,0a1.421,1.421,0,0,0,.532-.294,7.6,7.6,0,0,1,.608-.481,1.046,1.046,0,0,1,.656-.2.821.821,0,0,1,.415.16,5.372,5.372,0,0,1,.387.377,1.226,1.226,0,0,0,.408.241c-.012-1.052-.019-2.034-.019-2.928,0-1.5-.034-3.309-.094-5.346q-.1-.244-.191-.488A12.647,12.647,0,0,0,2199.592,1326.979Z" transform="translate(-2189.187 -1278.358)" fill="#95693f"/><path d="M2207.6,917.185a5.66,5.66,0,0,0-1.106.75,2.468,2.468,0,0,1-1.116.5,1.383,1.383,0,0,1-.928-.169c.028,1.1.056,2.281.08,3.523a.449.449,0,0,0,.106.12.389.389,0,0,0,.39-.02c.393-.188.6-.6.935-.866a1.075,1.075,0,0,1,.613-.255.7.7,0,0,1,.217.022.6.6,0,0,1,.181.122l.045.036a1.68,1.68,0,0,1,.718-.87.768.768,0,0,1,.607-.05,1.165,1.165,0,0,1,.548.5,8.192,8.192,0,0,0,.855,1.083,3.65,3.65,0,0,0,1.1.822c-.111-1.749-.218-3.385-.313-4.866a8.567,8.567,0,0,0-1.956-.518A2.1,2.1,0,0,0,2207.6,917.185Z" transform="translate(-2200.194 -909.517)" fill="#95693f"/><path d="M2186.515,1472.136l-.177-.762a4.1,4.1,0,0,0-.167-.646.462.462,0,0,0-.285-.293.62.62,0,0,0-.389.044,2.258,2.258,0,0,0-.772.678,1.778,1.778,0,0,1-.889.607,2.266,2.266,0,0,1-1.048-.071c-.165-.041-.333-.089-.5-.123-.124,1.627-.25,3.3-.376,4.993a.51.51,0,0,1,.276-.006c.276.065.391.356.437.605.026.143.04.289.054.434a1.4,1.4,0,0,0,.059.36,1.21,1.21,0,0,0,1.283.645,3.507,3.507,0,0,0,1.792-1.128.228.228,0,0,1,.353.046,4.21,4.21,0,0,0,.945,1.182,1.353,1.353,0,0,0,1.226.258c.339-.117.533-.466.756-.723a1.073,1.073,0,0,1,1-.432,1.737,1.737,0,0,1,.888.608,1.812,1.812,0,0,0,.906.62,2.019,2.019,0,0,0,.753,0c-.064-2.106-.122-4.18-.171-6.167a23.415,23.415,0,0,0-1.607-2.47c-.074-.1-.252-.409-.408-.311a.57.57,0,0,0-.163.212c-.068.117-.131.237-.19.357a6.81,6.81,0,0,0-.536,1.548.223.223,0,0,1-.247.161.23.23,0,0,1-.2-.221,1.284,1.284,0,0,0-.3-.69.3.3,0,0,0-.1-.079.355.355,0,0,1-.042-.012c-.027-.005-.029-.006-.008,0h-.036a.2.2,0,0,1-.045.013.383.383,0,0,0-.06.038.658.658,0,0,0-.126.165,20.865,20.865,0,0,0-1.117,2.159.228.228,0,0,1-.412-.054Q2186.693,1472.908,2186.515,1472.136Z" transform="translate(-2179.792 -1410.025)" fill="#95693f"/><path d="M2173.1,1768.532a3.237,3.237,0,0,1-1.724-.782,2.951,2.951,0,0,1-.521-.781,1.288,1.288,0,0,0-.289-.419,2.4,2.4,0,0,1-1.194,1.542.228.228,0,0,1-.308-.081q-.354-.765-.71-1.53-.158-.342-.318-.684a.673.673,0,0,0-.124-.233c-.03-.025-.036-.018-.075.01a1.27,1.27,0,0,0-.3.462q-.169.324-.331.652-.636,1.284-1.166,2.616a.229.229,0,0,1-.376.1,13.667,13.667,0,0,1-2.12-2.475,13.356,13.356,0,0,1-.733-1.239,6.7,6.7,0,0,0-.607-1.116,1.015,1.015,0,0,0-.365-.313.434.434,0,0,0-.445.082,5.228,5.228,0,0,0-.523.491q-.252.253-.494.519-.161.178-.316.362c-.279,3.917-.454,6.425-.454,6.425s.892,2.594,6.15,3.731,7.776-1.173,7.776-1.173-.1-2.388-.253-6.138Z" transform="translate(-2159.604 -1676.253)" fill="#95693f"/><path d="M2208.371,1197.5c-.216-.2-.43-.395-.647-.591a2.392,2.392,0,0,0-.542-.378.676.676,0,0,0-.516-.074c-.19.076-.253.289-.3.469-.149.548-.287,1.1-.43,1.649a.228.228,0,0,1-.412.054l-.244-.4a7.279,7.279,0,0,0-.505.617c-.1.143-.2.29-.3.44a2.4,2.4,0,0,1-.269.381.743.743,0,0,1-.688.241.948.948,0,0,1-.5-.327c-.268-.3-.47-.786-.879-.919a1.012,1.012,0,0,0-.2-.04c-.071,2.236-.168,4.413-.3,6.475a.892.892,0,0,0,.433.143,1.263,1.263,0,0,0,.7-.147,2.554,2.554,0,0,0,.694-.608c.21-.247.385-.519.592-.768a.977.977,0,0,1,.807-.414,1.55,1.55,0,0,1,.748.355.93.93,0,0,0,.637.243l.067-.015.071-.022a.739.739,0,0,0,.121-.056,2.336,2.336,0,0,0,.305-.2c.2-.152.4-.328.613-.467a1.493,1.493,0,0,1,.814-.263,2.9,2.9,0,0,1,1.087.316c.171.073.344.139.52.2-.064-1.523-.136-3.107-.215-4.731Z" transform="translate(-2197.656 -1162.377)" fill="#95693f"/><path d="M2211.515,955.213a5.131,5.131,0,0,1-1.952-1.8,2.765,2.765,0,0,0-.38-.509.374.374,0,0,0-.194-.09.28.28,0,0,0-.174.037,1.511,1.511,0,0,0-.613.9.229.229,0,0,1-.377.1l-.321-.255a.606.606,0,0,0-.438.183,4.961,4.961,0,0,0-.439.474,1.373,1.373,0,0,1-1.014.523.757.757,0,0,1-.208-.043c.026,1.325.049,2.717.068,4.157a.221.221,0,0,1,.149.153,1.464,1.464,0,0,0,1.26,1.073,1.32,1.32,0,0,0,.712-.1,2.863,2.863,0,0,0,.723-.588,2.538,2.538,0,0,1,.816-.59,2.209,2.209,0,0,1,1.23-.011l1.619.3c-.08-1.319-.16-2.6-.238-3.83C2211.669,955.276,2211.592,955.247,2211.515,955.213Z" transform="translate(-2201.057 -941.891)" fill="#95693f"/><path d="M2212.1,1020.321c-.461-.086-.92-.188-1.384-.255a1.262,1.262,0,0,0-1.009.229c-.27.206-.486.473-.748.689a1.782,1.782,0,0,1-.867.419,1.926,1.926,0,0,1-.938-.089,2.033,2.033,0,0,1-.934-.671c.019,1.705.032,3.471.035,5.268a1.409,1.409,0,0,1,1.316.4,3.609,3.609,0,0,1,.211.332.123.123,0,0,0,.156.066c.229-.062.327-.344.448-.519a.949.949,0,0,1,.625-.435,1.172,1.172,0,0,1,.779.159,1.632,1.632,0,0,1,.628.773,2.749,2.749,0,0,1,.375-.663,1.53,1.53,0,0,1,.97-.572,1.126,1.126,0,0,1,1.042.413,4.614,4.614,0,0,1,.29.395c-.115-1.985-.232-3.938-.348-5.818Z" transform="translate(-2201.793 -1002.741)" fill="#95693f"/></g><path d="M2091.694,816.083a29.077,29.077,0,0,0-27.721-22.18l-9.007,1.209c-6.136,4.984-8.123,13.35-9.743,21.088a4.047,4.047,0,0,1,1.354-1.784,40,40,0,0,0-.459,15.705,35.7,35.7,0,0,1,3.352-4.942l.562.973a52.145,52.145,0,0,0,7.7-13.062,36.379,36.379,0,0,0,.42,18.115,14.19,14.19,0,0,1,2.406-4.327,31.848,31.848,0,0,0,2.06,13.388A55.175,55.175,0,0,0,2066,826.684q.681,2.188,1.363,4.375a43.268,43.268,0,0,0,1.061-17.568,65.55,65.55,0,0,0,8.76,12.246,24.284,24.284,0,0,0,.915-5.931,29.52,29.52,0,0,0,3.866,9.734,17.844,17.844,0,0,0,.286-14.615,22.063,22.063,0,0,1,3.469,3.585,9.83,9.83,0,0,0-.872-4.2A9.573,9.573,0,0,0,2091.694,816.083Z" transform="translate(-2034.416 -786.212)" fill="#566e3e"/><path d="M1944.151,742.966a27.777,27.777,0,0,0-12.735,18l1.714-1.056-.057,1.733a21.281,21.281,0,0,0,5.81-5.454l-.536,4.924a74.147,74.147,0,0,1,10.776-11.5c-4.729,6.261-8.449,13.847-7.732,21.66a57.44,57.44,0,0,1,5.631-4.525q.068.893.138,1.787a29.586,29.586,0,0,0,5.454-11.6l.64,5.18a52.427,52.427,0,0,0,7.735-11.085c-1.387,7.545-2.762,15.416-.643,22.789l1.362-2.325a6.051,6.051,0,0,0,.618,4.271,68.758,68.758,0,0,0,3.244-12.131,23.058,23.058,0,0,0-1.293-12.35q5.382,7.085,10.368,14.458a5.5,5.5,0,0,1,1.278-2.608l1.475,3.348a2.18,2.18,0,0,1,2.052,1.1,18.7,18.7,0,0,0-8.578-16.344,18.62,18.62,0,0,1,12.611,7.5l-.239-1.58a20.424,20.424,0,0,1,4.721,5.231,30.828,30.828,0,0,0,1.6-6.12,16.532,16.532,0,0,0,5.368,6.795,13.822,13.822,0,0,0-3.026-9.053,30.406,30.406,0,0,0-7.225-6.484,45.161,45.161,0,0,0-12.88-6.464c-5.1-1.478-9.246-.6-14.321-.263-2.22.147-4.316-.6-6.568-.306A17.831,17.831,0,0,0,1944.151,742.966Z" transform="translate(-1931.416 -737.641)" fill="#668944"/><path d="M1992.61,713.653c-2.513.514-5.259,1.231-6.656,3.383l3.325-.395-1.455,1.769,5.206-1.444-1.778,1.995a40.708,40.708,0,0,1,17.767-1.841c-2.839,1.077-5.887,1.532-8.714,2.642a20.191,20.191,0,0,0-10.212,8.975l2.645-1.647a18.346,18.346,0,0,0-2.87,7.007,92.2,92.2,0,0,0,9.28-6.444l-.927,3.03q6.235-5.5,11.907-11.594a41.838,41.838,0,0,0-2.832,16.331l1.814-1.934a43.213,43.213,0,0,0,2.048,10.019,22.4,22.4,0,0,0,3.184-10.224,3.561,3.561,0,0,0,1.322,1.193,24.333,24.333,0,0,0-.756-13.165,7.165,7.165,0,0,1,2.183,1.774l8.476,8.983q.364-1.384.728-2.769l1.237,2.77,1.11-1.414,5.622,6.55a8.565,8.565,0,0,0-.525-8.32,18.436,18.436,0,0,0-6.319-5.9,45.1,45.1,0,0,0-11.4-5.1,31.633,31.633,0,0,1,21.843,4.489l-1.943-2.725a22.965,22.965,0,0,0,6.552,4.909c-.506-2.5-2.608-4.351-4.752-5.733a31.873,31.873,0,0,0-24.254-4.117c-1.023.241-2.306.913-3.367.759C2008.953,715.3,2004.118,711.3,1992.61,713.653Z" transform="translate(-1980.775 -712.912)" fill="#93ad3f"/><path d="M2180.66,1554.733c-.054,1.389,0,3,1.111,3.843a.877.877,0,0,0,.534.212c.541-.015.723-.724.743-1.265.287-7.477.155-15.013,1.513-22.371.235-1.276,1.537-6.388-.765-6.606-1.97-.186-1.737,5.9-1.86,7.189Q2181.03,1545.213,2180.66,1554.733Z" transform="translate(-2156.978 -1451.084)" fill="#fff" opacity="0.19"/><path d="M2199.792,1410.582a3.859,3.859,0,0,0,.283,2.045,1.812,1.812,0,0,0,1.6.959,1.879,1.879,0,0,0,1.683-1.405,10.219,10.219,0,0,0,.261-3.846c-.052-.887.448-5.608-2.664-4.556C2199.029,1404.431,2199.851,1409.281,2199.792,1410.582Z" transform="translate(-2174.193 -1338.033)" fill="#fff" opacity="0.19"/><path d="M2093.209,720.647a2.8,2.8,0,0,0-2.057.709.7.7,0,0,0-.179.329.617.617,0,0,0,.44.63,1.875,1.875,0,0,0,.827.032,28.578,28.578,0,0,1,9.427.585.682.682,0,0,0,.486-.007.463.463,0,0,0,.051-.68,1.317,1.317,0,0,0-.685-.346A28.185,28.185,0,0,0,2093.209,720.647Z" transform="translate(-2075.815 -719.902)" fill="#fff" opacity="0.19"/><path d="M2074.817,793.042a.577.577,0,0,0-.007.5c.153.226.5.133.743,0,2-1.116,3.255-3.242,5.152-4.532,1.19-.809,2.615-1.275,3.664-2.259.99-.929-1.631-1.079-2.174-.958a9.54,9.54,0,0,0-3.076,1.571A11.524,11.524,0,0,0,2074.817,793.042Z" transform="translate(-2061.143 -778.837)" fill="#fff" opacity="0.19"/><path d="M2234.009,798.006a4.756,4.756,0,0,0,.482,1.954,1.857,1.857,0,0,0,1.634,1.017.524.524,0,0,0,.313-.1.629.629,0,0,0,.165-.314,18.182,18.182,0,0,0,.7-6.64,8.851,8.851,0,0,0-.763-3.188c-1.227-2.517-2.051.861-2.28,1.99A18.542,18.542,0,0,0,2234.009,798.006Z" transform="translate(-2205.199 -782.517)" fill="#fff" opacity="0.19"/><path d="M1994.821,790.67a6.06,6.06,0,0,0-1.3,2.359,1.02,1.02,0,0,0,.186,1,.791.791,0,0,0,.515.169c.889,0,1.458-.905,1.921-1.664a19.689,19.689,0,0,1,6.112-6.03c.195-.128.418-.344.313-.551-.094-.184-.358-.168-.56-.122A12.23,12.23,0,0,0,1994.821,790.67Z" transform="translate(-1987.577 -778.882)" fill="#fff" opacity="0.19"/><path d="M2059.2,927.027a2.513,2.513,0,0,0-.1,1.225.894.894,0,0,0,.884.716,1.024,1.024,0,0,0,.564-.312c.941-.911.924-2.394,1.325-3.64.176-.545,2.27-5.515-.188-4.28C2060.25,921.461,2059.56,925.623,2059.2,927.027Z" transform="translate(-2046.942 -900.822)" fill="#fff" opacity="0.19"/></g><g transform="translate(177.501 106.567)"><path d="M234.854,123.743h83.174s-7.355-13.384-28.764-11.436c-20.447,1.861-21.487-6.584-31.883-7.624S238.319,111.614,234.854,123.743Z" transform="translate(-234.854 -104.592)" fill="#ebebeb"/></g><g transform="translate(123.117 134.849)" opacity="0.5"><path d="M352.44,165.206h45.351s-4.01-7.3-15.684-6.236c-11.148,1.015-11.715-3.59-17.384-4.157S354.33,158.592,352.44,165.206Z" transform="translate(-352.44 -154.763)" fill="#f5f5f5"/></g><g transform="translate(95.801 108.553)" opacity="0.5"><path d="M427.381,97.791h45.351s-4.01-7.3-15.684-6.236c-11.149,1.015-11.716-3.59-17.384-4.157S429.271,91.177,427.381,97.791Z" transform="translate(-427.381 -87.348)" fill="#fafafa"/></g><g transform="translate(22 257.345)" opacity="0.4"><path d="M345.405,414.418c0,.091-70.079.164-156.506.164-86.457,0-156.521-.074-156.521-.164s70.064-.164,156.521-.164C275.326,414.254,345.405,414.328,345.405,414.418Z" transform="translate(-32.379 -414.254)" fill="#263238"/></g><g transform="translate(112.025 165.143)"><path d="M283.891,267.884a25.921,25.921,0,0,1-7.865,2.3c-.019-.093,1.765-.515,3.932-1.151S283.856,267.8,283.891,267.884Z" transform="translate(-276.026 -267.875)" fill="#ebebeb"/></g><g transform="translate(100.474 178.829)"><path d="M331.936,289.767c0,.09-16.623.164-37.122.164s-37.126-.074-37.126-.164,16.619-.164,37.126-.164S331.936,289.677,331.936,289.767Z" transform="translate(-257.687 -289.603)" fill="#ebebeb"/></g><g transform="translate(158.476 185.429)"><path d="M360.56,300.245a88.914,88.914,0,0,1-10.789,0,88.585,88.585,0,0,1,10.789,0Z" transform="translate(-349.771 -300.081)" fill="#ebebeb"/></g><g transform="translate(74.207 216.687)"><path d="M156.239,312.132a1.957,1.957,0,0,1-.413.014c-.27,0-.666-.023-1.177-.011a34.806,34.806,0,0,0-4.311.265,33.119,33.119,0,0,0-23.563,14.384,34.738,34.738,0,0,0-2.206,3.713c-.244.449-.4.814-.528,1.051a1.922,1.922,0,0,1-.2.36,1.894,1.894,0,0,1,.14-.387c.108-.248.247-.622.474-1.082a30.027,30.027,0,0,1,2.128-3.785,32.424,32.424,0,0,1,23.729-14.486,30.143,30.143,0,0,1,4.339-.163c.513.008.91.056,1.179.073A1.991,1.991,0,0,1,156.239,312.132Z" transform="translate(-123.841 -311.987)" fill="#ebebeb"/></g><g transform="translate(189.269 177.081)"><g transform="translate(0)"><path d="M447.815,286.992c0,.091-11.005.164-24.578.164s-24.581-.074-24.581-.164,11-.164,24.581-.164S447.815,286.9,447.815,286.992Z" transform="translate(-398.656 -286.828)" fill="#ebebeb"/></g></g><g transform="translate(247.878 184.237)"><path d="M503.806,298.578a10.406,10.406,0,0,1-1.776.012c-1.095-.026-2.606-.062-4.274-.071s-3.182.011-4.276.025a10.383,10.383,0,0,1-1.776-.031,8.8,8.8,0,0,1,1.767-.2c1.1-.074,2.612-.13,4.287-.122s3.19.082,4.285.168A8.811,8.811,0,0,1,503.806,298.578Z" transform="translate(-491.703 -298.19)" fill="#ebebeb"/></g><g transform="translate(59.891 166.732)"><path d="M4.813,0h0C4.554,0,4.4,0,4.349.007A25.929,25.929,0,0,0,.644,6.85c-1.113,3.014-.661,4.264.43,7.283.446,1.234,1,2.77,1.593,4.842,1.326,4.642,3.454,5.228,5.919,5.906a12.6,12.6,0,0,1,4.179,1.763c1.06.735,3.407,1.093,7.175,1.093,4.366,0,9.858-.488,14.655-.966q1.526-.152,2.954-.3h.01c3.633-.372,6.5-.666,7.946-.666.139,0,.263,0,.371.008l.113,0c2.159,0,5.279-3.172,7.515-5.833a72.677,72.677,0,0,0,4.38-5.833L62.148,1.11l-3.577-.076L53.008.916c.019.341.029.69.03,1.039A19.315,19.315,0,0,1,33.789,21.293h-.041A19.325,19.325,0,0,1,14.457,2.038c0-.63.028-1.267.088-1.893C9.14.047,5.957,0,4.813,0Z" transform="translate(79.704 73.05) rotate(180)" fill="#183658" stroke="rgba(0,0,0,0)" stroke-miterlimit="10" stroke-width="1"/><path d="M47.265,0h0c-.388,0-1.89.191-4.467.569a19.526,19.526,0,0,1,.126,2.175A19.168,19.168,0,0,1,37.3,16.394a19.158,19.158,0,0,1-13.622,5.688h-.043A19.345,19.345,0,0,1,4.731,6.658C1.814,7.139,0,7.44,0,7.44.047,7.6,5.39,25.834,5.5,26.272a41.28,41.28,0,0,0,4.385,3.76,33.6,33.6,0,0,0,4.771,3.423c.624,0,38.94-6.889,39.327-6.958,0-.013-.017-.076-.043-.187-1.01-4.339-6.075-26-6.579-26.3A.255.255,0,0,0,47.265,0Z" transform="translate(218.113 73.839) rotate(180)" fill="#183658" stroke="rgba(0,0,0,0)" stroke-miterlimit="10" stroke-width="1"/><path d="M920.19,1707.09a4.851,4.851,0,1,0,4.851-4.867A4.859,4.859,0,0,0,920.19,1707.09Z" transform="translate(-711.995 -1624.573)" fill="#daeef7" opacity="0.3"/><path d="M789.439,1126.943c1.631-10.754,6.9-13.013,22.5-16.132,17.209-3.442,39.056-14.665,39.056-14.665s37.261-18.257,46.389-20.351,31.574-1.5,50.429-1.347,29.928,5.387,39.505,12.869,26.187,13.168,26.187,13.168l3.017.539a6.506,6.506,0,0,1,5.362,6.4v26.687a6.657,6.657,0,0,1-4.957,6.436l-10.905,2.881h0a1.559,1.559,0,0,1-1.812-1.374,21.908,21.908,0,1,0-43.294,6.594,2.166,2.166,0,0,1-2.132,2.561H858.421a3.228,3.228,0,0,1-3.207-3.646,21.8,21.8,0,1,0-43.279-.521,3.743,3.743,0,0,1-3.711,4.167H793.793a4.751,4.751,0,0,1-4.751-4.751v-13.979A36.962,36.962,0,0,1,789.439,1126.943Z" transform="translate(-787.77 -1074.254)" fill="#c8f3ff"/><path d="M795.094,1368.08H783.208a1.425,1.425,0,0,0-1.314,1.976l1.335,3.186a8.173,8.173,0,0,0,7.538,5.014h4.328a1.534,1.534,0,0,0,1.534-1.534v-7.108A1.534,1.534,0,0,0,795.094,1368.08Z" transform="translate(-562.515 -1332.416)" fill="#ff741a"/><path d="M2473.381,1406.7c-6.546,1-14.085,7.2-14.085,7.2a2.926,2.926,0,0,0,2.326,4.913l12.763-.807a6.3,6.3,0,0,0,5.651-4.532h0C2481.278,1409.191,2480.221,1405.653,2473.381,1406.7Z" transform="translate(-2452.805 -1365.43)" fill="#f3fcff"/><path d="M799.767,1566.4a1.146,1.146,0,0,1,1.1,1.563,7.454,7.454,0,0,1-5.026,4.461l-12.219,3.228a1.747,1.747,0,0,1-2.03-1.54,23.549,23.549,0,0,0-1.441-5.922.982.982,0,0,1,.9-1.333Z" transform="translate(-565.722 -1505.545)" fill="#0082ae"/><path d="M2500.3,1607.073a1.508,1.508,0,0,1,1.526,1.713,24.5,24.5,0,0,0-.056,5.776,4.154,4.154,0,0,1-4.118,4.624h-16.014a5.272,5.272,0,0,1-5.272-5.272v-4.144a2.165,2.165,0,0,1,2.113-2.165Z" transform="translate(-2476.362 -1541.188)" fill="#0082ae"/><path d="M1011.947,1130.386c.213-.117,21.427-11.756,35.5-18.272,13.929-6.451,29.477-5.767,30.148-5.734,1.787-.041,38.986-.848,50.423,2.717,11.521,3.591,26.525,19.948,27.158,20.643l.175.192-4.035,18.933-.432-.024c-11.734-.663-20.717,2.461-25.974,9.031a21.2,21.2,0,0,0-4.469,10.264l-.038.45-42.308,1.088v0l-.488.01-.522.013v0l-58.951,1.15-.008-.507c-.295-19.157-6.351-39.163-6.412-39.363l-.12-.393Zm107.536,37.214a22.282,22.282,0,0,1,4.6-10.316c3.776-4.742,11.418-10.208,26.421-9.474l3.746-17.579c-1.737-1.867-15.931-16.863-26.537-20.17s-45.079-2.767-49.624-2.681v61.282Zm-100.363,2.217,57.958-1.13v-61.314c-2.727-.078-16.648-.16-29.211,5.658-13.033,6.036-32.228,16.487-35.077,18.045C1013.635,1133.964,1018.758,1152.162,1019.121,1169.817Z" transform="translate(-948.751 -1102.314)" fill="#0082ae" opacity="0.5" style="mix-blend-mode:multiply;isolation:isolate"/><path d="M800.391,1579.044a7.454,7.454,0,0,1-5.025,4.461l-12.219,3.228a1.747,1.747,0,0,1-2.03-1.54,23.55,23.55,0,0,0-.38-2.356Z" transform="translate(-565.25 -1516.626)" fill="#feb546" opacity="0.5" style="mix-blend-mode:multiply;isolation:isolate"/><path d="M2502,1655.378c.024.51.061,1.016.116,1.516a4.154,4.154,0,0,1-4.118,4.624h-16.013a5.272,5.272,0,0,1-5.272-5.272v-.868Z" transform="translate(-2476.717 -1583.521)" fill="#0082ae" opacity="0.5" style="mix-blend-mode:multiply;isolation:isolate"/><path d="M1270.57,1597.182a21.887,21.887,0,0,0-.228-3.221,2.121,2.121,0,0,1,2.036-2.442l104.387-2.548a1.682,1.682,0,0,1,1.649,2.155,21.947,21.947,0,0,0-.83,6,22.29,22.29,0,0,0,.369,4.031,2.212,2.212,0,0,1-2.166,2.628H1273.637a3.3,3.3,0,0,1-3.258-3.759A22.33,22.33,0,0,0,1270.57,1597.182Z" transform="translate(-1203.878 -1525.325)" fill="#0082ae"/><path d="M1274.5,1655c0-.018,0-.036,0-.054H1381.77a22.244,22.244,0,0,0,.369,4.03,2.213,2.213,0,0,1-2.171,2.628h-102.4a3.305,3.305,0,0,1-3.265-3.759A22.278,22.278,0,0,0,1274.5,1655Z" transform="translate(-1207.836 -1581.954)" fill="#042e6f"/><path d="M1.141,0H13a1.141,1.141,0,0,1,1.141,1.141v0A1.141,1.141,0,0,1,13,2.282H1.141A1.141,1.141,0,0,1,0,1.141v0A1.141,1.141,0,0,1,1.141,0Z" transform="translate(182.423 33.382)" fill="#ff741a"/><path d="M1.141,0H13a1.141,1.141,0,0,1,1.141,1.141v0A1.141,1.141,0,0,1,13,2.282H1.141A1.141,1.141,0,0,1,0,1.141v0A1.141,1.141,0,0,1,1.141,0Z" transform="translate(110.622 34.524)" fill="#ff741a"/><path d="M1143.154,1148.219l-57.69.545s-3.531-.095-4.011-3.417-.44-17.553-.44-17.553.419-2.857,3.155-2.894c1.663-.022,15.6-1.019,29.157.633a49.614,49.614,0,0,1,29.044,14.156l4.1,4.1S1149.226,1148.162,1143.154,1148.219Z" transform="translate(-949.08 -1117.174)" fill="#042e6f" opacity="0.5"/><path d="M1719.135,1141.916v14.92a3.563,3.563,0,0,1-3.368,3.606l-45.331,1.823a3.05,3.05,0,0,1-2.656-1.307c-.813-1.2-.907-3.172,3.154-5.817,7.064-4.6,25.036-14.548,31.684-15.511,4.232-.613,9.769-.879,13.234-.991A3.228,3.228,0,0,1,1719.135,1141.916Z" transform="translate(-1593.624 -1129.491)" fill="#042e6f" opacity="0.5"/><g transform="translate(175.148 51.715)"><ellipse cx="19.297" cy="19.291" rx="19.297" ry="19.291" transform="matrix(-0.002, -1, 1, -0.002, 0.083, 38.677)" fill="gray"/><ellipse cx="13.422" cy="13.426" rx="13.422" ry="13.426" transform="translate(5.91 5.912)" fill="#9e9da2"/><ellipse cx="8.976" cy="8.979" rx="8.976" ry="8.979" transform="translate(10.356 10.359)" fill="#d8d9dd"/></g><g transform="translate(26.625 51.715)" opacity="0.5"><ellipse cx="19.297" cy="19.291" rx="19.297" ry="19.291" transform="translate(0.083 38.677) rotate(-90.124)" fill="#1a1a1a"/><ellipse cx="13.422" cy="13.426" rx="13.422" ry="13.426" transform="translate(5.91 5.912)" fill="#9e9da2"/><ellipse cx="8.976" cy="8.979" rx="8.976" ry="8.979" transform="translate(10.356 10.36)" fill="#d8d9dd"/></g></g><g transform="translate(242.585 131.005)"><g transform="translate(30.354 67.746)"><path d="M216.006,355.276a28.656,28.656,0,0,1-4.245-.186,7.65,7.65,0,0,1-6.571-6.039,44.839,44.839,0,0,1-.841-9.673,48.652,48.652,0,0,0,11.656,2,48.647,48.647,0,0,0,11.656-2,44.8,44.8,0,0,1-.841,9.673,7.648,7.648,0,0,1-6.57,6.039A28.656,28.656,0,0,1,216.006,355.276Z" transform="translate(-204.346 -339.379)" fill="#3c3c3b"/><g transform="translate(0.001 0)"><path d="M216.007,341.38a48.652,48.652,0,0,1-11.656-2q-.013,1.121.019,2.231a48.619,48.619,0,0,0,11.637,2,48.613,48.613,0,0,0,11.637-2q.031-1.11.019-2.231A48.647,48.647,0,0,1,216.007,341.38Z" transform="translate(-204.347 -339.379)" fill="#575756"/><rect width="3.122" height="2.313" transform="translate(10.098 1.915)" fill="#878787"/><path d="M208.344,342.783h-.659v-2.51l.659.161Z" transform="translate(-205.591 -339.712)" fill="#3c3c3b"/><path d="M237.125,342.783h.659v-2.51l-.659.161Z" transform="translate(-216.559 -339.712)" fill="#3c3c3b"/><path d="M214.406,344.114h-.659V341.6l.659.094Z" transform="translate(-207.849 -340.207)" fill="#3c3c3b"/><path d="M231.064,344.114h.659V341.6l-.659.094Z" transform="translate(-214.301 -340.207)" fill="#3c3c3b"/></g></g><g transform="translate(26.825 73.395)"><g transform="translate(0 47.714)"><path d="M213.117,431.081a5.933,5.933,0,0,0,2.963-.3v-.685l-3.126-.388Z" transform="translate(-204.024 -426.393)" fill="#3c3c3b"/><path d="M210.778,429.687c-5.554,1.476-9.682,1.653-11.983.8l-.073-.87,11.966-1Z" transform="translate(-198.721 -425.989)" fill="#3c3c3b"/><path d="M210.714,427.385c-1.754,1.078-11.007,1.711-11.991.675-.05-.6.915-1.242,2.659-1.943.173-.068.352-.137.541-.208l.407-.15c.183-.065.368-.13.561-.2h0c.13-.046.267-.091.4-.137h0c.189-.062.385-.124.587-.189q.724-.23,1.529-.463C210.082,423.418,210.635,426.423,210.714,427.385Z" transform="translate(-198.721 -424.428)" fill="#634e42"/><path d="M207.707,426.77a.248.248,0,0,1-.339.062l-1.346-.925c.189-.062.385-.124.587-.189l1.037.711A.245.245,0,0,1,207.707,426.77Z" transform="translate(-201.441 -424.908)" fill="#3c3c3b"/><path d="M206.12,427.334a.246.246,0,0,1-.343.04c-.238-.193-.505-.378-.766-.557-.176-.124-.361-.254-.538-.385.183-.065.368-.13.561-.2h0c.085.059.169.121.254.179.267.183.541.375.792.577A.244.244,0,0,1,206.12,427.334Z" transform="translate(-200.864 -425.102)" fill="#3c3c3b"/><path d="M204.559,427.882a.241.241,0,0,1-.2.1.249.249,0,0,1-.147-.05L202.962,427c.173-.068.352-.137.541-.208l1.007.752A.245.245,0,0,1,204.559,427.882Z" transform="translate(-200.301 -425.307)" fill="#3c3c3b"/></g><g transform="translate(18.619 47.714)"><path d="M231.359,431.081a5.932,5.932,0,0,1-2.963-.3v-.685l3.126-.388Z" transform="translate(-228.396 -426.393)" fill="#3c3c3b"/><path d="M228.4,429.687c5.554,1.476,9.682,1.653,11.982.8l.073-.87-11.966-1Z" transform="translate(-228.396 -425.989)" fill="#3c3c3b"/><path d="M228.5,427.385c1.754,1.078,11.007,1.711,11.991.675.049-.6-.916-1.242-2.66-1.943-.173-.068-.351-.137-.541-.208-.13-.049-.267-.1-.408-.15q-.273-.1-.56-.2h0c-.13-.046-.267-.091-.4-.137h0c-.189-.062-.385-.124-.587-.189-.483-.153-.991-.307-1.529-.463C229.129,423.418,228.575,426.423,228.5,427.385Z" transform="translate(-228.434 -424.428)" fill="#634e42"/><path d="M237.6,426.77a.241.241,0,0,0,.2.1.238.238,0,0,0,.137-.042l1.346-.925c-.189-.062-.385-.124-.587-.189l-1.036.711A.245.245,0,0,0,237.6,426.77Z" transform="translate(-231.808 -424.908)" fill="#3c3c3b"/><path d="M239.2,427.334a.246.246,0,0,0,.343.04c.238-.193.505-.378.766-.557.176-.124.361-.254.537-.385q-.273-.1-.56-.2h0c-.085.059-.169.121-.254.179-.267.183-.542.375-.792.577A.243.243,0,0,0,239.2,427.334Z" transform="translate(-232.402 -425.102)" fill="#3c3c3b"/><path d="M240.795,427.882a.242.242,0,0,0,.2.1.246.246,0,0,0,.146-.05l1.255-.936c-.173-.068-.351-.137-.541-.208l-1.007.752A.245.245,0,0,0,240.795,427.882Z" transform="translate(-232.997 -425.307)" fill="#3c3c3b"/></g><path d="M214.468,398.13c.028-.318-.127-2.269-.119-2.59.381-14.559.668-29.083.369-43.646a2.465,2.465,0,0,0-4.862-.436,34.691,34.691,0,0,0-.282,4.932c-.334,6.449-.758,12.893-1.38,19.323q-1,10.32-2.01,20.639c0,.049-.006.1-.009.147A13.32,13.32,0,0,0,214.468,398.13Z" transform="translate(-201.499 -348.818)" fill="#3c3c3b"/><path d="M226.26,396.961c-.028-.317.127-2.269.119-2.59-.382-14.559-.668-29.083-.37-43.646a2.465,2.465,0,0,1,4.863-.436,34.787,34.787,0,0,1,.282,4.932c.334,6.45.758,12.893,1.379,19.322q1,10.321,2.01,20.639c0,.05.006.1.009.147A10.944,10.944,0,0,1,226.26,396.961Z" transform="translate(-208.841 -348.383)" fill="#3c3c3b"/></g><g transform="translate(0 46.598)"><path d="M168.986,314.952l-.661,4.514-3.334-.488c-.451.887-1.982,1-3.189.823l-3.185-.494a19.645,19.645,0,0,1,.115-7.42s5.293.528,5.471.6a2.656,2.656,0,0,1,1.451,1.574l.117.418Z" transform="translate(-156.842 -307.988)" fill="#f2be8a"/><path d="M159.4,313.679a.923.923,0,0,0,1.06-.76l.028-.168a.923.923,0,0,0-.76-1.06l-1.843-.3a.861.861,0,0,0-.99.71l-.057.345a.805.805,0,0,0,.663.925Z" transform="translate(-156.287 -307.798)" fill="#ffcf9f"/><path d="M159,316.843a.922.922,0,0,0,1.075-.758l.028-.167a.925.925,0,0,0-.747-1.059l-2.318-.418a.862.862,0,0,0-1,.708l-.056.343a.8.8,0,0,0,.651.923Z" transform="translate(-155.968 -308.935)" fill="#ffcf9f"/><path d="M159.1,320.028a.923.923,0,0,0,1.06-.76l.028-.168a.923.923,0,0,0-.76-1.06l-1.843-.3a.862.862,0,0,0-.99.71l-.057.345a.805.805,0,0,0,.664.924Z" transform="translate(-156.176 -310.163)" fill="#ffcf9f"/><path d="M159.725,322.92a.738.738,0,0,0,.824-.637l.023-.138a.738.738,0,0,0-.575-.868l-1.415-.233a.688.688,0,0,0-.769.6l-.047.285a.643.643,0,0,0,.5.757Z" transform="translate(-156.634 -311.396)" fill="#ffcf9f"/><path d="M170.076,312.515l-1.429-.223-.957-.126a2.175,2.175,0,0,0-1.343-1.966c-1.49-.735-.664-3.514-.664-3.514.6-1.128-1.805-1.748-1.979.519l-.228,2.575c-.176,3.933,1.62,5,3.577,5.07l3.311.5Z" transform="translate(-158.76 -305.673)" fill="#ffc994"/></g><path d="M213.679,275.823c-.422.054-.838.1-1.26.139a41.493,41.493,0,0,1-9.566-.6c-.139-.024-.284-.043-.422-.066l-.512-.072a10.684,10.684,0,0,0-.241-1.091c-.705-2.513-2.267-4.774-2.924-7.318-1.476-5.738,1.567-10.042,1.23-15.961-.12-2.1,1.453-3.779,1.109-7.739-.555-6.534,1.386-8.1,5.033-10.024a15.382,15.382,0,0,1,7.528-1.682h.047a15.386,15.386,0,0,1,7.529,1.682c3.647,1.929,5.588,3.49,5.033,10.024-.344,3.96,1.23,5.636,1.109,7.739-.338,5.919,2.707,10.223,1.23,15.961-.657,2.544-2.218,4.8-2.923,7.318a10.681,10.681,0,0,0-.242,1.091l-.512.072c-.139.024-.283.042-.422.066a41.49,41.49,0,0,1-9.565.6C214.516,275.926,214.1,275.877,213.679,275.823Z" transform="translate(-171.757 -231.406)" fill="#ededed"/><g transform="translate(80.527 47.46)"><path d="M286.344,316.78a.732.732,0,1,1-.732-.732A.732.732,0,0,1,286.344,316.78Z" transform="translate(-284.523 -310.4)" fill="#ca9e67"/><path d="M286.3,314.483a.732.732,0,1,1-.732-.732A.733.733,0,0,1,286.3,314.483Z" transform="translate(-284.507 -309.545)" fill="#ca9e67"/><path d="M286.13,312.249a.732.732,0,1,1-.732-.732A.732.732,0,0,1,286.13,312.249Z" transform="translate(-284.443 -308.712)" fill="#ca9e67"/><path d="M285.921,309.946a.732.732,0,1,1-.732-.732A.732.732,0,0,1,285.921,309.946Z" transform="translate(-284.365 -307.854)" fill="#ca9e67"/><path d="M285.775,307.779a.732.732,0,1,1-.732-.732A.732.732,0,0,1,285.775,307.779Z" transform="translate(-284.311 -307.047)" fill="#ca9e67"/></g><g transform="translate(66.843 45.224)"><path d="M281.579,310.868l0-.016a.78.78,0,0,1,.513-.978l6.06-1.892a.782.782,0,0,1,.979.513l.005.016a.781.781,0,0,1-.513.978l-6.06,1.892A.781.781,0,0,1,281.579,310.868Z" transform="translate(-269.595 -305.146)" fill="#ffcf9f"/><path d="M280.19,308.81l-.006-.014a.781.781,0,0,1,.412-1.025l5.841-2.488a.781.781,0,0,1,1.025.412l.006.014a.781.781,0,0,1-.412,1.025l-5.841,2.488A.782.782,0,0,1,280.19,308.81Z" transform="translate(-269.067 -304.13)" fill="#ffcf9f"/><path d="M282.3,313.41l0-.015a.78.78,0,0,1,.547-.959l5.547-1.518a.782.782,0,0,1,.96.548l0,.014a.782.782,0,0,1-.548.959l-5.547,1.518A.78.78,0,0,1,282.3,313.41Z" transform="translate(-269.865 -306.242)" fill="#ffcf9f"/><path d="M282.98,316.07l0-.014a.693.693,0,0,1,.557-.807l4.1-.75a.694.694,0,0,1,.807.558l0,.014a.693.693,0,0,1-.557.807l-4.1.749A.693.693,0,0,1,282.98,316.07Z" transform="translate(-270.126 -307.583)" fill="#ffcf9f"/><path d="M262.5,313.112l7.749-2.508c.036-.823.13-1.429.794-1.84a2.208,2.208,0,0,1,.489-.224l1.58-.493.412.622,2.347-.633a14.934,14.934,0,0,1,.778,6.087l-3.111.67a2.265,2.265,0,0,1-1.978-.336l-7.775,2.773Z" transform="translate(-262.502 -305.179)" fill="#f5c08c"/><path d="M277.165,305.609a5.979,5.979,0,0,0,2.091-1.856c.486-.715,2.214.038.794,1.678a5.183,5.183,0,0,1-1.673,1.509,2.684,2.684,0,0,1-.516,3.241l-2.67-2.906C275.3,306.708,276.206,306.032,277.165,305.609Z" transform="translate(-267.229 -303.483)" fill="#ffcf9f"/><path d="M270.139,310.88a3.176,3.176,0,0,1,.647-2.251l1.7-.007,1.028.843c.295,1.305.141,2.817-1.318,3.185h-.008l-9,2.854-.679-2.175Z" transform="translate(-262.502 -305.397)" fill="#ffcf9f"/></g><path d="M227.116,255.37c-.641-2.29-.379-4.948-1.863-6.805a7.151,7.151,0,0,0-2.786-1.927,15.666,15.666,0,0,0-8.13-1.345,11.493,11.493,0,0,0-7.27,3.694,9.1,9.1,0,0,0-2.13,7.755c.26,1.2-.2.585.126,1.762.262,1.549,1.232,4.245.964,5.364-.686,2.871-.912,5.751,1.016,7.986a6.63,6.63,0,0,1-.7-4.247,10.75,10.75,0,0,1,.88-1.9,6.116,6.116,0,0,0,.843.994,5.083,5.083,0,0,0-.325,2.579,7.811,7.811,0,0,0,.765,1.67,2.394,2.394,0,0,1,.284,1.772,3.578,3.578,0,0,0,.464-2.084c-.021-.723-.138-1.444-.1-2.165.011-.213.035-.425.065-.637a4.2,4.2,0,0,1,.739,1.056c.727,1.568.078,3.571.991,5.039a4.684,4.684,0,0,0,3.262,1.778,16.256,16.256,0,0,0,7.029-.242c-.2-1.939-.346-4.041.488-5.757.033.056.056.118.092.173.383.589.91,1.069,1.337,1.626a2.683,2.683,0,0,1,.664,1.94,3.357,3.357,0,0,0-.221-3.135c-.313-.636-.7-1.253-.973-1.9.328-.358.683-.694,1.03-1.035.228.559.485,1.111.719,1.666a6.057,6.057,0,0,1,.547,4.069,7.936,7.936,0,0,0,.632-5.314c-.132-.768-.394-1.362-.582-2.119a12.011,12.011,0,0,0,1.572-5.59c0-.732.817-1.688,1.042-2.385C227.932,256.617,227.425,256.471,227.116,255.37Z" transform="translate(-174.144 -236.544)" fill="#dadada"/><rect width="7.424" height="11.353" transform="translate(38.273 31.255)" fill="#deab7d"/><g transform="translate(24.105 34.761)"><path d="M230.15,369.407c-1.449,1.111-2.058.37-3.3.621a4.05,4.05,0,0,0-1.493.678,2.039,2.039,0,0,1-.251.151v.006a4.311,4.311,0,0,1-3.043.464c-.345-.088-.684-.151-1.016-.2q-.584-.075-1.129-.094a13.494,13.494,0,0,0-2.924.251c-.9.157-1.788.37-2.679.54h-.006c-.414.075-.828.151-1.249.2-2,.251-3.037-.558-4.568-.816a5.8,5.8,0,0,0-2.309.1,7.9,7.9,0,0,0-.86.245,5.76,5.76,0,0,1-4.3-.326,4.187,4.187,0,0,1-.69-.445,3.686,3.686,0,0,0-2.372-.891c-1.2-.013-2.278.414-3.576-.483a472.281,472.281,0,0,0,3.231-51.13v-.339c.006-1.148.013-2.309.013-3.476,0-2.409-.019-4.844-.056-7.328q-.066-4.047-.2-8.245a8.538,8.538,0,0,1,2.039-5.352c.226-.251.458-.5.7-.722a8.547,8.547,0,0,1,3.645-2l4.794-1.575a9.611,9.611,0,0,0,2.773.728,8.584,8.584,0,0,0,1.882-.006,10.123,10.123,0,0,0,2.729-.7l.038-.019h.006l4.794,1.575a8.556,8.556,0,0,1,6.387,8.075q-.14,3.878-.169,7.718v.213q-.038,3.7.025,7.391c.019,1.042.038,2.083.063,3.118C227.477,334.127,229,350.948,230.15,369.407Z" transform="translate(-194.386 -287.714)" fill="#fff"/><path d="M224.39,286.808a12.829,12.829,0,0,1-7.424,0v1.525c1.649,1.141,5.335,1.2,7.424,0Z" transform="translate(-202.799 -286.808)" fill="#f6f6f6"/><rect width="1.882" height="11.206" transform="translate(16.938 1.525)" fill="#f6f6f6"/><path d="M203.258,398.408a1.861,1.861,0,0,1-.113.376,4.1,4.1,0,0,1-.69-.445,3.689,3.689,0,0,0-2.372-.891c.6-11.431,2.7-22.807,2.271-34.245.6,6.758,1.2,13.553.665,20.316a74.617,74.617,0,0,0-.527,8.182,26.9,26.9,0,0,0,.6,4.694A5.114,5.114,0,0,1,203.258,398.408Z" transform="translate(-196.508 -315.27)" fill="#ededed"/><path d="M214.642,403.853a7.537,7.537,0,0,1-.063,1.243,5.786,5.786,0,0,0-2.309.1c-1.531-8.195-1.349-16.646-1.537-25a71.654,71.654,0,0,0,2.867,18.829A19.845,19.845,0,0,1,214.642,403.853Z" transform="translate(-200.476 -321.6)" fill="#ededed"/><path d="M228.336,397.831c-.9.157-1.789.37-2.679.539a27.019,27.019,0,0,0,.546-10.033c-.364-2.723-1.154-5.4-1.324-8.143a36.5,36.5,0,0,1,.42-6.865q.791-6.418,1.587-12.837.047,4.49.088,8.973c.031,2.823.056,5.659.364,8.47C228.065,384.6,230.311,391.507,228.336,397.831Z" transform="translate(-205.731 -314.26)" fill="#ededed"/><path d="M220.44,387.7a25.777,25.777,0,0,1-.029-5.1l.461-7.636c-1.233,4.63-2.475,9.461-1.529,14.158.754,3.741,2.854,7.123,3.485,10.886C223.633,395.871,221.018,391.882,220.44,387.7Z" transform="translate(-203.56 -319.653)" fill="#ededed"/><path d="M236.794,404.039a52.353,52.353,0,0,0-.7,6.563q-.584-.075-1.129-.094a18.563,18.563,0,0,1-.019-4.907c.182-3.488,1.016-6.92,1.18-10.409A24.74,24.74,0,0,1,236.794,404.039Z" transform="translate(-209.44 -327.188)" fill="#ededed"/><path d="M243.544,402.262a4.057,4.057,0,0,0-1.493.677,1.941,1.941,0,0,1-.251.151c-.125-1.9.112-3.883.1-5.8-.038-7.265-3.758-14.4-2.4-21.539.326,5.208,1.983,10.221,3.112,15.309A34.514,34.514,0,0,1,243.544,402.262Z" transform="translate(-211.082 -319.946)" fill="#ededed"/></g><path d="M243.419,320.08c-1.663-2.786-3.244-11.018-5.013-15.09,1.318.107.991,1.1,1.776,2.158a33.273,33.273,0,0,1,3.212,5.327v.213C243.369,315.155,243.382,317.62,243.419,320.08Z" transform="translate(-186.681 -258.821)" fill="#ededed"/><path d="M204.735,305.673c-1.744,4.022-3.45,11.932-5.213,14.912,0-2.409-.019-4.844-.056-7.328a33.337,33.337,0,0,1,3.463-5.854C203.714,306.342,203.418,305.78,204.735,305.673Z" transform="translate(-172.174 -259.075)" fill="#ededed"/><path d="M200.887,294.331a3.53,3.53,0,0,0-4.823,1.286l-9.039,15.61a3.529,3.529,0,1,0,6.108,3.537l9.039-15.611A3.529,3.529,0,0,0,200.887,294.331Z" transform="translate(-167.361 -254.672)" fill="#fff"/><path d="M170.765,322.317l12.764,2.119a3.529,3.529,0,0,0,1.157-6.963l-13.565-2.252Z" transform="translate(-161.481 -262.632)" fill="#fff"/><path d="M235.728,294.331a3.53,3.53,0,0,1,4.823,1.286l9.039,15.61a3.529,3.529,0,1,1-6.108,3.537l-9.039-15.611A3.529,3.529,0,0,1,235.728,294.331Z" transform="translate(-185.028 -254.672)" fill="#fff"/><path d="M264.716,311.6l-13.895,4.657a3.529,3.529,0,1,0,2.223,6.7l12.459-4.189Z" transform="translate(-190.406 -261.283)" fill="#fff"/><g transform="translate(78.734 46.536)"><path d="M286.344,319.113a.732.732,0,1,1-.732-.732A.732.732,0,0,1,286.344,319.113Z" transform="translate(-282.73 -310.345)" fill="#ca9e67"/><path d="M284.141,306.306a.732.732,0,1,1-.732-.732A.732.732,0,0,1,284.141,306.306Z" transform="translate(-281.909 -305.574)" fill="#ca9e67"/><path d="M283.12,308.38a.732.732,0,1,1-.732-.732A.732.732,0,0,1,283.12,308.38Z" transform="translate(-281.529 -306.347)" fill="#ca9e67"/><path d="M282.918,310.714a.732.732,0,1,1-.732-.732A.732.732,0,0,1,282.918,310.714Z" transform="translate(-281.454 -307.216)" fill="#ca9e67"/><path d="M282.918,313.047a.732.732,0,1,1-.732-.732A.731.731,0,0,1,282.918,313.047Z" transform="translate(-281.454 -308.085)" fill="#ca9e67"/><circle cx="0.732" cy="0.732" r="0.732" transform="translate(0 5.694)" fill="#ca9e67"/><path d="M282.918,317.714a.732.732,0,1,1-.732-.732A.732.732,0,0,1,282.918,317.714Z" transform="translate(-281.454 -309.824)" fill="#ca9e67"/><path d="M282.918,320.047a.732.732,0,1,1-.732-.732A.731.731,0,0,1,282.918,320.047Z" transform="translate(-281.454 -310.693)" fill="#ca9e67"/><path d="M283.55,322.225a.732.732,0,1,1-.732-.732A.732.732,0,0,1,283.55,322.225Z" transform="translate(-281.689 -311.505)" fill="#ca9e67"/><path d="M285.656,321.339a.732.732,0,1,1-.732-.732A.732.732,0,0,1,285.656,321.339Z" transform="translate(-282.474 -311.175)" fill="#ca9e67"/></g><path d="M205.644,257.758a2.213,2.213,0,0,0-1.894-.7c-.029.005-.06.007-.088.013-1.3.283-2.039,1.945-1.654,3.713s1.75,2.971,3.049,2.688a1.8,1.8,0,0,0,.215-.063Z" transform="translate(-173.083 -240.954)" fill="#ffc994"/><path d="M239.883,257.071c-.03-.006-.06-.008-.089-.013a2.216,2.216,0,0,0-1.892.7l.373,5.653a1.738,1.738,0,0,0,.213.063c1.3.283,2.663-.921,3.049-2.688S241.182,257.354,239.883,257.071Z" transform="translate(-186.494 -240.954)" fill="#ffc994"/><g transform="translate(28.826 18.459)"><path d="M202.023,261.38a3.944,3.944,0,0,1-.09-.533,4.258,4.258,0,0,0,.078,1.358c.385,1.767,1.75,2.971,3.048,2.688a1.743,1.743,0,0,0,.215-.063l.05-.747A3.241,3.241,0,0,1,202.023,261.38Z" transform="translate(-201.91 -260.833)" fill="#f2bb88"/><path d="M241.807,260.825a3.583,3.583,0,0,1-.1.547,3.709,3.709,0,0,1-3.281,2.727l.048.723a1.748,1.748,0,0,0,.214.063c1.3.283,2.663-.921,3.048-2.688A4.269,4.269,0,0,0,241.807,260.825Z" transform="translate(-215.513 -260.825)" fill="#f2bb88"/></g><path d="M227.379,249.492a6.173,6.173,0,0,1-.062.753l-.829,5.81-.157,1.1-.614,4.348-.025.151a6.778,6.778,0,0,1-2.792,4.636l-2.993,2.221a2.427,2.427,0,0,1-1.431.452h-4.329a2.426,2.426,0,0,1-1.431-.452l-3-2.221a6.79,6.79,0,0,1-2.786-4.636l-.019-.151-.634-4.437-.144-1.016-.828-5.81a5.18,5.18,0,0,1,.54-3.256,3.927,3.927,0,0,1,2.252-1.864,30.011,30.011,0,0,1,7.931-1.387c.094-.006.188-.006.282-.006s.182,0,.276.006a30.017,30.017,0,0,1,7.937,1.387A4.324,4.324,0,0,1,227.379,249.492Z" transform="translate(-174.327 -235.998)" fill="#ffc994"/><path d="M205,262.395a1.757,1.757,0,0,1-.011-.441c.031-.164.05-.335.1-.525s.105-.391.152-.611a2.879,2.879,0,0,0,.085-.722,1.736,1.736,0,0,0-.181-.75,1.192,1.192,0,0,0-.54-.535,1.134,1.134,0,0,0-1.21.144,1.017,1.017,0,0,0-.351.718c0,.19.055.284.082.279s.048-.1.1-.244a1,1,0,0,1,.374-.481.807.807,0,0,1,.8-.017,1.015,1.015,0,0,1,.438.9,4.579,4.579,0,0,1-.149,1.024.38.38,0,0,0-.035-.021.695.695,0,0,0-.915.858c.069.184.19.24.241.205s.067-.136.1-.244a.727.727,0,0,1,.178-.326.715.715,0,0,1,.337-.156l.04-.008c-.028.166-.04.335-.053.491a1.857,1.857,0,0,0,.078.541,1.158,1.158,0,0,0,.441.648.5.5,0,0,0,.2.088c.048.011.075.008.082-.007C205.428,263.134,205.077,262.951,205,262.395Z" transform="translate(-173.509 -241.574)" fill="#dba97b"/><path d="M240.972,258.955a1.134,1.134,0,0,0-1.21-.144,1.192,1.192,0,0,0-.54.535,1.736,1.736,0,0,0-.181.75,2.878,2.878,0,0,0,.085.722c.046.22.11.424.152.611s.073.361.1.525a1.729,1.729,0,0,1-.011.441c-.074.556-.425.739-.386.808.008.015.035.018.083.007a.5.5,0,0,0,.2-.088,1.155,1.155,0,0,0,.441-.648,1.856,1.856,0,0,0,.078-.541c-.013-.156-.025-.324-.053-.491.013,0,.026,0,.039.008a.592.592,0,0,1,.515.483c.032.109.04.208.1.244s.172-.021.241-.205a.695.695,0,0,0-.915-.858.38.38,0,0,0-.035.021,4.62,4.62,0,0,1-.149-1.024,1.015,1.015,0,0,1,.438-.9.806.806,0,0,1,.8.017,1,1,0,0,1,.375.481c.055.145.065.241.1.244s.085-.088.082-.279A1.017,1.017,0,0,0,240.972,258.955Z" transform="translate(-186.896 -241.574)" fill="#dba97b"/><path d="M226.406,237.794a8.8,8.8,0,0,0-1.559-1.926,12.475,12.475,0,0,0-6.51-3.017l.135-.032c.161-.028.316-.07.461-.087l.212-.035.2-.018a2.766,2.766,0,0,1,.348-.017,1.517,1.517,0,0,1,.27.008l.24.018s-.064-.055-.191-.151a1.25,1.25,0,0,0-.248-.153,1.966,1.966,0,0,0-.357-.154l-.218-.069c-.077-.02-.157-.033-.241-.05a3.6,3.6,0,0,0-.539-.055,4.948,4.948,0,0,0-1.2.13c-.141.034-.275.071-.406.109-.043-.095-1.261-.931-1.2-.784a3.184,3.184,0,0,1,.17.509c.016.057.033.127.053.2a3.021,3.021,0,0,0-.746-.282,2.532,2.532,0,0,0-.892-.058l-.178.025-.157.043a1.115,1.115,0,0,0-.239.087c-.126.06-.19.1-.19.1l.206.043a1.6,1.6,0,0,1,.227.059l.136.039.147.058a4.839,4.839,0,0,1,.671.324l.025.015a14.236,14.236,0,0,0-4.87,1.129,9.653,9.653,0,0,0-4.327,3.548,8.711,8.711,0,0,0-1.326,5.072l.334,5.127a2.213,2.213,0,0,1,1.894.7l.316-4.784a3.8,3.8,0,0,1,2.894-3.448c.227-.056.456-.107.684-.158,2.889.2,5.239,2.247,8.143,2.493-.557-.294-1.127-.639-1.709-.986,2.593.816,5.186,1.48,7.78.589a3.8,3.8,0,0,1,.347.961,3.614,3.614,0,0,1,.078.549l.315,4.782a2.216,2.216,0,0,1,1.892-.7l.333-5.127A8.8,8.8,0,0,0,226.406,237.794Z" transform="translate(-173.977 -231.439)" fill="#3c3c3b"/><path d="M223.017,263.367c-.507.041-1.149.142-1.844.146-.132,0-.26-.008-.388-.014a.1.1,0,0,0-.024-.009c-2.333-.517-.945-3.842-.829-6.3-.751,1.619-2.728,5.175-.83,7.113a3.1,3.1,0,0,0,2.071.584,4.11,4.11,0,0,0,2.071-.584c.472-.291.722-.575.674-.752S223.522,263.323,223.017,263.367Z" transform="translate(-179.191 -241.01)" fill="#dba97b"/><path d="M210.046,258c2.68-.978,4.817-1.871,6.686-1.51-.056.359.142,1.964-.154,2.228C214.569,256.907,211.422,258.817,210.046,258Z" transform="translate(-176.115 -240.721)" fill="#dba97b"/><path d="M231.933,258.053c-2.682-.978-4.892-1.775-6.761-1.414.056.36-.3,1.818,0,2.082C227.18,256.91,230.556,258.87,231.933,258.053Z" transform="translate(-181.706 -240.774)" fill="#dba97b"/><g transform="translate(30.951 2.359)" opacity="0.2"><path d="M222.9,243.254c1.239.38,2.942.353,3.638-.922-2.68,1.451-5.368-2.416-8.12-.928,1.368.11,2.492.966,3.706,1.54-1.872-.747-3.754-1.431-5.81-.971,3.922.676,8.257,4.966,12.235,2.211C226.555,244.616,224.723,243.976,222.9,243.254Z" transform="translate(-209.403 -237.36)" fill="#dadada" style="mix-blend-mode:screen;isolation:isolate"/><path d="M228.723,235.165a10.572,10.572,0,0,1,7.415,10.18A8.723,8.723,0,0,0,228.723,235.165Z" transform="translate(-214.025 -235.165)" fill="#dadada" style="mix-blend-mode:screen;isolation:isolate"/><path d="M238.513,249.261a8.281,8.281,0,0,0-1.741-7.138A31.141,31.141,0,0,1,238.513,249.261Z" transform="translate(-217.024 -237.757)" fill="#dadada" style="mix-blend-mode:screen;isolation:isolate"/><path d="M205.343,244.316a11.9,11.9,0,0,1,3.867-6.814A6.625,6.625,0,0,0,205.343,244.316Z" transform="translate(-205.298 -236.036)" fill="#dadada" style="mix-blend-mode:screen;isolation:isolate"/></g><g transform="translate(42.578 16.679)" opacity="0.3"><path d="M224.752,263.265a.506.506,0,0,1-.6-.349c-.009-.058-.024-.39-.045-.86s-.081-1.071-.13-1.677c-.025-.3-.051-.6-.075-.883s-.029-.544-.041-.768c-.022-.445-.037-.741-.037-.741s.08.284.2.713c.062.214.133.464.21.732l.268.841c.179.575.37,1.166.5,1.63s.206.8.215.861A.481.481,0,0,1,224.752,263.265Z" transform="translate(-223.828 -257.988)" fill="#fff"/></g><g transform="translate(35.945 15.945)"><path d="M215.821,257.938a1.294,1.294,0,1,1-1.282-1.119A1.209,1.209,0,0,1,215.821,257.938Z" transform="translate(-213.256 -256.819)" fill="#936037"/><path d="M215.58,258.214a.691.691,0,1,1-.69-.654A.673.673,0,0,1,215.58,258.214Z" transform="translate(-213.608 -257.095)" fill="#3c3c3b"/><path d="M214.415,259.115a.242.242,0,0,1-.242.242h0a.242.242,0,0,1-.242-.242h0a.242.242,0,0,1,.242-.242h0a.242.242,0,0,1,.242.242Z" transform="translate(-213.507 -257.584)" fill="#fff"/><path d="M216.364,257.468a.341.341,0,0,1-.341.341h0a.341.341,0,0,1-.341-.341h0a.341.341,0,0,1,.341-.341h0a.341.341,0,0,1,.341.341Z" transform="translate(-214.16 -256.934)" fill="#fff"/></g><path d="M216.336,257.938c-.084.069-.205.013-.357-.119a5.344,5.344,0,0,0-.633-.513,4.732,4.732,0,0,0-2.511-.546,10,10,0,0,0-2.793.762c-1.28.445-1.252-.535-.338-.915a10.2,10.2,0,0,1,3.168-.991c1.282-.211,2.919-.129,3.487.54C216.638,256.5,216.418,257.87,216.336,257.938Z" transform="translate(-175.743 -240.387)" fill="#3c3c3b"/><g transform="translate(45.52 15.945)"><path d="M231.081,257.938a1.294,1.294,0,1,1-1.283-1.119A1.209,1.209,0,0,1,231.081,257.938Z" transform="translate(-228.517 -256.819)" fill="#936037"/><path d="M230.841,258.214a.691.691,0,1,1-.69-.654A.673.673,0,0,1,230.841,258.214Z" transform="translate(-228.869 -257.095)" fill="#3c3c3b"/><path d="M229.675,259.115a.242.242,0,0,1-.242.242h0a.242.242,0,0,1-.242-.242h0a.242.242,0,0,1,.242-.242h0a.242.242,0,0,1,.242.242Z" transform="translate(-228.768 -257.584)" fill="#fff"/><path d="M231.734,257.46a.355.355,0,0,1-.354.355h0a.355.355,0,0,1-.356-.355h0a.355.355,0,0,1,.356-.356h0a.355.355,0,0,1,.354.356Z" transform="translate(-229.451 -256.925)" fill="#fff"/></g><path d="M225.1,257.938c.083.069.2.013.356-.119a5.393,5.393,0,0,1,.633-.513,4.732,4.732,0,0,1,2.511-.546,9.99,9.99,0,0,1,2.793.762c1.281.445,1.252-.535.338-.915a10.211,10.211,0,0,0-3.168-.991c-1.283-.211-2.92-.129-3.488.54C224.8,256.5,225.019,257.87,225.1,257.938Z" transform="translate(-181.665 -240.387)" fill="#3c3c3b"/><path d="M228.6,266.816a32.908,32.908,0,0,1-2.089,5.082,8.281,8.281,0,0,0-.709-.715c1.186-3.143,2.541-6.243,2.19-9.531-.245-2.271-1.311-4.4-1.487-6.688-.113-1.505.112-3.187-.822-4.367-.841-1.066-1.757-.163-2.522-1.286s-.176-3.363-1.01-4.411a3.029,3.029,0,0,0-2.892-1.236c-1.255.013-4.179.879-5.434.885s-3.112-.779-4.367-.791c-1.343-.007-3.162-.188-4,.866s-.031,3.017-.784,4.129-2.152.778-3,1.844c-.935,1.18-.7,2.862-.816,4.367-.176,2.284-1.242,4.417-1.493,6.688-.351,3.319,1.035,6.444,2.227,9.619-.245.227-.477.471-.7.722a34.994,34.994,0,0,1-2.133-5.176c-1.474-5.735,1.569-10.039,1.23-15.963-.119-2.1,1.456-3.777,1.111-7.736-.552-6.538,1.387-8.093,5.032-10.026a15.367,15.367,0,0,1,7.529-1.682h.05a15.369,15.369,0,0,1,7.529,1.682c3.645,1.933,5.584,3.488,5.032,10.026-.345,3.96,1.23,5.635,1.1,7.736C227.037,256.777,230.08,261.081,228.6,266.816Z" transform="translate(-171.756 -231.405)" fill="#fff"/><path d="M204.492,242.461c.134.932.612,1.892.269,2.769-.248.634-.881,1.061-1.117,1.7-.371,1,.343,2.193-.107,3.163a5.1,5.1,0,0,1-.7.927,1.262,1.262,0,0,0-.323,1.073,2.007,2.007,0,0,1,.994-1.122,4.5,4.5,0,0,0,1.235-.9c.733-.917.375-2.342.994-3.339.476-.766,1.446-1.136,1.872-1.931a2.668,2.668,0,0,0,.1-1.942c-.172-.642-.463-1.247-.636-1.889a5.376,5.376,0,0,1,.427-3.855,8.158,8.158,0,0,0-2.274,2.268A4.63,4.63,0,0,0,204.492,242.461Z" transform="translate(-173.298 -233.532)" fill="#ededed"/><path d="M219.141,244.37c-.5-1.047.006-2.328-.354-3.429a14.652,14.652,0,0,0-.686-1.373,3.333,3.333,0,0,1,.065-2.818,3.538,3.538,0,0,0,1.324,2.352,5.267,5.267,0,0,1,1.646,2.188c.229.834-.013,1.761.312,2.561a3.888,3.888,0,0,0,2.134,1.763,7.811,7.811,0,0,1-2.468.1A2.644,2.644,0,0,1,219.141,244.37Z" transform="translate(-179.012 -233.397)" fill="#ededed"/><path d="M233.875,242.642a10.669,10.669,0,0,0,.294,2.107c.291.863.963,1.552,1.294,2.4.469,1.2.21,2.627.809,3.773a5.59,5.59,0,0,0,2.594,2.1,5.008,5.008,0,0,1-1.695-3.814c.015-.8.224-1.591.226-2.392a9.257,9.257,0,0,0-.321-2.106,7.4,7.4,0,0,0-.841-2.362c-.959-1.493-2.842-2.1-4.073-3.383A6.7,6.7,0,0,1,233.875,242.642Z" transform="translate(-184.355 -234.221)" fill="#ededed"/><path d="M223.708,240.7a3.733,3.733,0,0,1,.779,2.151,2,2,0,0,1-1.17,1.85,2.266,2.266,0,0,1-.816-1.735c-.052-.659.026-1.328-.089-1.979-.1-.569-.349-1.1-.472-1.668a1.914,1.914,0,0,1,.276-1.65,2.584,2.584,0,0,0,.458,1.638C222.98,239.8,223.374,240.232,223.708,240.7Z" transform="translate(-180.522 -233.741)" fill="#ededed"/><path d="M201.957,249.338a.941.941,0,0,1-.146-1.871,82.109,82.109,0,0,1,25.712,0,.941.941,0,1,1-.294,1.859,80.217,80.217,0,0,0-25.123,0A.913.913,0,0,1,201.957,249.338Z" transform="translate(-172.751 -237.012)" fill="#3c3c3b"/><path d="M201.957,246.576a.941.941,0,0,1-.146-1.87,82.07,82.07,0,0,1,25.712,0,.941.941,0,0,1-.294,1.859,80.18,80.18,0,0,0-25.123,0A.986.986,0,0,1,201.957,246.576Z" transform="translate(-172.751 -235.983)" fill="#3c3c3b"/><g transform="translate(37.644 25.379)"><path d="M220.483,272.953c-1.789.1-3.14.072-4.04-.8.264,2.023,1.357,3.029,4.04,3.174,2.683-.146,3.776-1.151,4.04-3.174C223.623,273.025,222.272,273.051,220.483,272.953Z" transform="translate(-216.143 -271.966)" fill="#3c3c3b"/><path d="M220.38,274.256a6.333,6.333,0,0,1-3.872-1.021l-.341-1.083a14.19,14.19,0,0,0,8.427,0l-.342,1.083A6.331,6.331,0,0,1,220.38,274.256Z" transform="translate(-216.04 -271.966)" fill="#fff"/><path d="M220.3,273.028c-.092,0-.184,0-.277,0a8.846,8.846,0,0,1-3.743-.578c-.112-.056-.221-.1-.318-.161l0,0v-.429l.176.077c.092.042.2.069.3.108a11.279,11.279,0,0,0,3.582.366l.277.005.277-.005a11.279,11.279,0,0,0,3.582-.366c.106-.039.213-.066.3-.108l.176-.077v.429l0,0c-.1.06-.205.1-.317.161a8.851,8.851,0,0,1-3.743.578C220.489,273.027,220.4,273.028,220.3,273.028Z" transform="translate(-215.965 -271.855)" fill="#c4986e"/></g><path d="M218.812,269.453h-.077c-1.031,0-4.665.023-5.968,1.964a3.763,3.763,0,0,0-.706,1.382,8.964,8.964,0,0,0,.035,3.842c2.025,2.419,4.385,3.6,6.715,3.605s4.689-1.186,6.715-3.605a8.953,8.953,0,0,0,.035-3.842,3.753,3.753,0,0,0-.706-1.382c-1.3-1.941-4.935-1.966-5.968-1.964Zm-.454,5.023c-.685-.022-1.025.83-1.607,1.138-.682.36-2.19-.586-2.195-.589a1.815,1.815,0,0,1-.245-2.921,2.863,2.863,0,0,1,1-.467,18.123,18.123,0,0,1,7,0,2.86,2.86,0,0,1,1,.467,1.808,1.808,0,0,1-.106,2.921s-1.709.948-2.392.589c-.583-.307-.865-1.159-1.55-1.138Z" transform="translate(-176.798 -245.581)" fill="#3c3c3b"/><path d="M216.163,260.961c0,.727-.951,1.318-2.124,1.318s-2.124-.59-2.124-1.318.951-1.316,2.124-1.316S216.163,260.234,216.163,260.961Z" transform="translate(-176.812 -241.927)" fill="#ffc994"/><path d="M231.4,260.961c0,.727-.951,1.318-2.124,1.318s-2.124-.59-2.124-1.318.951-1.316,2.124-1.316S231.4,260.234,231.4,260.961Z" transform="translate(-182.488 -241.927)" fill="#ffc994"/></g><g transform="translate(26.072 257.125)"><path d="M448.977,415.124c-25.591,19.177-59.932,21.9-91.8,19.219s-63.536-10.017-95.459-8.122c-18.079,1.074-35.93,5.1-54.038,5.423s-37.323-3.658-50.417-16.171Z" transform="translate(-157.265 -415.124)" fill="#f9f9f9"/></g></g></svg>