<svg xmlns="http://www.w3.org/2000/svg" width="314.776" height="172.768" viewBox="0 0 314.776 172.768"><g transform="translate(-30 -147.075)" opacity="0.9"><path d="M-2451.939,16.416h0c-.219,0-.35,0-.391-.006a21.89,21.89,0,0,1-3.128-5.777c-.939-2.545-.558-3.6.363-6.148.376-1.042.845-2.338,1.345-4.088,1.12-3.919,2.916-4.413,5-4.986a10.637,10.637,0,0,0,3.528-1.488c.895-.621,2.876-.923,6.058-.923,3.686,0,8.322.412,12.372.816q1.289.128,2.494.253h.009c3.067.314,5.489.562,6.708.562.117,0,.222,0,.313-.007l.1,0c1.823,0,4.456,2.678,6.344,4.925a61.357,61.357,0,0,1,3.7,4.924l3.6,11.008-3.02.064-4.7.1c.016-.288.025-.583.025-.877a16.307,16.307,0,0,0-16.25-16.326h-.035A16.315,16.315,0,0,0-2443.8,14.7c0,.532.024,1.07.074,1.6C-2448.287,16.376-2450.974,16.416-2451.939,16.416Z" transform="translate(2690.108 285.995)" fill="#183658" stroke="rgba(0,0,0,0)" stroke-miterlimit="10" stroke-width="1"/><path d="M556.143,578.754v-41.6h-14.2V506.462H528.273v13.665H516.964V488.64H498.448v28.791l-5.539.185v-29.03h-6.462v-12.37h-3.877v-8.308H467.43v8.308h-3.877v12.37H457.09v15.726l-2.982.185-.9-46.589h-19.94v24.784l-7.016.185V444.14h-2.4v-8.175H402.808v8.175h-2.4v52.2h-4.431V480.065h-3.693v-7.959H386.93V448.873h-7.755v23.233h-5.354v7.959h-3.693V507.6h-2.585l-2.031-.027V475.671l-54.651.522v71.845h-4.616v-9.416H289.628v18.094h-4.8v-6.647H274.3v13.478H263.78v15.207Z" transform="translate(-214.864 -261.857)" fill="#e6ebf7" opacity="0.5" style="mix-blend-mode:multiply;isolation:isolate"/><path d="M225.239,1167.059s-6.923-39.948-9.723-44.073c-3.869-5.7-8.679,11.794-8.914,10.256-2.216-14.521-1.752-32.837-12.115-35.612-5.891-1.578.389,13.679-.342,17.609s-10.531-10.1-16.566-17.528-9.731-3.328-6.232,5.679c3.383,8.71,15.638,18.916,12.895,19.79s-18.126-11.26-20.445-6.788c-2.842,5.483,20.854,15.161,18.477,16.253s-13.666-4.041-13.666.326,15.6,5.459,15.193,7.348c-.657,3.058-10.456-4.771-11.221-.528-.783,4.339,13.3,4.669,12.81,8.063-.283,1.95-3.83-.091-4.472,2.59-1.463,6.115,20.731,14.683,20.731,14.683Z" transform="translate(-125.105 -851.076)" fill="#8196b6" opacity="0.5"/><path d="M204.795,1491.695c-2.817-3.664-19.455-24.16-29.526-27.431-11.117-3.611-.639,10.731-.639,10.731s-19.721-21.638-26.958-19.687c-6.634,1.788,0,15.2,0,15.2s-7.472-7.427-16.532-7.427c-8.818,0,6.4,27.2,7.212,28.614Z" transform="translate(-93.617 -1174.678)" fill="#042e6f" opacity="0.2"/><g transform="translate(30 263.574)"><path d="M179.6,1647a5.341,5.341,0,0,0-.188,2.293,4.114,4.114,0,0,0,.831,1.857,4.418,4.418,0,0,1-1.862-1.3,4.355,4.355,0,0,1-1.1-3.17c.2-1.439,1.388-2.139,1.88-1.719S179.674,1646.247,179.6,1647Z" transform="translate(-167.353 -1608.11)" fill="#042e6f"/><path d="M249.032,1671.941a5.345,5.345,0,0,0-.188,2.294,4.115,4.115,0,0,0,.831,1.857,4.419,4.419,0,0,1-1.862-1.3,4.357,4.357,0,0,1-1.1-3.17c.2-1.439,1.388-2.139,1.881-1.719S249.107,1671.192,249.032,1671.941Z" transform="translate(-229.538 -1630.451)" fill="#042e6f"/><path d="M319.582,1703.5a5.343,5.343,0,0,0-.188,2.293,4.114,4.114,0,0,0,.831,1.857,4.417,4.417,0,0,1-1.862-1.3,4.357,4.357,0,0,1-1.1-3.17c.2-1.439,1.388-2.139,1.881-1.719S319.658,1702.747,319.582,1703.5Z" transform="translate(-292.723 -1658.711)" fill="#042e6f"/><path d="M160.265,1705.788a4.924,4.924,0,0,1,1.137-1.8,3.781,3.781,0,0,1,1.645-.9,4.071,4.071,0,0,0-2.094-.087,4,4,0,0,0-2.577,1.717c-.657,1.17-.167,2.354.43,2.32C159.407,1707.02,159.9,1706.382,160.265,1705.788Z" transform="translate(-150.183 -1660.107)" fill="#042e6f"/><path d="M232.488,1731.438a4.926,4.926,0,0,1,1.137-1.8,3.78,3.78,0,0,1,1.645-.9,4.07,4.07,0,0,0-2.094-.087,4,4,0,0,0-2.577,1.717c-.657,1.17-.167,2.354.43,2.32C231.63,1732.671,232.127,1732.032,232.488,1731.438Z" transform="translate(-214.866 -1683.08)" fill="#042e6f"/><path d="M120.519,1660.719a3.169,3.169,0,0,0,.3,1.331,2.432,2.432,0,0,0,.8.9,2.615,2.615,0,0,1-1.284-.4,2.579,2.579,0,0,1-1.188-1.6c-.145-.849.406-1.458.759-1.308S120.429,1660.282,120.519,1660.719Z" transform="translate(-115.309 -1621.351)" fill="#042e6f"/><path d="M109.005,1688.442a3.155,3.155,0,0,1,.95-.977,2.422,2.422,0,0,1,1.152-.349,2.616,2.616,0,0,0-1.3-.332,2.565,2.565,0,0,0-1.844.737c-.566.648-.415,1.456-.035,1.514S108.7,1688.767,109.005,1688.442Z" transform="translate(-104.976 -1645.673)" fill="#042e6f"/><g transform="translate(13.94 3.407)"><path d="M222.949,1332.975a136.95,136.95,0,0,1,17.39,42.679h.869a139.355,139.355,0,0,0-17.639-42.477c-1.869-2.932-3.888-6.409-7.389-7.552-.067-.022-.093.081-.029.105C219.348,1326.939,221.2,1330.234,222.949,1332.975Z" transform="translate(-216.114 -1325.622)" fill="#042e6f"/></g><g transform="translate(2.946 19.298)"><path d="M144.385,1511.993a167.479,167.479,0,0,0-33.365-34.117c-.13-.1-.305.129-.175.229a165.664,165.664,0,0,1,32.67,33.887Z" transform="translate(-110.8 -1477.852)" fill="#042e6f"/></g><path d="M251.485,1299.065a5.753,5.753,0,0,0-1.235,2.153,4.45,4.45,0,0,0-.039,2.2,4.788,4.788,0,0,1-1.224-2.126,4.706,4.706,0,0,1,.374-3.605c.85-1.316,2.336-1.449,2.624-.811A2.555,2.555,0,0,1,251.485,1299.065Z" transform="translate(-231.446 -1296.136)" fill="#042e6f"/><path d="M234.121,1405.739a5.728,5.728,0,0,1,2.121-1.281,4.4,4.4,0,0,1,2.188-.083,4.768,4.768,0,0,0-2.142-1.187,4.663,4.663,0,0,0-3.585.446c-1.294.879-1.4,2.372-.756,2.648C232.584,1406.577,233.436,1406.171,234.121,1405.739Z" transform="translate(-216.01 -1391.538)" fill="#042e6f"/><path d="M261.987,1453.059a5.728,5.728,0,0,1,2.121-1.281,4.406,4.406,0,0,1,2.188-.083,4.77,4.77,0,0,0-2.142-1.186,4.662,4.662,0,0,0-3.585.446c-1.294.879-1.4,2.372-.756,2.648C260.45,1453.9,261.3,1453.491,261.987,1453.059Z" transform="translate(-240.967 -1433.919)" fill="#042e6f"/><path d="M162.59,1562.818a5.727,5.727,0,0,1,2.121-1.281,4.405,4.405,0,0,1,2.188-.083,4.769,4.769,0,0,0-2.142-1.187,4.663,4.663,0,0,0-3.585.446c-1.294.879-1.4,2.372-.756,2.649C161.053,1563.657,161.9,1563.25,162.59,1562.818Z" transform="translate(-151.946 -1532.22)" fill="#042e6f"/><path d="M111.808,1517.928a5.726,5.726,0,0,1,2.121-1.281,4.407,4.407,0,0,1,2.188-.083,4.769,4.769,0,0,0-2.142-1.186,4.663,4.663,0,0,0-3.585.446c-1.294.879-1.4,2.372-.756,2.649C110.271,1518.767,111.123,1518.36,111.808,1517.928Z" transform="translate(-106.465 -1492.016)" fill="#042e6f"/><path d="M289.029,1352.4a5.742,5.742,0,0,0-1.558,1.931,4.448,4.448,0,0,0-.384,2.163,4.794,4.794,0,0,1-.875-2.293,4.7,4.7,0,0,1,.935-3.5c1.046-1.165,2.534-1.061,2.719-.386C290.069,1350.99,289.55,1351.78,289.029,1352.4Z" transform="translate(-264.919 -1343.883)" fill="#042e6f"/><path d="M321.3,1401.833a5,5,0,0,0-2.25,1.483,3.841,3.841,0,0,0-.759,2.249,6.366,6.366,0,0,1-.855-2.937c-.089-1.548.827-3.2,1.635-3.5,1.5-.849,3.409-.092,3.566.742C322.817,1400.706,322.05,1401.364,321.3,1401.833Z" transform="translate(-292.913 -1387.712)" fill="#042e6f"/><path d="M363.167,1481.973a4.989,4.989,0,0,0-2.467,1.083,3.837,3.837,0,0,0-1.125,2.088,6.37,6.37,0,0,1-.35-3.039c.172-1.541,1.352-3.014,2.2-3.178,1.616-.584,3.376.485,3.391,1.333C364.852,1481.119,363.985,1481.638,363.167,1481.973Z" transform="translate(-330.278 -1459.367)" fill="#042e6f"/><path d="M243.221,1544.991a4.076,4.076,0,0,0-1.746,1.335,3.134,3.134,0,0,0-.49,1.872,5.188,5.188,0,0,1-.862-2.34,3.187,3.187,0,0,1,1.131-2.944c1.168-.776,2.768-.269,2.943.4C244.392,1543.988,243.8,1544.567,243.221,1544.991Z" transform="translate(-223.655 -1516.474)" fill="#042e6f"/><path d="M190.486,1325.89a3.4,3.4,0,0,1,1.2-.851,2.613,2.613,0,0,1,1.291-.145,2.825,2.825,0,0,0-1.319-.608,2.767,2.767,0,0,0-2.1.421c-.727.577-.723,1.464-.332,1.6S190.1,1326.176,190.486,1325.89Z" transform="translate(-177.855 -1320.974)" fill="#042e6f"/><path d="M206.108,1294.3a3.423,3.423,0,0,0,.06,1.472,2.63,2.63,0,0,0,.674,1.114,2.824,2.824,0,0,1-1.285-.677,2.787,2.787,0,0,1-.95-1.927c.011-.93.714-1.469,1.06-1.241S206.1,1293.818,206.108,1294.3Z" transform="translate(-191.862 -1292.989)" fill="#042e6f"/><path d="M84.1,1481.291a3.4,3.4,0,0,1,1.2-.851,2.613,2.613,0,0,1,1.291-.145,2.827,2.827,0,0,0-1.319-.608,2.767,2.767,0,0,0-2.1.421c-.727.577-.723,1.464-.332,1.6S83.716,1481.577,84.1,1481.291Z" transform="translate(-82.577 -1460.152)" fill="#042e6f"/><path d="M102.879,1448.99a3.423,3.423,0,0,0-.06,1.472,2.635,2.635,0,0,0,.58,1.166,2.83,2.83,0,0,1-1.225-.781,2.789,2.789,0,0,1-.79-2c.087-.926.832-1.405,1.158-1.149S102.908,1448.509,102.879,1448.99Z" transform="translate(-99.405 -1431.488)" fill="#042e6f"/><path d="M128.6,1689.366a41.921,41.921,0,0,1,6.872,1.23,82.737,82.737,0,0,1,11.964,4.375c1.914.834,3.841,1.657,5.718,2.572a20.663,20.663,0,0,1,2.57,1.4,28.543,28.543,0,0,1,3,2.453l-.894.027a29.689,29.689,0,0,0-5.966-3.891c-7.377-3.554-15.039-7.2-23.267-8.1A.034.034,0,0,1,128.6,1689.366Z" transform="translate(-123.763 -1647.988)" fill="#042e6f"/></g><path d="M628.841,1129.352c2.184-1.871,3.5-3.856,3.166-5.83-.6-3.522-5.6-1.258-5.793-3.8-.331-4.424,18.753-3.39,18.122-9.062-.617-5.546-14.643,3.526-15.23-.482-.362-2.475,20.845-2.266,21.275-7.893s-15.345-.183-18.453-1.836,29.9-11.669,26.6-19.028c-2.695-6-24.7,8.039-28.324,6.629s13.959-13.291,19.395-24.163c5.621-11.244,1.026-16.905-7.87-7.963s-23.536,26.009-24.138,20.868,9.4-24.147,1.275-22.725c-14.291,2.5-15.471,26.149-19.9,44.631-.469,1.957-5.25-21.083-11.045-14.138-2.981,3.573,2.547,29.88,5.994,44.793Z" transform="translate(-504.401 -813.145)" fill="#96d9c9"/><circle cx="7.572" cy="7.572" r="7.572" transform="translate(184.791 210.244) rotate(-85.067)" fill="#fff"/><path d="M2275.332,591.778c-.239,1.886,1.725,3.383,3.472,3.265a4.3,4.3,0,0,0,3.851-3.612,3.16,3.16,0,0,0-2.838-3.847,2.382,2.382,0,0,0-2.51,3.177c.385,1.2,1.477,1.643,2.028,1.313a.547.547,0,0,0-.116-1.021.536.536,0,0,0-.533.23,1.568,1.568,0,0,1-.594-1.9c.375-1.141,1.818-1.207,2.714-.674a2.7,2.7,0,0,1,.9,3.3,3.511,3.511,0,0,1-2.944,2.275,2.735,2.735,0,0,1-2.9-2.5A.267.267,0,0,0,2275.332,591.778Z" transform="translate(-2016.411 -397.64)" fill="#f48c7f"/><path d="M2589,496.965l1.24-2.8-1.6-2.608a.421.421,0,0,1,.4-.639l3.045.315,1.985-2.33a.421.421,0,0,1,.732.185l.642,2.993,2.83,1.168a.421.421,0,0,1,.05.753l-2.648,1.535-.236,3.052a.421.421,0,0,1-.7.281l-2.279-2.044-2.976.718A.421.421,0,0,1,2589,496.965Z" transform="translate(-2296.973 -309.137)" fill="#f48c7f"/><path d="M1477.58,324.695l.93-2.1-1.2-1.956a.316.316,0,0,1,.3-.479l2.284.236,1.489-1.748a.315.315,0,0,1,.549.138l.481,2.245,2.122.876a.316.316,0,0,1,.038.565l-1.986,1.152-.177,2.289a.316.316,0,0,1-.525.21l-1.709-1.533-2.232.539A.316.316,0,0,1,1477.58,324.695Z" transform="translate(-1301.668 -156.687)" fill="#f7cc7f"/><path d="M2779.976,749.089l1.317-2.393,4.084,1.694,2.357-3.261,3.263.768.389-1.652-4.365-1.027-2.234,3.09-4.249-1.762-1.982,3.6Z" transform="translate(-2467.122 -537.035)" fill="#50bfa5"/><path d="M1718.888,204.961l-2.319-1.443,1.91-3.988-3.13-2.528.941-3.218-1.629-.476-1.259,4.3,2.966,2.4-1.986,4.148,3.489,2.171Z" transform="translate(-1513.158 -44.531)" fill="#07345a"/><path d="M2057.325,371.863l1.716-2.788-1.378-.559a.59.59,0,0,1-.325-.768h0a.589.589,0,0,1,.768-.325l1.59.645,1.534-2.5-1.472-.6a.59.59,0,0,1-.325-.768h0a.59.59,0,0,1,.768-.325l1.683.683,1.782-2.867a.59.59,0,0,1,.722-.235l.257.1a.589.589,0,0,1,.281.854l-1.658,2.705,2.441.99,1.782-2.867a.589.589,0,0,1,.722-.235l.281.114a.589.589,0,0,1,.281.854l-1.658,2.705,1.378.559a.589.589,0,0,1,.324.768h0a.589.589,0,0,1-.767.325l-1.59-.645-1.511,2.513,1.472.6a.589.589,0,0,1,.325.768h0a.589.589,0,0,1-.768.325l-1.684-.683-1.82,2.957a.59.59,0,0,1-.724.237l-.3-.122a.589.589,0,0,1-.281-.855l1.717-2.788-2.441-.99-1.821,2.957a.589.589,0,0,1-.723.237l-.3-.122A.589.589,0,0,1,2057.325,371.863Zm6.219-2.234,1.534-2.5-2.441-.99-1.535,2.5Z" transform="translate(-1821.102 -195.087)" fill="#50bfa5"/><path d="M601.1,177.589h0l-.021-.007c-.2-.071-.4-.135-.6-.194-.07-.02-.139-.041-.209-.06s-.148-.037-.223-.055-.151-.036-.227-.053-.144-.03-.217-.043-.163-.03-.244-.044l-.209-.032c-.088-.013-.177-.024-.266-.034-.065-.008-.13-.015-.195-.022-.1-.01-.2-.017-.307-.023l-.162-.011c-.158-.008-.316-.012-.476-.012h-73.21q-.256,0-.508.013a9.908,9.908,0,0,0-1,.1q-.245.038-.486.087a9.9,9.9,0,0,0-7.831,8.692,10.056,10.056,0,0,0-.051,1.013V337.036a9.907,9.907,0,0,0,6.512,9.316h0l.051.017c.188.067.38.128.573.184.07.02.139.041.209.06s.148.037.223.055.151.036.227.053.144.03.217.043.163.03.244.044l.209.032c.088.013.177.024.266.034.065.007.129.015.195.022.1.01.2.017.307.023l.162.011c.158.008.316.012.476.012h73.21a9.994,9.994,0,0,0,1.009-.051,9.892,9.892,0,0,0,8.812-8.842,10.057,10.057,0,0,0,.051-1.013V186.906A9.907,9.907,0,0,0,601.1,177.589Z" transform="translate(-439.552 -29.925)" fill="#042e6f"/><rect width="83.667" height="142.941" transform="translate(79.891 160.575)" fill="#eafcfc"/><path d="M644.167,366.54l-24.148-1.981-.688-14.153-5.934-.246v-9.644l30.77,13.2V351l-10.207-4.378-1.932-40.3h-2.492l1.88,39.209L613.4,337.807v-.275h-.642l-4.1-1.759-.019-29.446h-2.489l.018,28.378L581.2,324V306.327h-4.978v15.536L560.5,315.118v2.708l15.724,6.745v15.746l-15.724-7.34v2.747l15.724,7.34v9.3l-14.2,18.021-1.528.03V372.9l12.5-.247V389.6l13.049,7.249-13.691,6.019L560.5,394.408v3.058l11.2,7.99.009-.013-2.7,43.825H574l1.676-27.231,21.036,7.689L594.3,449.268h2.508l2.3-18.664,20.531,7.5-3.594,11.159h2.615l3.318-10.3,22.188,8.111v-2.65l-21.425-7.832,6.065-18.835-7.763-4.313c2.7-3.266,8.523-10.329,14.335-17.428,3.7-4.522,6.567-8.039,8.787-10.783v-3.963c-2.752,3.42-6.3,7.785-10.123,12.451l-13.011-8.315-.892-18.341,24.026,1.971ZM614.58,355.19l1.369,28.147-14.994-13.024V354.625ZM581.2,326.706l29.706,12.742v10.608L581.2,348.824Zm-15.956,43.611,13.1-16.63,20.119.835v15.139Zm10.24,17.82V372.6l23.769-.47,14.454,12.555-24.8,10.9Zm50.325,30.8-5.409,16.8-44.57-16.292.8-13.018,14.878-6.541Zm6.645-23.28c-4.568,5.575-9.4,11.443-13.624,16.555l-24.459-13.588L619.687,387.5Z" transform="translate(-480.609 -145.752)" fill="#fff"/><g transform="translate(91.492 189.893)"><path d="M720.453,689.677,671.631,672.23l.855-15.9L715.31,637.4l-16.938-14.519V604.528l-21.017-.632V587.173h1.778v15l21.017.632v19.259l18.459,15.822L674.2,657.512,673.478,671l47.574,17Z" transform="translate(-671.631 -587.173)" fill="#c0dde3"/></g><path d="M-2416.1,21.244h0c-.327,0-1.6-.162-3.771-.48a16.485,16.485,0,0,0,.106-1.836,16.182,16.182,0,0,0-4.75-11.524,16.174,16.174,0,0,0-11.5-4.8h-.037a16.332,16.332,0,0,0-15.956,13.022c-2.463-.406-3.994-.66-3.994-.66.04-.136,4.551-15.528,4.643-15.9a34.85,34.85,0,0,1,3.7-3.174A28.371,28.371,0,0,1-2443.627-7c.527,0,32.874,5.816,33.2,5.874,0,.011-.014.065-.036.158-.853,3.663-5.129,21.948-5.554,22.2A.215.215,0,0,1-2416.1,21.244Z" transform="translate(2573.257 281.833)" fill="#183658" stroke="rgba(0,0,0,0)" stroke-miterlimit="10" stroke-width="1"/><path d="M687.692,469.935l4.556,9.043,4.782-8.925a5.114,5.114,0,0,0-4.421-7.157l-.159,0h-.159A5.114,5.114,0,0,0,687.692,469.935Zm2.331-1.877a2.362,2.362,0,1,1,2.332,2.392A2.362,2.362,0,0,1,690.023,468.058Z" transform="translate(-594.187 -285.972)" fill="#ff741a"/><rect width="35.68" height="1.791" rx="0.868" transform="translate(103.81 154.292)" fill="#fff"/><path d="M928.38,1706.332a4.1,4.1,0,1,1-4.1-4.109A4.1,4.1,0,0,1,928.38,1706.332Z" transform="translate(-802.751 -1395.929)" fill="#daeef7" opacity="0.3"/><rect width="83.383" height="5.997" transform="translate(79.891 297.519)" fill="#3cb4c5" opacity="0.2"/><rect width="83.667" height="7.586" transform="translate(79.891 160.575)" fill="#3cb4c5" opacity="0.2"/><path d="M2176.838,927.55h-30.905a1.936,1.936,0,0,0-1.933,1.94v12.8a1.936,1.936,0,0,0,1.933,1.94h24.332a41.4,41.4,0,0,0,2.928,3.848,21.2,21.2,0,0,0-.337-3.848h3.983a1.936,1.936,0,0,0,1.933-1.94v-12.8A1.936,1.936,0,0,0,2176.838,927.55Z" transform="translate(-1898.807 -702.125)" fill="#ff741a"/><rect width="9.448" height="0.845" rx="0.422" transform="translate(249.16 229.981)" fill="#fff"/><rect width="6.382" height="0.845" rx="0.422" transform="translate(249.16 233.669)" fill="#fff"/><path d="M.422,0H6.494a.422.422,0,0,1,.422.422v0a.422.422,0,0,1-.422.422H.422A.422.422,0,0,1,0,.422v0A.422.422,0,0,1,.422,0Z" transform="translate(257.25 233.669)" fill="#fff"/><path d="M.422,0H9.567a.422.422,0,0,1,.422.422v0a.422.422,0,0,1-.422.422H.422A.422.422,0,0,1,0,.423v0A.422.422,0,0,1,.422,0Z" transform="translate(266.149 233.669)" fill="#fff"/><path d="M.422,0H15.075A.422.422,0,0,1,15.5.422v0a.422.422,0,0,1-.422.422H.422A.422.422,0,0,1,0,.422v0A.422.422,0,0,1,.422,0Z" transform="translate(260.641 229.981)" fill="#fff"/><path d="M.422,0H12.234a.422.422,0,0,1,.422.422v0a.422.422,0,0,1-.422.422H.422A.422.422,0,0,1,0,.423v0A.422.422,0,0,1,.422,0Z" transform="translate(249.16 237.427)" fill="#fff"/><path d="M.422,0H12.238a.422.422,0,0,1,.422.422v0a.422.422,0,0,1-.422.422H.422A.422.422,0,0,1,0,.423v0A.422.422,0,0,1,.422,0Z" transform="translate(263.477 237.427)" fill="#fff"/><path d="M985.279,1118.735c-1.377-9.079-5.828-10.986-18.994-13.619-14.528-2.906-32.973-12.38-32.973-12.38s-31.456-15.413-39.163-17.181-26.656-1.263-42.574-1.137-25.266,4.548-33.352,10.865-22.108,11.117-22.108,11.117l-2.547.455a5.493,5.493,0,0,0-4.527,5.407v22.53a5.62,5.62,0,0,0,4.185,5.434l9.206,2.432h0a1.316,1.316,0,0,0,1.53-1.16,18.5,18.5,0,1,1,36.55,5.567,1.829,1.829,0,0,0,1.8,2.162h84.729a2.725,2.725,0,0,0,2.707-3.078,18.4,18.4,0,1,1,36.537-.44,3.16,3.16,0,0,0,3.133,3.518H981.6a4.011,4.011,0,0,0,4.011-4.011v-11.8A31.207,31.207,0,0,0,985.279,1118.735Z" transform="translate(-685.293 -833.514)" fill="#c8f3ff"/><path d="M783.076,1368.08h10.035a1.2,1.2,0,0,1,1.11,1.668l-1.127,2.69a6.9,6.9,0,0,1-6.364,4.233h-3.654a1.3,1.3,0,0,1-1.295-1.295v-6A1.3,1.3,0,0,1,783.076,1368.08Z" transform="translate(-678.032 -1097.231)" fill="#ff741a"/><path d="M2464.5,1406.672c5.526.846,11.891,6.079,11.891,6.079a2.47,2.47,0,0,1-1.964,4.148l-10.775-.681a5.316,5.316,0,0,1-4.771-3.826h0C2457.836,1408.774,2458.728,1405.788,2464.5,1406.672Z" transform="translate(-2180.479 -1131.09)" fill="#f3fcff"/><path d="M781.074,1566.4a.968.968,0,0,0-.926,1.32,6.293,6.293,0,0,0,4.243,3.766l10.316,2.725a1.475,1.475,0,0,0,1.714-1.3,19.88,19.88,0,0,1,1.217-5,.829.829,0,0,0-.756-1.125Z" transform="translate(-677.268 -1274.285)" fill="#0082ae"/><path d="M2477.661,1607.073a1.273,1.273,0,0,0-1.288,1.446,20.693,20.693,0,0,1,.048,4.876,3.506,3.506,0,0,0,3.476,3.9h13.519a4.451,4.451,0,0,0,4.451-4.451v-3.5a1.828,1.828,0,0,0-1.783-1.827Z" transform="translate(-2196.473 -1310.711)" fill="#0082ae"/><path d="M1132.649,1126.63c-.18-.1-18.089-9.925-29.966-15.426-11.759-5.446-24.885-4.869-25.451-4.84-1.508-.035-32.913-.716-42.569,2.293-9.726,3.032-22.393,16.841-22.928,17.427l-.148.162,3.406,15.984.365-.02c9.906-.56,17.49,2.077,21.928,7.624a17.893,17.893,0,0,1,3.773,8.665l.032.38,35.718.918v0l.412.008.44.011v0l49.768.97.007-.428c.249-16.173,5.362-33.063,5.414-33.231l.1-.332Zm-90.785,31.417a18.811,18.811,0,0,0-3.883-8.709c-3.188-4-9.64-8.618-22.306-8l-3.163-14.84c1.466-1.576,13.449-14.237,22.4-17.028s38.057-2.336,41.894-2.263v51.736Zm84.729,1.872-48.93-.954V1107.2c2.3-.066,14.055-.135,24.661,4.777,11,5.1,27.208,13.919,29.613,15.234C1131.224,1129.651,1126.9,1145.014,1126.593,1159.918Z" transform="translate(-884.607 -862.191)" fill="#0082ae" opacity="0.5" style="mix-blend-mode:multiply;isolation:isolate"/><path d="M780.736,1579.044a6.293,6.293,0,0,0,4.243,3.766l10.316,2.725a1.475,1.475,0,0,0,1.714-1.3,19.888,19.888,0,0,1,.321-1.989Z" transform="translate(-677.855 -1285.609)" fill="#feb546" opacity="0.5" style="mix-blend-mode:multiply;isolation:isolate"/><path d="M2476.837,1655.378c-.02.43-.052.857-.1,1.28a3.506,3.506,0,0,0,3.476,3.9h13.519a4.451,4.451,0,0,0,4.451-4.451v-.733Z" transform="translate(-2196.792 -1353.974)" fill="#0082ae" opacity="0.5" style="mix-blend-mode:multiply;isolation:isolate"/><path d="M1361.42,1595.9a18.5,18.5,0,0,1,.193-2.72,1.79,1.79,0,0,0-1.719-2.061l-88.127-2.151a1.42,1.42,0,0,0-1.392,1.819,18.526,18.526,0,0,1,.7,5.067,18.814,18.814,0,0,1-.311,3.4,1.867,1.867,0,0,0,1.828,2.219h86.238a2.788,2.788,0,0,0,2.75-3.173A18.86,18.86,0,0,1,1361.42,1595.9Z" transform="translate(-1116.33 -1294.499)" fill="#0082ae"/><path d="M1365.184,1654.988c0-.015,0-.03,0-.046h-90.563a18.777,18.777,0,0,1-.312,3.4,1.869,1.869,0,0,0,1.833,2.219h86.446a2.79,2.79,0,0,0,2.757-3.174A18.81,18.81,0,0,1,1365.184,1654.988Z" transform="translate(-1120.067 -1352.584)" fill="#042e6f"/><path d="M.963,0H10.975a.963.963,0,0,1,.963.963v0a.963.963,0,0,1-.963.963H.963A.963.963,0,0,1,0,.963v0A.963.963,0,0,1,.963,0Z" transform="translate(135.449 268.922)" fill="#ff741a"/><path d="M.963,0H10.975a.963.963,0,0,1,.963.963v0a.963.963,0,0,1-.963.963H.963A.963.963,0,0,1,0,.963v0A.963.963,0,0,1,.963,0Z" transform="translate(196.065 269.886)" fill="#ff741a"/><path d="M1084.336,1144.537l48.7.46s2.981-.08,3.387-2.885.371-14.819.371-14.819a2.831,2.831,0,0,0-2.664-2.443,153.513,153.513,0,0,0-24.615.534,41.886,41.886,0,0,0-24.52,11.951l-3.457,3.458S1079.21,1144.489,1084.336,1144.537Z" transform="translate(-946.785 -877.588)" fill="#042e6f" opacity="0.5"/><path d="M1667.332,1141.405V1154a3.008,3.008,0,0,0,2.843,3.045l38.27,1.539a2.575,2.575,0,0,0,2.243-1.1c.687-1.013.766-2.678-2.663-4.911-5.964-3.883-21.136-12.282-26.749-13.095-3.573-.517-8.247-.742-11.173-.837A2.725,2.725,0,0,0,1667.332,1141.405Z" transform="translate(-1471.898 -890.176)" fill="#042e6f" opacity="0.5"/><path d="M2397.656,1136.428l-.251.226a.308.308,0,0,1-.434-.011l-4.458-4.917a.3.3,0,0,1,.034-.431l.251-.226a.308.308,0,0,1,.434.011l4.457,4.917A.305.305,0,0,1,2397.656,1136.428Z" transform="translate(-2121.312 -884.323)" fill="#042e6f"/><path d="M2421.419,1144.22c-.6-.486-5.2,1.542-5.145,2.249s-3.215,7.552-3.215,7.552l-5.656-4.526h0c-.05-.164-.586-1.924-.612-2.239-.028-.33-.983-.908-1.427-.823s.379.644.434.747c.147.279-.422.384-.422.384s-1.634-.9-1.669-1.429-.372-1.639-.725-1.407c-.182.12-.18.907-.124,1.281-.1-.424-.254-.9-.4-.95-.264-.087-.4.251-.348.417s.475,1.966.6,2.168,2.766,2.332,3.146,2.795c0,0,7.317,8.393,7.838,8.612.457.193,2.087-2.7,3.627-4.62S2423.281,1145.739,2421.419,1144.22Z" transform="translate(-2129.962 -896.11)" fill="#f5ddae"/><path d="M2723.472,1712.382s1.005.984,1.028,1.346.089,4.231-.322,4.593-1.616.617-1.228,1.024c.293.307,2.546.241,4.04.159.436-.024.983-3.515,1.156-4.028.251-.745.861-2.423.633-2.943a4.361,4.361,0,0,0-1.392-1.259,6.848,6.848,0,0,1-1.542-1.647Z" transform="translate(-2417.252 -1402.559)" fill="#f48c7f"/><path d="M2596.362,1757.511s.9,2.55.9,2.557c.067.4.33,1.4.33,1.77,0,1.38-6.2-1.171-4.812-1.783a1.474,1.474,0,0,0,.562-.967,3.236,3.236,0,0,0-.522-1.631Z" transform="translate(-2300.556 -1445.396)" fill="#f7a491"/><g transform="translate(284.405 264.623)"><path d="M2521.289,1303.037s-.452,4.572-.452,4.64c0,7.4-1.461,21.843-1.183,23.233.678,3.391,7.974,20.693,7.974,20.693l3.943-.473-5.138-20.715,1.891-8.338L2531,1305.6Z" transform="translate(-2519.618 -1303.037)" fill="#355389"/><path d="M2558.634,1312.678l.748,4.333,2.024,17.834,7.709,17.431s-1.084,2.536-2.684,2.893l-12.27-17.9-7.622-22.9.268-5.088Z" transform="translate(-2543.729 -1308.634)" fill="#466eb6"/></g><path d="M2520.557,1096.076l5.468.56s.251-4.5.251-6.643c0-2.6-.221-5.956-.535-5.884a4.764,4.764,0,0,0-2.768,1.662C2520.534,1089.134,2520.557,1096.076,2520.557,1096.076Z" transform="translate(-2236.054 -842.34)" fill="#ff741a"/><path d="M2527.273,1088.049c-.115.794-2.216,22.37-2.216,22.37,9.956,4.825,15.449.859,15.449.859s-.326-15.151.065-17.213c.258-1.364.58-10.431-.3-10.684a21.994,21.994,0,0,0-3.841-.819,36.594,36.594,0,0,0-6.73.084A10.726,10.726,0,0,0,2527.273,1088.049Z" transform="translate(-2240.085 -840.855)" fill="#042e6f"/><path d="M2723.872,1725.172s-2.317,6.547-3.224,6.863c-.241.084-1.4.3-1.615.81a2.228,2.228,0,0,0,0,.671h4.83s.611-2.885.852-4.152a18.868,18.868,0,0,0,1.136-3.378C2725.709,1725.7,2723.872,1725.172,2723.872,1725.172Z" transform="translate(-2413.785 -1416.482)" fill="#50bfa5"/><path d="M2556.713,1784.473l-.711-2.251a6.152,6.152,0,0,1-2.237.528,22.536,22.536,0,0,1-2.2-.528c-2.977.983-5.416,1.46-4.972,2.251h10.122Z" transform="translate(-2259.324 -1467.577)" fill="#50bfa5"/><g transform="translate(283.069 257.314)"><path d="M2507.49,1238.649a1.281,1.281,0,0,1-.15-.112c.177-2.114.145-4.162-.516-4.855l.311-.661c.766.594,1.13,2.174.988,4.739a4.353,4.353,0,0,1-.1.531C2507.8,1238.536,2507.6,1238.694,2507.49,1238.649Z" transform="translate(-2506.824 -1233.021)" fill="#ffd684"/></g><path d="M2681.31,1153.922a.616.616,0,0,0,0-.139c-.147-1.494-1.383-14.041-1.591-14.574-.188-.482-5.733-8.439-5.733-8.439l-2.725,3.726,5.333,7.138c.119.454,2.044,8.923,2.044,8.923s.394,1.544.571,2.469c-.081.223-.16.433-.23.606a5.562,5.562,0,0,1-.575.927,6.361,6.361,0,0,0-.681,1.208c-.057.218-.158.671-.216.944s-.137.592-.15.74a1.431,1.431,0,0,1-.172.4.239.239,0,0,0,.281.344c.194-.065.344-.316.438-.473.262-.443.4-1.251.468-1.208s.295,1.414.332,1.569a16.925,16.925,0,0,0,.468,2.038c.156.291.361.242.416.06.047-.157-.172-2.385-.172-2.385s-.027-.284.1-.2.327,2.111.413,2.407.283.453.45.215a8.983,8.983,0,0,0-.146-2.434s-.039-.27.076-.245.259,1.749.348,1.9a.226.226,0,0,0,.422-.046,10.64,10.64,0,0,0-.2-2.2s.017-.152.088-.1.3,1.511.447,1.646a.156.156,0,0,0,.228,0c.272-.186-.145-1.575-.141-2.266a17.071,17.071,0,0,1-.22-2.29C2681.283,1154.128,2681.3,1154,2681.31,1153.922Z" transform="translate(-2371.028 -884.13)" fill="#f5ddae"/><path d="M2657.566,1100.611l-4.737,3.191a51.533,51.533,0,0,0-4.1-5.405c-1.8-1.778.654-7.224,1.811-6.916C2653.124,1092.17,2657.566,1100.611,2657.566,1100.611Z" transform="translate(-2350.273 -848.932)" fill="#ff741a"/><path d="M2594.938,1036.448l.708,4.686s-2.587,5.579-4.132,5.1c-1.3-.406-.5-5.343-.5-5.343a13.574,13.574,0,0,0,.494-3.978C2591.3,1035.582,2594.938,1036.448,2594.938,1036.448Z" transform="translate(-2298.94 -799.406)" fill="#f5ddae"/><path d="M2597.058,1036.909c-.212-1.327,3.428-.461,3.428-.461l.059.389a2.167,2.167,0,0,1-.395.653,4.785,4.785,0,0,1-3.182,1.445A7.259,7.259,0,0,0,2597.058,1036.909Z" transform="translate(-2304.488 -799.406)" fill="#f5ddae"/><g transform="translate(290.379 226.533)"><path d="M2583.07,962.772c.1-.037.825,5.337-.545,6.815s-4.038,1.963-4.995.8c-1.058-1.288-1.005-7.064,1.124-8.585S2583.07,962.772,2583.07,962.772Z" transform="translate(-2576.855 -958.892)" fill="#f5ddae"/><path d="M2585.988,938.2a5.911,5.911,0,0,1,3.1,1.776c.747.089,1.763.5,2.812,2.245a4.367,4.367,0,0,1-1.164,5.681,3.4,3.4,0,0,0-1.48,2.51l-.238-.7a3.9,3.9,0,0,1-.188-1.639,3.216,3.216,0,0,1,.243-.986c.361-.778-.776-1.294-1.094-1.942-.245-.5-.257-1.638-.644-2.462l-.462-.629a2.93,2.93,0,0,0-2.107-.6C2583.726,941.693,2583.876,937.763,2585.988,938.2Z" transform="translate(-2583.378 -938.162)" fill="#001921"/><path d="M2621.622,1004.136c-.01.656.286,1.193.664,1.2s.692-.52.7-1.176-.286-1.192-.664-1.2S2621.633,1003.48,2621.622,1004.136Z" transform="translate(-2616.948 -996.196)" fill="#f5ddae"/></g><path d="M2582.61,1027.814l-2.064-.107a.905.905,0,0,0,.913.863C2582.565,1028.659,2582.61,1027.814,2582.61,1027.814Z" transform="translate(-2289.781 -791.826)" fill="#fff"/><path d="M1520.648,617.247l11.652,23.128,12.231-22.827a13.081,13.081,0,0,0-11.306-18.3q-.2-.009-.406-.011t-.406,0A13.081,13.081,0,0,0,1520.648,617.247Zm5.961-4.8a6.042,6.042,0,1,1,5.965,6.118A6.042,6.042,0,0,1,1526.61,612.447Z" transform="translate(-1339.665 -408.079)" fill="#ff741a"/><path d="M1.473,0H304.042a1.473,1.473,0,0,1,1.473,1.473v0a1.473,1.473,0,0,1-1.473,1.473H1.473A1.473,1.473,0,0,1,0,1.473v0A1.473,1.473,0,0,1,1.473,0Z" transform="translate(39.261 316.896)" fill="#042e6f"/><g transform="translate(120.887 284.399)"><ellipse cx="16.291" cy="16.286" rx="16.291" ry="16.286" transform="translate(0 32.582) rotate(-89.876)" fill="gray"/><ellipse cx="11.331" cy="11.335" rx="11.331" ry="11.335" transform="translate(4.99 4.991)" fill="#9e9da2"/><ellipse cx="7.578" cy="7.58" rx="7.578" ry="7.58" transform="translate(8.743 8.746)" fill="#d8d9dd"/></g><g transform="translate(246.275 284.399)" opacity="0.5"><ellipse cx="16.291" cy="16.286" rx="16.291" ry="16.286" transform="matrix(0.002, -1, 1, 0.002, 0, 32.582)" fill="#1a1a1a"/><ellipse cx="11.331" cy="11.335" rx="11.331" ry="11.335" transform="translate(4.99 4.991)" fill="#9e9da2"/><ellipse cx="7.578" cy="7.58" rx="7.578" ry="7.58" transform="translate(8.743 8.746)" fill="#d8d9dd"/></g></g></svg>