<svg xmlns="http://www.w3.org/2000/svg" width="127.18" height="94.571" viewBox="0 0 127.18 94.571"><g transform="translate(-110 -239)"><path d="M231.621,342.826q8.613-1.4,17.013-3.564c16.77-4.352,32.691-10.708,47.314-20.111a111.518,111.518,0,0,0,19.015-15.3,94.725,94.725,0,0,0,11.02-13.351c.142-.209.292-.412.494-.7L358.8,343.176c-.255.029-.441.067-.627.068-3.019.021-6.038.032-9.057.056q-9.093.072-18.187.155-8.049.072-16.1.153-8.358.08-16.717.156c-5.288.051-10.577.113-15.865.15-3.093.022-6.187,0-9.162,0,1.569-.432,3.275-.888,4.973-1.37a133.068,133.068,0,0,0,25.754-10.394,4.306,4.306,0,0,1,1.893-.469q14.242-.137,28.484-.208c1.1-.007,2.2,0,3.527,0l-12.374-20.41c-1.268,1.183-2.483,2.253-3.626,3.395-5.965,5.961-13.063,10.3-20.44,14.211A126.023,126.023,0,0,1,264.7,341.355a108.028,108.028,0,0,1-19.6,1.922c-4.276-.006-8.552-.22-12.828-.346A4.8,4.8,0,0,1,231.621,342.826Z" transform="translate(-121.621 -10.354)" fill="#042e6f"/><path d="M301.978,249.354c.683,1.123,1.3,2.126,1.9,3.133q6.906,11.416,13.821,22.83c.294.483.375.851-.04,1.3a42.838,42.838,0,0,1-8.505,6.906,1.905,1.905,0,0,1-.362.116c-2.242-3.7-4.482-7.385-6.818-11.233-6.893,11.394-13.7,22.649-20.51,33.9l.2.2c22.365-11.145,41.75-26.034,57.238-45.82-1.288,5.316-13.28,23.431-20.94,31.742A125.194,125.194,0,0,1,288.2,316.438a138.3,138.3,0,0,1-35.425,14.293Z" transform="translate(-121.621 -10.354)" fill="#ff741a"/></g></svg>