<svg xmlns="http://www.w3.org/2000/svg" width="18.146" height="20.738" viewBox="0 0 18.146 20.738"><defs><style>.a{fill:#fff;}</style></defs><g transform="translate(-86.227 -174)"><path class="a" d="M0,18.794a1.945,1.945,0,0,0,1.944,1.944H16.2a1.945,1.945,0,0,0,1.944-1.944V7.777H0Zm12.961-7.939a.487.487,0,0,1,.486-.486h1.62a.487.487,0,0,1,.486.486v1.62a.487.487,0,0,1-.486.486h-1.62a.487.487,0,0,1-.486-.486Zm0,5.184a.487.487,0,0,1,.486-.486h1.62a.487.487,0,0,1,.486.486v1.62a.487.487,0,0,1-.486.486h-1.62a.487.487,0,0,1-.486-.486ZM7.777,10.855a.487.487,0,0,1,.486-.486h1.62a.487.487,0,0,1,.486.486v1.62a.487.487,0,0,1-.486.486H8.263a.487.487,0,0,1-.486-.486Zm0,5.184a.487.487,0,0,1,.486-.486h1.62a.487.487,0,0,1,.486.486v1.62a.487.487,0,0,1-.486.486H8.263a.487.487,0,0,1-.486-.486ZM2.592,10.855a.487.487,0,0,1,.486-.486H4.7a.487.487,0,0,1,.486.486v1.62a.487.487,0,0,1-.486.486H3.078a.487.487,0,0,1-.486-.486Zm0,5.184a.487.487,0,0,1,.486-.486H4.7a.487.487,0,0,1,.486.486v1.62a.487.487,0,0,1-.486.486H3.078a.487.487,0,0,1-.486-.486ZM16.2,2.592H14.257V.648A.65.65,0,0,0,13.609,0h-1.3a.65.65,0,0,0-.648.648V2.592H6.481V.648A.65.65,0,0,0,5.833,0h-1.3a.65.65,0,0,0-.648.648V2.592H1.944A1.945,1.945,0,0,0,0,4.536V6.481H18.146V4.536A1.945,1.945,0,0,0,16.2,2.592Z" transform="translate(86.227 174)"/></g></svg>