<svg xmlns="http://www.w3.org/2000/svg" width="11.332" height="16.253" viewBox="0 0 11.332 16.253"><defs><style>.a{fill:#fff;}</style></defs><g transform="translate(0 0)"><path class="a" d="M620.6-7.5a15.77,15.77,0,0,1,1.28,1.891,9.882,9.882,0,0,1,.7,1.783c.142.41.276.536.561.536.31,0,.452-.209.561-.536a10.053,10.053,0,0,1,.678-1.749,19.581,19.581,0,0,1,1.9-2.686,16.625,16.625,0,0,0,1.883-2.712,6.6,6.6,0,0,0,.645-2.871,5.706,5.706,0,0,0-.636-2.653l-1.841.494-1.121,2.946-.276.4-.059.075-.075.092-.126.151-.184.184-1,.812L621.01-9.905Z" transform="translate(-617.478 19.546)"/><path class="a" d="M589.9,2.293a20.157,20.157,0,0,0,2.569,3.674l4.21-4.988a2.21,2.21,0,0,1-1.665.778A2.156,2.156,0,0,1,592.846-.4a2.31,2.31,0,0,1,.494-1.4l-2.854.762Z" transform="translate(-589.348 6.077)"/><path class="a" d="M634.39-49.8A5.618,5.618,0,0,1,637.7-47L634.339-43a2.34,2.34,0,0,0,.494-1.4,2.18,2.18,0,0,0-2.159-2.159,2.266,2.266,0,0,0-1.674.77V-48.31Z" transform="translate(-627.008 50.059)"/><path class="a" d="M599.1-50.875a5.623,5.623,0,0,1,4.327-2.025,5.786,5.786,0,0,1,1.724.259l-3.381,4.017h-2.394Z" transform="translate(-597.778 52.9)"/><path class="a" d="M583.852-22.265a6.479,6.479,0,0,1-.552-2.678,5.635,5.635,0,0,1,1.331-3.657l2.67,2.251Z" transform="translate(-583.3 30.634)"/></g></svg>